<svg width="375" height="328" viewBox="0 0 375 328" fill="none" xmlns="http://www.w3.org/2000/svg">
<rect x="85.9014" y="42.2426" width="172.052" height="172.052" rx="5" transform="rotate(45 85.9014 42.2426)" fill="#16B77B" stroke="white" stroke-width="6" stroke-linejoin="round"/>
<path d="M31.8977 173.851C28.428 173.08 28.0425 169.675 28.2834 168.069L100.088 149.756C101.052 152.84 99.6862 154.415 98.883 154.816C101.003 158.093 98.4814 160.84 96.9553 161.804C97.9192 166.43 93.6623 168.229 91.4134 168.55C91.7989 172.599 86.4337 174.092 83.7029 174.333C83.5101 175.104 82.0162 175.137 81.2933 175.056L67.318 180.357C63.8483 183.827 60.0894 182.446 58.6437 181.321C54.5956 185.755 50.3709 183.168 48.7645 181.321C42.5961 183.441 39.7689 179.795 39.1264 177.707C34.5001 178.863 32.3797 175.618 31.8977 173.851Z" fill="#F9FAFB"/>
<path d="M25.874 168.516C21.6814 165.659 21.5368 163.731 21.6815 161.453C21.8261 159.174 20.5812 152.268 22.7416 150.72C38.0394 139.756 65.7303 134.974 73.8239 134.059C83.3957 132.437 99.0171 132.087 104.425 135.299C107.049 136.857 104.425 143.804 104.425 145.419C104.425 149.515 106.112 151.167 96.4735 151.649C86.8354 152.131 62.2581 164.42 52.379 172.371C42.4998 180.323 30.0666 171.373 25.874 168.516Z" fill="#FFD52F"/>
<path d="M25.8737 144.937C42.0658 130.287 64.587 124.536 73.8235 123.492C88.0398 121.083 99.1237 129.034 102.738 132.407C106.352 135.781 106.111 140.6 96.4732 141.082C86.8351 141.564 62.2578 153.852 52.3786 161.804C42.4995 169.755 33.5842 163.49 25.8737 157.949C19.7053 153.515 23.3035 147.427 25.8737 144.937Z" fill="#FFE731"/>
<path d="M68.282 152.407C69.4385 158.382 68.5229 173.691 68.041 180.598L83.2211 175.056C85.1488 166.189 83.7833 151.202 82.9802 144.937L68.282 152.407Z" fill="#1F2933"/>
<path d="M50.6095 137.328C50.6674 137.461 50.6262 137.415 50.6035 137.39C50.6031 137.39 50.6027 137.39 50.6023 137.389C50.597 137.383 50.5943 137.382 50.5912 137.382C50.5838 137.379 50.5739 137.377 50.518 137.302C50.5154 137.307 50.5121 137.31 50.508 137.313C50.4636 137.335 50.3647 137.251 50.2548 137.145C50.2546 137.146 50.2544 137.147 50.2542 137.148C50.2498 137.167 50.2443 137.19 50.2117 137.148C50.1701 137.094 50.1343 137.042 50.1037 136.997C50.0157 136.912 49.9331 136.838 49.8782 136.818C49.861 136.812 49.8466 136.811 49.8354 136.817C49.8252 136.822 49.8171 136.831 49.8108 136.844C49.8192 136.875 49.8306 136.912 49.8411 136.945C49.8559 136.992 49.8691 137.034 49.8701 137.049C49.8726 137.086 49.8333 137.046 49.8041 137.016C49.7993 137.011 49.7948 137.007 49.7908 137.003C49.7911 137.025 49.792 137.048 49.7931 137.072C49.7871 137.061 49.7807 137.051 49.7743 137.04C49.6937 136.901 49.6854 136.907 49.6723 136.917C49.6666 136.922 49.66 136.927 49.6461 136.921C49.6372 136.917 49.6053 136.862 49.5793 136.817C49.5716 136.804 49.5645 136.791 49.5585 136.782C49.5383 136.748 49.5554 136.787 49.5757 136.833C49.602 136.893 49.6336 136.965 49.5955 136.905C49.474 136.713 49.5361 136.854 49.5831 136.96C49.5969 136.991 49.6094 137.019 49.6155 137.035C49.6355 137.087 49.6029 137.042 49.5627 136.978C49.5308 136.928 49.5488 136.985 49.5764 137.055C49.5868 137.082 49.5836 137.085 49.5797 137.087C49.5758 137.09 49.5711 137.093 49.5804 137.124C49.6039 137.203 49.6147 137.241 49.6233 137.272C49.6257 137.281 49.6279 137.289 49.6303 137.297C49.6378 137.324 49.6419 137.346 49.6461 137.369C49.6511 137.397 49.6561 137.424 49.6671 137.459C49.6351 137.433 49.599 137.398 49.5629 137.364C49.5443 137.346 49.4738 137.227 49.3643 137.028C49.2546 136.828 49.1154 136.566 48.9743 136.293C48.8332 136.02 48.7 135.755 48.601 135.55C48.502 135.345 48.4458 135.218 48.4421 135.193C48.435 135.141 48.4278 135.09 48.4252 135.048C48.422 134.996 48.4257 134.958 48.4442 134.948C48.4572 134.941 48.4735 134.941 48.4926 134.946C48.4945 134.947 48.4966 134.947 48.4986 134.948C48.4748 134.875 48.4542 134.808 48.4507 134.782C48.4477 134.761 48.4708 134.795 48.4906 134.823C48.5042 134.843 48.5163 134.861 48.5172 134.856C48.5177 134.854 48.5173 134.849 48.5169 134.843C48.5152 134.818 48.5124 134.776 48.5599 134.834C48.5809 134.86 48.6175 134.914 48.6524 134.966C48.7023 135.039 48.7488 135.108 48.7418 135.083C48.7294 135.04 48.7557 135.068 48.7789 135.094C48.801 135.118 48.8204 135.139 48.8008 135.092C48.7774 135.035 48.7927 135.055 48.8154 135.085C48.8311 135.106 48.8503 135.131 48.8627 135.139C48.877 135.148 48.9021 135.183 48.9233 135.213C48.9532 135.256 48.9758 135.288 48.9507 135.221C48.9228 135.146 48.9084 135.097 48.9265 135.116C48.9347 135.124 48.937 135.12 48.9393 135.116C48.9423 135.11 48.9456 135.104 48.9631 135.127C48.9775 135.145 49.0079 135.197 49.0347 135.243C49.0431 135.257 49.0511 135.27 49.0582 135.282C49.0609 135.28 49.0634 135.278 49.0656 135.274C49.0617 135.266 49.0574 135.256 49.0529 135.246C49.0305 135.195 49.003 135.134 48.9918 135.101C48.974 135.051 48.995 135.077 49.0171 135.106C49.0343 135.128 49.0523 135.151 49.0532 135.139C49.0538 135.131 49.0471 135.107 49.0404 135.083C49.0304 135.048 49.0206 135.013 49.0352 135.031C49.0407 135.038 49.0592 135.07 49.0776 135.103C49.0777 135.103 49.0778 135.103 49.0779 135.104C49.0791 135.106 49.0804 135.108 49.0816 135.11C49.0793 135.079 49.0756 135.046 49.0712 135.011C49.0678 135.002 49.0644 134.993 49.0611 134.984C49.0448 134.941 49.029 134.899 49.0032 134.841C48.9753 134.779 48.9651 134.74 48.9543 134.698C48.9472 134.671 48.9399 134.643 48.9273 134.607C48.9199 134.585 48.94 134.619 48.9607 134.653C48.98 134.685 48.9998 134.717 48.9983 134.708C48.9975 134.703 48.9917 134.688 48.9855 134.672C48.98 134.657 48.9743 134.642 48.9714 134.633C48.9687 134.624 48.9814 134.641 48.9976 134.663C49.0077 134.677 49.019 134.692 49.029 134.704C49.026 134.678 49.0235 134.654 49.0217 134.631C49.008 134.6 48.9895 134.56 48.965 134.509C48.9474 134.472 48.9262 134.429 48.9044 134.384C48.8748 134.324 48.8443 134.261 48.8205 134.211C48.8019 134.172 48.7953 134.156 48.8043 134.172C48.8086 134.179 48.816 134.193 48.8228 134.205C48.8306 134.22 48.8375 134.233 48.8376 134.232C48.8377 134.232 48.8327 134.221 48.8267 134.209C48.817 134.188 48.8045 134.162 48.8051 134.161C48.8071 134.155 48.8157 134.161 48.824 134.167C48.8333 134.174 48.8424 134.181 48.8421 134.171C48.8418 134.16 48.8672 134.196 48.8925 134.231C48.9102 134.256 48.9278 134.28 48.9368 134.289C48.9457 134.298 48.9385 134.275 48.9314 134.253C48.9229 134.226 48.9146 134.2 48.9352 134.232C48.9393 134.238 48.9614 134.279 48.9889 134.331C49.0084 134.367 49.0308 134.409 49.0515 134.448C49.0559 134.445 49.061 134.445 49.067 134.446C49.0642 134.44 49.0615 134.434 49.0586 134.428C49.0586 134.428 49.0585 134.428 49.0584 134.428C48.9946 134.294 48.9074 134.11 48.9692 134.215C48.9849 134.241 49.0117 134.291 49.0359 134.337C49.0597 134.381 49.081 134.421 49.0865 134.429C49.0928 134.437 49.0805 134.409 49.0671 134.378C49.0483 134.335 49.0274 134.286 49.0525 134.328C49.0542 134.331 49.0561 134.335 49.058 134.338C49.0759 134.368 49.1024 134.412 49.1526 134.503C49.1743 134.523 49.1982 134.548 49.2235 134.575C49.2655 134.62 49.3114 134.672 49.3571 134.725C49.3796 134.75 49.4507 134.873 49.5584 135.073C49.6663 135.272 49.801 135.531 49.9374 135.8C50.0738 136.069 50.2026 136.331 50.3 136.536C50.3973 136.741 50.4543 136.871 50.462 136.904C50.4743 136.958 50.4866 137.011 50.4971 137.061C50.4993 137.067 50.5014 137.073 50.5033 137.078C50.5178 137.119 50.552 137.196 50.5862 137.274C50.594 137.292 50.6019 137.31 50.6095 137.328ZM39.1422 153.922C40.4763 153.697 43.3592 154.416 44.5923 155.38C44.6153 155.396 44.6381 155.411 44.6607 155.426C44.9604 155.627 45.2239 155.817 45.514 156.038C45.8527 156.294 46.2374 156.619 46.6125 156.888C46.797 157.02 46.9579 157.11 47.0599 157.148C47.1624 157.184 47.2601 157.223 47.5734 157.158C47.9232 157.053 48.3958 156.801 48.8544 156.499C48.8817 156.482 48.9094 156.463 48.9373 156.445C54.4887 152.553 60.263 148.383 66.3467 144.895C66.4228 144.848 66.5002 144.801 66.5785 144.753C68.0886 143.823 70.004 142.724 71.2616 142.126C72.8576 141.362 73.9717 140.905 74.896 140.543C77.4531 139.452 80.119 138.494 82.9385 138.001C85.6759 137.53 88.4217 136.94 90.9809 136.029C92.5054 135.474 94.2107 134.718 94.9507 133.746C95.1034 133.531 95.1463 133.369 95.1373 133.249C95.1315 133.127 95.0569 132.946 94.8804 132.741C94.5222 132.322 93.8953 131.93 93.2412 131.609C93.1865 131.584 93.1307 131.559 93.0739 131.534C92.2818 131.187 91.5285 130.861 90.828 130.562C89.7685 130.109 88.8331 129.723 88.0648 129.402C86.2197 128.618 84.1409 127.825 82.5517 127.463C82.2927 127.401 82.0472 127.348 81.8195 127.304C80.5443 127.104 79.2567 127.047 77.9758 127.133C77.8888 127.126 77.802 127.118 77.7138 127.111C77.4161 127.087 77.1016 127.082 76.7538 127.1C75.8518 127.142 74.68 127.378 73.1175 127.793C72.1807 128.043 71.1012 128.359 69.8307 128.75C69.0175 129.002 68.5739 129.084 68.2174 129.149C68.1118 129.168 68.0124 129.186 67.9126 129.208C67.5712 129.282 67.2448 129.439 66.8513 129.629C66.3481 129.873 65.7423 130.171 64.8858 130.407C62.1589 131.167 61.0565 131.78 60.2241 132.232C59.9801 132.366 59.7617 132.486 59.5287 132.599C58.782 132.958 57.6616 133.36 56.8145 133.636C56.1335 133.857 54.8549 134.47 53.907 134.978C53.5499 135.168 53.0461 135.396 52.4661 135.666C51.8629 135.947 51.1609 136.28 50.4496 136.673C50.0854 136.874 49.7545 137.062 49.4797 137.225L49.4609 137.235C48.2622 137.914 47.5195 138.347 46.9008 138.709C46.683 138.836 46.4752 138.958 46.2714 139.079C45.6263 139.461 44.8242 139.929 44.0163 140.412C43.0496 140.989 42.0775 141.586 41.3529 142.061C39.4086 143.181 37.4824 144.33 35.703 145.603C34.7987 146.253 33.9206 146.825 33.3146 147.208C32.7063 147.59 32.4787 147.668 32.1656 147.743C32.0172 147.767 31.8312 147.636 31.778 147.325C31.7269 147.007 31.8175 146.587 32.0281 146.154C32.4589 145.272 33.2866 144.396 34.2326 143.651C36.154 142.155 38.1469 140.861 40.1692 139.609C42.6339 138.092 45.1433 136.671 47.7013 135.333C47.9092 135.225 48.1144 135.118 48.3144 135.015L48.293 135.027C49.9214 134.158 51.5391 133.425 53.1927 132.7C53.3825 132.617 53.5702 132.536 53.7626 132.453C55.2927 131.698 56.8242 130.986 57.9224 130.513C58.8255 130.123 59.5099 129.896 60.0946 129.703C60.4963 129.571 60.8548 129.454 61.2061 129.315C61.3952 129.241 61.653 129.137 61.9646 129.012C63.2355 128.503 65.4039 127.662 67.4493 127.055C68.3501 126.786 69.4226 126.507 70.4461 126.264C71.9114 125.912 73.295 125.64 73.9921 125.457C74.7624 125.251 75.6141 125.08 76.5105 124.991C77.0212 124.941 77.5217 124.915 78.0056 124.907C79.2524 124.883 80.3427 124.994 80.9637 125.011C81.708 125.034 82.3358 125.155 83.2407 125.393C83.8675 125.56 84.6291 125.788 85.6371 126.137C86.8008 126.543 87.5804 126.913 88.2388 127.228C89.163 127.676 89.8437 128.029 90.9029 128.449C91.9655 128.871 93.0424 129.342 93.9192 129.773C94.0274 129.826 94.1301 129.879 94.2273 129.932C94.6671 130.172 95.1945 130.465 95.7143 130.881C96.3551 131.377 97.2555 132.407 97.0104 133.658C96.8038 134.605 96.2667 135.031 95.8867 135.348C95.7533 135.454 95.6428 135.529 95.5217 135.611C95.1142 135.947 94.6788 136.225 94.251 136.468C94.1855 136.516 94.1154 136.567 94.0404 136.619C93.6841 136.873 93.217 137.175 92.6217 137.46C91.6734 137.912 90.8003 138.173 89.8782 138.421C89.165 138.611 88.4126 138.792 87.5696 139.016C86.9927 139.169 86.336 139.349 85.6839 139.517C84.8292 139.738 83.9861 139.937 83.3231 140.052C83.2426 140.066 83.1649 140.08 83.0907 140.092C82.854 140.13 82.6416 140.138 82.4285 140.149C82.4275 140.149 82.4266 140.149 82.4256 140.149C82.4111 140.15 82.3966 140.151 82.3821 140.152C80.8407 140.542 79.3266 141.089 77.8437 141.717C77.7161 141.779 77.5922 141.839 77.4665 141.901C76.8519 142.203 76.261 142.512 75.8922 142.749C75.487 143.007 74.4385 143.539 73.3455 144.147C72.6312 144.542 71.8959 144.968 71.3099 145.334C70.9661 145.548 70.6123 145.702 70.2492 145.862C69.9105 146.012 69.5615 146.168 69.2085 146.385C69.0316 146.494 68.8462 146.621 68.6488 146.758C68.475 146.878 68.2917 147.006 68.0965 147.134C67.9149 147.254 67.4909 147.484 66.9484 147.787C66.6126 147.974 66.2336 148.188 65.8382 148.419C64.8257 149.085 63.8264 149.761 62.8261 150.451C62.6356 150.618 62.4777 150.776 62.3636 150.921C62.2822 151.024 62.2209 151.123 62.1581 151.225C62.0728 151.364 61.9848 151.507 61.8423 151.67C61.7321 151.797 61.5785 151.922 61.4599 151.981C61.4046 152.009 61.3569 152.022 61.3136 152.034C61.2641 152.048 61.22 152.06 61.1764 152.091C61.145 152.112 61.1187 152.144 61.0863 152.184C61.0346 152.246 60.9673 152.327 60.8414 152.415C60.3687 152.744 59.8297 153.105 59.2944 153.468C58.7057 153.866 58.1233 154.265 57.6817 154.589C57.1745 154.96 56.4229 155.443 55.6818 155.923C55.1494 156.268 54.6297 156.605 54.1895 156.907C53.752 157.207 53.3326 157.538 52.9008 157.876C52.4071 158.263 51.898 158.656 51.4474 158.921C51.3644 158.969 51.2076 159.02 51.0371 159.065C50.9449 159.09 50.8442 159.116 50.7385 159.146C50.6974 159.16 50.6554 159.175 50.6128 159.19C49.9927 159.589 49.313 159.989 48.4297 160.245C48.4006 160.26 48.3705 160.275 48.3403 160.29C48.3399 160.29 48.3394 160.29 48.3389 160.291C47.982 160.459 47.5021 160.648 46.8216 160.643C46.1468 160.646 45.3506 160.361 44.7992 159.929C44.517 159.713 44.3983 159.551 44.2906 159.408C44.1891 159.27 44.1027 159.146 43.954 159.019C43.7838 158.874 43.5713 158.747 43.3452 158.623C43.03 158.449 42.702 158.293 42.4166 158.08C42.397 158.066 42.3757 158.05 42.3533 158.034C42.146 157.883 41.8242 157.677 41.4916 157.459C40.6227 157.148 39.6434 157.023 38.608 157.03C38.2943 157.034 38.0155 157.029 37.7004 157.013C36.4106 156.94 35.0081 156.712 33.7235 155.904C32.4178 155.113 31.5869 153.625 31.329 152.308C31.0508 151.002 31.2015 149.841 31.4001 149.031C31.6108 148.221 31.866 147.772 32.1656 147.743C32.4666 147.708 32.7972 148.181 33.0402 148.989C33.2889 149.791 33.4475 150.834 33.7016 151.724C34.1136 153.209 35.0188 153.868 36.5564 154.1C36.6335 154.108 36.7131 154.115 36.7947 154.121C37.3677 154.162 37.932 154.099 38.5069 153.999C38.5423 153.994 38.5775 153.989 38.6127 153.985C38.7916 153.96 38.968 153.939 39.1422 153.922Z" fill="#FFD52F"/>
<path d="M53.2271 140.693C52.7157 141.162 51.577 141.797 50.9643 142.162C50.953 142.169 50.9419 142.175 50.9305 142.182C50.7837 142.269 50.6485 142.356 50.4918 142.457C50.1208 142.702 49.6069 143.027 48.5548 143.694C48.2724 143.91 47.983 144.136 47.708 144.358C46.8525 145.049 46.043 145.768 45.4362 146.506C45.1398 146.864 44.9097 147.237 44.8283 147.47C44.7858 147.585 44.7829 147.643 44.7769 147.645C44.7732 147.648 44.7479 147.621 44.768 147.664C44.7843 147.701 44.8073 147.753 44.9935 147.821C45.1758 147.886 45.4661 147.926 45.806 147.922C46.4772 147.917 47.2593 147.774 48.0463 147.574C48.0915 147.56 48.1377 147.545 48.1848 147.53C49.0924 147.243 50.2361 146.777 50.9635 146.526C51.8976 146.204 52.5383 145.975 53.0688 145.786C56.0147 144.53 58.911 143.061 61.8025 141.557C62.715 141.082 63.6075 140.614 64.5352 140.139C65.3904 139.706 66.2402 139.274 67.1723 138.894C67.5359 138.73 67.9193 138.565 68.3507 138.457C68.4738 138.422 68.6313 138.377 68.7626 138.335C69.3629 138.145 69.9201 137.934 70.3708 137.781C71.4827 137.405 72.7454 137.007 73.6854 136.683C73.8394 136.63 73.9831 136.579 74.1161 136.532C74.8393 136.221 75.5518 135.894 76.251 135.547C76.3031 135.536 76.3556 135.525 76.409 135.515C77.076 135.374 77.8339 135.022 78.8983 134.374C79.3525 134.09 79.8985 133.731 80.3371 133.307C80.6148 133.029 80.6958 132.956 80.7658 132.921C80.7846 132.913 80.8003 132.906 80.8123 132.903C80.8475 132.885 80.8241 132.937 80.7588 132.929C80.6747 132.921 80.4283 132.834 80.0581 132.633C79.8429 132.518 79.6581 132.44 79.4344 132.368C78.4376 132.054 77.8413 132.164 77.4145 132.234C77.2582 132.261 77.1209 132.287 76.9792 132.302C76.514 132.347 75.8625 132.309 75.3469 132.268C74.9472 132.231 74.1389 132.365 73.544 132.522C73.3151 132.581 73.0085 132.624 72.6397 132.683C72.2624 132.744 71.8223 132.821 71.3603 132.943C70.1927 133.253 69.5785 133.446 69.0843 133.597C68.9432 133.641 68.8121 133.682 68.6814 133.724C68.2687 133.856 67.7548 134.014 67.2358 134.183C66.6154 134.384 65.9883 134.6 65.519 134.783C64.2608 135.134 63.0057 135.512 61.7672 135.924C61.1342 136.134 60.4812 136.244 59.9557 136.214C59.4359 136.181 59.0663 136.018 58.9487 135.733C58.8232 135.453 58.9629 135.068 59.3255 134.674C59.6932 134.277 60.2722 133.9 60.9116 133.636C62.2066 133.1 63.518 132.602 64.8515 132.15C66.47 131.603 68.122 131.122 69.8079 130.756C70.9869 130.5 72.1841 130.29 73.3994 130.149C73.5246 130.135 73.6483 130.122 73.7743 130.109C74.788 129.914 75.8293 129.788 76.5777 129.763C77.1993 129.741 77.6561 129.805 78.0423 129.869C78.3158 129.915 78.5451 129.96 78.793 129.989C78.9256 130.005 79.1054 130.025 79.3207 130.057C79.5076 130.085 79.7195 130.121 79.9476 130.169C80.19 130.221 80.4378 130.283 80.6813 130.359C80.9891 130.459 81.2111 130.536 81.5735 130.726C81.8801 130.898 82.2603 131.119 82.6219 131.625C82.99 132.093 83.1139 132.992 82.9151 133.514C82.487 134.672 81.7783 135.048 81.2071 135.457C80.3586 136 79.5911 136.328 79.2237 136.565C78.5824 136.973 77.8065 137.315 77.1124 137.598C76.4498 137.868 75.87 138.083 75.5639 138.266C75.1973 138.484 74.8564 138.595 74.3436 138.755C73.9903 138.863 73.5557 138.995 72.9689 139.191C72.2979 139.415 71.7981 139.534 71.3823 139.629C70.7834 139.765 70.3542 139.856 69.7006 140.102C69.3852 140.22 69.0439 140.332 68.7175 140.413C68.4741 140.483 68.0999 140.628 67.8223 140.725C67.5762 140.811 67.3101 140.929 67.0158 141.067C66.6406 141.243 66.2267 141.449 65.8575 141.602C65.5381 141.736 65.2658 141.809 65.0201 141.876C64.9432 141.897 64.8688 141.918 64.7969 141.94C64.5444 142.072 64.3214 142.19 64.0754 142.322C64.0404 142.351 64.0038 142.382 63.9653 142.415C63.767 142.582 63.5502 142.774 63.2329 142.982C62.74 143.306 62.2639 143.525 61.7733 143.749C61.3871 143.925 60.9821 144.111 60.5414 144.359C60.2372 144.53 59.9043 144.736 59.5699 144.942C59.0704 145.249 58.584 145.546 58.2172 145.712C58.081 145.774 57.9496 145.8 57.8195 145.826C57.8189 145.826 57.8183 145.826 57.8177 145.826C57.8089 145.828 57.8001 145.83 57.7912 145.832C56.9421 146.306 56.0852 146.777 55.2239 147.236C55.153 147.281 55.0785 147.328 55.0061 147.374C54.6499 147.598 54.3097 147.809 54.0945 147.979C53.8612 148.164 53.2274 148.503 52.5405 148.846C52.0955 149.07 51.619 149.298 51.2378 149.489C51.0092 149.603 50.7723 149.653 50.5318 149.7C50.3135 149.741 50.0636 149.791 49.8256 149.883C49.7051 149.929 49.579 149.988 49.4452 150.05C49.3211 150.106 49.1886 150.165 49.0496 150.218C48.9155 150.268 48.6377 150.331 48.2289 150.41C47.9788 150.457 47.7251 150.499 47.4102 150.547C46.6542 150.718 45.8075 150.865 44.8485 150.77C44.639 150.777 44.4712 150.789 44.2937 150.803C44.1732 150.815 44.0646 150.834 43.95 150.849C43.7915 150.867 43.6357 150.886 43.3978 150.836C43.2138 150.797 43.0094 150.699 42.894 150.6C42.84 150.554 42.805 150.51 42.7741 150.469C42.7388 150.423 42.7076 150.381 42.659 150.342C42.624 150.314 42.5807 150.293 42.5278 150.265C42.4438 150.221 42.3326 150.16 42.2047 150.021C42.1348 149.946 42.0669 149.865 42.0017 149.78C41.625 149.302 41.3336 148.59 41.2984 147.912C41.2443 147.029 41.5094 146.338 41.6866 145.905C41.8997 145.386 42.3127 144.816 42.7378 144.353C43.0427 144.016 43.3416 143.733 43.5959 143.486C43.844 143.246 44.0825 142.982 44.3171 142.734C44.6009 142.435 44.8751 142.163 45.1493 141.983C45.2043 141.947 45.2966 141.931 45.4126 141.911C45.4948 141.897 45.5894 141.881 45.6909 141.856C46.0066 141.601 46.3366 141.348 46.657 141.113C46.6646 141.1 46.6724 141.086 46.6803 141.072C46.6804 141.072 46.6805 141.071 46.6806 141.071C46.8591 140.753 47.1072 140.318 47.7016 140.053C47.8512 139.986 47.9672 139.976 48.0716 139.966C48.1741 139.957 48.2657 139.949 48.3686 139.891C48.4852 139.825 48.5962 139.713 48.72 139.591C48.8935 139.419 49.0904 139.227 49.3415 139.124C49.3587 139.116 49.3772 139.109 49.3964 139.101C49.5784 139.025 49.8501 138.913 50.1459 138.851C50.8774 138.425 51.6162 138.019 52.3614 137.627C53.6053 136.973 54.8585 136.363 56.1334 135.777C56.7456 135.496 57.4026 135.324 57.9264 135.319C58.4624 135.308 58.8227 135.46 58.9529 135.731C59.0837 136.004 58.9776 136.377 58.6517 136.79C58.3369 137.198 57.8249 137.614 57.2596 137.945C56.3271 138.49 55.4045 139.051 54.4932 139.625C54.4472 139.658 54.4008 139.691 54.3544 139.724C54.0122 139.968 53.7169 140.237 53.4276 140.507C53.3609 140.569 53.2942 140.631 53.2271 140.693Z" fill="#FFD52F"/>
<path d="M42.2588 133.371C53.8246 136.648 64.4266 147.427 68.2818 152.407L82.98 144.937C74.4984 132.986 61.6154 128.231 56.2341 127.347L42.2588 133.371Z" fill="#374151"/>
<path d="M66.3284 194.018C62.305 193.124 61.858 189.175 62.1374 187.312L103.701 164.401L145.4 166.078C146.517 169.654 144.934 171.479 144.003 171.945C146.461 175.745 143.537 178.93 141.767 180.048C142.885 185.412 137.949 187.498 135.341 187.871C135.788 192.565 129.567 194.297 126.4 194.577C126.177 195.471 123.539 197.371 121.863 197.93C120.186 198.488 116.696 197.771 116.696 197.771C116.696 197.771 114.598 200.721 112.363 201.562C110.549 202.244 107.401 201.562 107.401 201.562C103.377 205.585 99.0186 203.983 97.3422 202.679C92.6482 207.82 87.7494 204.821 85.8867 202.679C78.734 205.138 75.4556 200.91 74.7105 198.488C69.346 199.829 66.8873 196.067 66.3284 194.018Z" fill="white"/>
<path d="M147.289 168.872C149.971 167.307 150.455 161.328 150.362 158.534L102.864 155.181L57.3211 175.577C57.1348 178.278 57.0975 184.518 58.4387 187.871C60.1151 192.062 73.247 203.797 93.9229 185.077C114.599 166.357 127.131 169.191 130.245 169.43C133.878 169.71 143.936 170.827 147.289 168.872Z" fill="#D93A20"/>
<path d="M61.7911 164.681C72.4084 149.872 91.4079 143.446 92.5255 142.608C127.451 129.196 142.818 148.755 145.053 150.431C147.288 152.107 155.112 159.931 147.009 161.048C138.906 162.166 139.745 156.299 118.789 161.048C97.8341 165.798 99.2312 173.901 79.6729 185.636C60.1147 197.371 51.1738 179.489 61.7911 164.681Z" fill="#F2472A"/>
<path d="M58.0361 182.352C67.2055 177.442 79.0259 178.082 84.4229 179.209C73.7792 179.537 65.1851 182.884 59.958 185.823C59.1307 184.824 58.4863 183.653 58.0361 182.352ZM60.1172 167.325C78.0122 159.761 94.019 163.76 100.069 166.916C80.1494 163.697 64.6222 169.596 57.6445 173.93C58.0771 171.773 58.8919 169.537 60.1172 167.325ZM80.3682 148.611C97.9255 147.481 111.443 154.182 116.554 158.254C95.5102 151.24 78.0714 153.646 69.1123 156.641C72.8216 153.344 76.7802 150.69 80.3682 148.611ZM110.553 138.167C122.366 141.088 131.918 148.867 135.833 153.225C122.255 144.47 105.391 142.037 94.6035 141.84C100.486 139.754 105.791 138.617 110.553 138.167Z" fill="#FF7F6B"/>
<path d="M314.688 69.7752C364.994 83.2549 394.848 134.964 381.368 185.269L354.307 286.261C353.967 287.533 352.66 288.287 351.389 287.946L173.818 240.366C172.547 240.026 171.793 238.719 172.133 237.448L199.194 136.456C212.673 86.1499 264.382 56.2958 314.688 69.7752Z" fill="#53B7FF" stroke="white" stroke-width="6" stroke-linejoin="round"/>
<path d="M340.593 199.715C336.369 215.482 318.325 249.703 270.05 236.768C225.406 224.806 222.858 186.676 227.485 169.407C231.777 153.39 259.578 150.915 290.812 159.284C322.046 167.653 345.019 183.197 340.593 199.715Z" fill="#1F2933"/>
<path d="M293.236 149.835C310.456 154.449 324.636 161.399 333.613 169.39C342.517 177.316 345.415 185.282 343.346 193.003C341.435 200.137 335.014 205.65 323.151 208.21C311.319 210.763 295.498 209.923 278.366 205.332C261.057 200.694 246.82 193.979 237.834 186.123C229.02 178.416 226.029 170.473 228.256 162.164C230.22 154.835 236.665 149.342 248.464 146.832C260.276 144.319 276.075 145.236 293.236 149.835Z" stroke="#4B5563" stroke-width="15"/>
<path d="M299.175 128.076C323.7 134.647 342 147.354 341.376 161.971L343.277 174.175C344.794 178.537 345.038 183.131 343.767 187.875C338.555 207.325 310.046 212.261 278.757 203.877C247.467 195.493 224.748 178.816 230.456 157.514C231.692 152.903 234.187 149.116 237.685 146.126L245.802 136.151C252.663 123.741 274.83 121.553 299.175 128.076Z" fill="#1F2933"/>
<path d="M297.31 134.632C311.153 138.342 322.5 143.734 329.661 149.734C336.855 155.761 338.554 161.124 337.336 165.669C336.239 169.762 332.163 173.614 322.738 175.35C313.487 177.055 300.917 176.22 287.154 172.533C273.228 168.801 261.84 163.583 254.676 157.683C247.583 151.842 245.788 146.497 247.128 141.497C248.265 137.254 252.367 133.421 261.732 131.722C270.966 130.048 283.52 130.938 297.31 134.632Z" stroke="#4B5563" stroke-width="15"/>
<path d="M337.343 164.217C334.008 176.665 312.007 178.816 287.349 172.209C262.691 165.602 244.396 153.924 248.049 140.291C251.437 127.646 273.385 125.692 298.043 132.299C322.701 138.906 340.837 151.177 337.343 164.217Z" fill="#1F2933"/>
<path d="M296.596 137.7C319.451 143.824 336.702 154.814 336.32 166.773C330.785 176.93 310.211 178.335 287.349 172.209C264.445 166.072 247.031 155.56 247.596 143.17C253.111 132.815 273.682 131.56 296.596 137.7Z" fill="#FF5A3C"/>
<ellipse cx="292.851" cy="155.004" rx="35.5467" ry="9.36523" transform="rotate(15 292.851 155.004)" fill="#F2472A"/>
<path d="M305.324 156.324L293.036 146.433C292.727 146.184 292.594 145.777 292.697 145.395L293.162 143.659C293.248 143.336 293.491 143.078 293.807 142.971L304.453 139.37C304.684 139.291 304.936 139.3 305.161 139.395L317.21 144.464C317.629 144.64 317.876 145.076 317.813 145.525L317.168 150.108C317.124 150.421 316.934 150.695 316.657 150.846L306.43 156.423C306.075 156.616 305.639 156.577 305.324 156.324Z" fill="#FFD1C9"/>
<path d="M312.501 166.166L307.21 154.982C307.109 154.768 307.087 154.525 307.148 154.296L308.071 150.853C308.25 150.186 309.035 149.897 309.604 150.289L316.84 155.275L329.905 163.182C330.361 163.458 330.521 164.042 330.268 164.511L329.408 166.111C329.235 166.433 328.899 166.634 328.534 166.637L313.412 166.738C313.023 166.741 312.668 166.517 312.501 166.166Z" fill="#FFD1C9"/>
<path d="M325.409 151.079L330.724 162.68C331.032 163.353 330.528 164.117 329.787 164.096L315.205 163.701C314.814 163.69 314.466 163.453 314.312 163.094L309.072 150.822C308.778 150.133 309.318 149.377 310.065 149.432L324.573 150.498C324.936 150.525 325.257 150.748 325.409 151.079Z" fill="#FFEDEA"/>
<path d="M306.011 136.857L317.026 143.772C317.647 144.161 317.651 145.065 317.033 145.461L306.735 152.053C306.392 152.272 305.951 152.262 305.619 152.028L294.562 144.226C293.958 143.801 294.009 142.89 294.655 142.534L304.997 136.829C305.315 136.653 305.704 136.664 306.011 136.857Z" fill="#FFEDEA"/>
<path d="M261.497 137.191L275.171 133.039C276.283 132.22 278.589 132.782 279.652 133.402C280.714 134.021 280.463 134.122 282.881 134.267C285.298 134.413 287.468 135.273 288.193 136.528C288.917 137.783 289.581 138.016 290.987 138.393C292.112 138.695 292.234 139.918 292.155 140.493C294.329 141.894 297.961 145.409 295.098 148.26C292.235 151.11 279.72 156.551 273.82 158.916C268.583 154.293 258.046 144.406 257.796 141.838C257.546 139.27 260.159 137.67 261.497 137.191Z" fill="#FF7F6B"/>
<path d="M261.094 139.37C259.356 139.194 256.112 141.079 254.448 142.215C254.256 142.346 254.107 142.544 254.104 142.777C254.1 143.047 254.167 143.288 254.232 143.444C254.265 143.523 254.317 143.589 254.377 143.65C260.878 150.205 273.85 162.303 274.442 158.947C275.185 154.732 271.666 146.451 270.791 146.216C269.916 145.982 268.112 141.802 267.529 141.094C266.946 140.386 263.404 139.602 261.094 139.37Z" fill="#F2472A"/>
<path d="M255.683 144.841C257.484 143.265 262.411 141.202 266.268 145.786C270.125 150.369 271.245 156.068 271.502 158.315" stroke="#FF5A3C" stroke-width="2" stroke-linecap="round"/>
<path d="M258.045 147.556C260.011 146.073 264.451 145.456 266.491 154.854" stroke="#FF5A3C" stroke-width="2" stroke-linecap="round"/>
<path opacity="0.6" d="M269.141 142.061C269.342 142.532 279.857 138.155 285.09 135.908C286.581 135.27 282.378 134.771 278.397 136.423C274.417 138.075 268.889 141.472 269.141 142.061Z" fill="#FFAB9E"/>
<path d="M273.787 148.325C274.612 148.546 285.559 144.005 290.929 141.707C292.595 140.206 288.878 139.736 288.177 140.391C287.475 141.045 274.511 145.624 273.515 146.199C272.519 146.774 272.756 148.048 273.787 148.325Z" fill="#FF654E"/>
<path opacity="0.6" d="M289.043 143.112C288.012 142.955 286.622 143.158 286.056 143.279C284.831 143.497 282.758 143.662 284.27 142.577C286.16 141.222 288.5 141.663 289.802 142.086C291.103 142.509 290.331 143.308 289.043 143.112Z" fill="#FFAB9E"/>
<path opacity="0.6" d="M278.092 143.678C279.156 143.486 283.073 144.754 284.918 145.023C286.764 145.292 291.011 143.825 291.034 144.576C291.056 145.327 287.208 146.902 284.527 146.482C281.847 146.062 276.761 143.917 278.092 143.678Z" fill="#FFAB9E"/>
<path d="M316.437 163.406C316.698 162.43 316.67 159.65 316.841 159.014L307.622 158.135L285.353 161.349C285.23 162.089 284.994 163.807 285.029 164.762C285.073 165.956 285.462 166.878 286.344 167.66C287.225 168.441 290.652 169.223 295.898 171.356C301.145 173.489 302.13 172.526 304.349 172.894C306.569 173.261 314.318 166.565 314.64 166.379C314.963 166.192 316.175 164.381 316.437 163.406Z" fill="#D93A20"/>
<path d="M299.708 150.276C300.646 149.32 300.58 148.083 300.429 147.583C301.43 143.849 313.54 153.982 315.937 156.789C318.334 159.596 316.28 160.161 313.869 162.795C311.457 165.429 302.169 171.206 299.716 170.811C297.263 170.416 286.691 163.844 285.518 162.349C284.344 160.854 287.493 159.139 289.715 157.701C291.937 156.263 294.978 156.422 297.312 153.832C299.645 151.243 298.535 151.471 299.708 150.276Z" fill="#FFAB9E"/>
<path d="M295.078 155.527C298.77 157.299 304.431 161.329 306.951 167.851C306.093 168.36 305.233 168.838 304.412 169.256C304.099 166.919 302.912 163.447 299.823 162.575C296.463 161.625 293.035 158.619 291.56 156.837C292.693 156.433 293.91 156.124 295.078 155.527ZM300.171 149.649C305.4 151.48 313.401 155.48 315.6 161.088C315.094 161.568 314.494 162.112 313.869 162.795C313.554 163.139 313.122 163.534 312.604 163.964C310.458 161.26 305.783 156.862 298.08 152.927C299.386 151.277 298.693 151.31 299.708 150.276C299.904 150.077 300.054 149.864 300.171 149.649Z" fill="#FFD1C9"/>
<path d="M305.764 172.592C305.188 172.833 304.7 172.952 304.349 172.894C304.087 172.85 303.842 172.826 303.606 172.812C303.935 171.375 304.364 169.519 304.421 169.307L307.018 167.909L305.764 172.592ZM314.085 166.818C313.516 167.28 312.566 168.051 311.468 168.894L312.645 163.891L315.601 161.157L314.085 166.818Z" fill="#FF7F6B"/>
<path d="M278.852 152.513C279.549 151.594 281.929 151.68 284.396 152.758C286.862 153.836 288.541 155.524 288.34 156.659L288.366 156.671L289.223 154.71L289.212 154.705C289.518 153.57 287.817 151.823 285.287 150.718C282.758 149.612 280.321 149.551 279.696 150.546L279.684 150.541L278.827 152.502L278.852 152.513Z" fill="#16B77B"/>
<path d="M285.134 151.07C286.404 151.625 287.436 152.34 288.081 153.026C288.404 153.37 288.613 153.688 288.717 153.958C288.82 154.225 288.809 154.409 288.754 154.536C288.698 154.662 288.571 154.796 288.305 154.902C288.036 155.009 287.66 155.073 287.189 155.069C286.246 155.062 285.021 154.789 283.751 154.234C282.481 153.679 281.448 152.965 280.803 152.278C280.48 151.935 280.271 151.616 280.167 151.346C280.064 151.079 280.076 150.894 280.131 150.768C280.186 150.641 280.314 150.508 280.58 150.402C280.848 150.295 281.224 150.232 281.696 150.235C282.638 150.243 283.863 150.515 285.134 151.07Z" stroke="#7EECC4"/>
<path d="M279.606 150.791C279.405 151.926 281.084 153.614 283.551 154.692C286.017 155.77 288.397 155.856 289.094 154.937L289.12 154.948L288.263 156.909L288.251 156.904C287.625 157.899 285.189 157.838 282.659 156.732C280.129 155.626 278.428 153.879 278.734 152.745L278.724 152.74L278.776 152.622C278.778 152.617 278.779 152.612 278.781 152.607C278.783 152.602 278.786 152.598 278.789 152.593L279.581 150.78L279.606 150.791Z" fill="#25DC96"/>
<path d="M290.637 154.636C290.892 153.559 292.89 152.741 295.304 152.77C297.719 152.8 299.695 153.666 299.924 154.749L299.949 154.75L299.974 152.687L299.963 152.687C299.82 151.565 297.805 150.655 295.329 150.625C292.853 150.595 290.818 151.456 290.647 152.574L290.636 152.574L290.611 154.636L290.637 154.636Z" fill="#16B77B"/>
<path d="M295.325 151.013C296.559 151.028 297.649 151.272 298.41 151.634C299.214 152.015 299.477 152.43 299.473 152.709C299.47 152.988 299.198 153.397 298.384 153.759C297.614 154.102 296.518 154.319 295.285 154.304C294.051 154.289 292.961 154.045 292.199 153.684C291.395 153.303 291.133 152.886 291.136 152.608C291.139 152.329 291.412 151.92 292.225 151.558C292.995 151.216 294.091 150.998 295.325 151.013Z" stroke="#7EECC4"/>
<path d="M290.659 152.825C290.889 153.908 292.865 154.775 295.28 154.804C297.694 154.833 299.691 154.015 299.947 152.938L299.972 152.938L299.947 155.001L299.935 155C299.765 156.118 297.729 156.98 295.253 156.95C292.777 156.919 290.763 156.009 290.619 154.887L290.61 154.887L290.611 154.765C290.611 154.759 290.61 154.753 290.61 154.747C290.61 154.741 290.611 154.735 290.612 154.729L290.635 152.825L290.659 152.825Z" fill="#25DC96"/>
<g opacity="0.4">
<path d="M301.172 107.23C301.474 102.044 306.684 98.4981 309.252 97.3731C308.203 99.239 306.267 103.973 306.91 107.981C307.554 111.989 309.865 111.899 309.683 116.596C309.501 121.293 303.712 126.684 301.38 126.751C301.946 126.33 303.3 124.446 304.189 120.276C305.299 115.063 300.795 113.713 301.172 107.23Z" fill="white"/>
<path d="M313.964 114.945C314.161 111.547 317.575 109.223 319.258 108.486C318.571 109.709 317.302 112.81 317.724 115.437C318.145 118.063 319.66 118.004 319.54 121.081C319.421 124.159 315.628 127.692 314.1 127.736C314.471 127.46 315.358 126.225 315.94 123.493C316.668 120.077 313.716 119.193 313.964 114.945Z" fill="white"/>
<path d="M288.763 114.848C289.08 110.267 293.499 107.073 295.669 106.048C294.766 107.708 293.081 111.91 293.572 115.439C294.063 118.969 296.005 118.86 295.793 123.008C295.582 127.155 290.655 131.985 288.696 132.073C289.176 131.695 290.337 130.015 291.134 126.324C292.131 121.71 288.366 120.574 288.763 114.848Z" fill="white"/>
</g>
<circle cx="252" cy="72" r="22.4" transform="rotate(-21.9302 252 72)" fill="#FFAB9E" stroke="white" stroke-width="3.2"/>
<path d="M249.925 64.5299C251.409 61.0438 255.436 59.4222 258.921 60.908C262.406 62.3939 264.029 66.4245 262.546 69.9106C261.062 73.3967 256.695 83.6616 256.695 83.6616C256.695 83.6616 246.433 79.2866 242.948 77.8007C239.463 76.3149 237.84 72.2843 239.324 68.7982C240.807 65.3121 244.835 63.6905 248.32 65.1764L249.446 65.6565L249.925 64.5299Z" fill="#F2472A"/>
<circle cx="130" cy="230" r="22.4" transform="rotate(30.4541 130 230)" fill="#FFAB9E" stroke="white" stroke-width="3.2"/>
<path d="M134.651 223.797C138.318 222.844 142.061 225.045 143.011 228.712C143.961 232.38 141.759 236.125 138.092 237.078C134.425 238.031 123.629 240.837 123.629 240.837C123.629 240.837 120.831 230.038 119.881 226.371C118.931 222.703 121.133 218.958 124.799 218.005C128.466 217.052 132.209 219.252 133.159 222.92L133.466 224.105L134.651 223.797Z" fill="#F2472A"/>
<circle cx="288" cy="56" r="22.4" transform="rotate(14.4543 288 56)" fill="#FFAB9E" stroke="white" stroke-width="3.2"/>
<path d="M290.761 48.7556C294.023 46.8289 298.227 47.9126 300.152 51.1761C302.076 54.4396 300.991 58.6471 297.729 60.5737C294.467 62.5004 284.862 68.1734 284.862 68.1734C284.862 68.1734 279.196 58.564 277.272 55.3005C275.348 52.037 276.432 47.8296 279.694 45.9029C282.956 43.9763 287.16 45.06 289.085 48.3235L289.707 49.3782L290.761 48.7556Z" fill="#F2472A"/>
<mask id="path-52-inside-1_219_4159" fill="white">
<path d="M210.271 0.0332031C222.935 0.693737 233 11.1714 233 24C233 37.2548 222.255 48 209 48C196.171 48 185.694 37.9347 185.033 25.2705L210.271 0.0332031Z"/>
</mask>
<path d="M210.271 0.0332031C222.935 0.693737 233 11.1714 233 24C233 37.2548 222.255 48 209 48C196.171 48 185.694 37.9347 185.033 25.2705L210.271 0.0332031Z" fill="#FFAB9E"/>
<path d="M210.271 0.0332031L210.437 -3.16245L209.015 -3.23664L208.008 -2.22954L210.271 0.0332031ZM185.033 25.2705L182.77 23.0078L181.763 24.0149L181.838 25.4372L185.033 25.2705ZM210.271 0.0332031L210.104 3.22886C221.077 3.80118 229.8 12.8829 229.8 24H233H236.2C236.2 9.45985 224.793 -2.41371 210.437 -3.16245L210.271 0.0332031ZM233 24H229.8C229.8 35.4875 220.488 44.8 209 44.8V48V51.2C224.022 51.2 236.2 39.0221 236.2 24H233ZM209 48V44.8C197.883 44.8 188.801 36.0768 188.229 25.1038L185.033 25.2705L181.838 25.4372C182.586 39.7926 194.46 51.2 209 51.2V48ZM185.033 25.2705L187.296 27.5332L212.533 2.29594L210.271 0.0332031L208.008 -2.22954L182.77 23.0078L185.033 25.2705Z" fill="white" mask="url(#path-52-inside-1_219_4159)"/>
<path d="M209.866 16.2957C212.544 13.6158 216.885 13.6158 219.563 16.2957C222.241 18.9755 222.241 23.3206 219.563 26.0005C216.885 28.6803 209 36.5713 209 36.5713C209 36.5713 201.115 28.6803 198.437 26.0005C195.759 23.3206 195.759 18.9756 198.437 16.2957C201.115 13.6158 205.457 13.6158 208.135 16.2957L209 17.1617L209.866 16.2957Z" fill="#F2472A"/>
<path d="M209.927 2.68945C211.021 6.42374 211.034 13.0909 204.55 19.5752C198.052 26.0734 191.506 25.9137 187.887 24.7295L209.927 2.68945Z" fill="#D93A20" stroke="white" stroke-width="3" stroke-linejoin="round"/>
</svg>
