<svg width="280" height="300" viewBox="0 0 280 300" fill="none" xmlns="http://www.w3.org/2000/svg">
<g clip-path="url(#clip0_677_6621)">
<rect width="280" height="300" fill="none"/>
<path d="M129.171 118.596L55.8388 81.5003C51.7442 79.4291 51.667 73.6092 55.7053 71.4301L75.239 60.889C76.7907 60.0517 78.6433 59.9822 80.2533 60.7009L140.826 87.7397C143.487 88.9274 144.818 91.9354 143.907 94.7033L137.133 115.301C136.046 118.604 132.274 120.165 129.171 118.596Z" fill="#FF7F6B"/>
<path d="M55.5469 201.136C55.5469 199.881 56.5644 198.864 57.8196 198.864H222.592C223.848 198.864 224.865 199.881 224.865 201.136V301.136H55.5469V201.136Z" fill="url(#paint0_linear_677_6621)"/>
<path d="M55.5469 198.864H224.865L200.764 171.619C199.47 170.156 197.61 169.318 195.657 169.318H84.7549C82.8016 169.318 80.9422 170.156 79.6481 171.619L55.5469 198.864Z" fill="#D6ECFF"/>
<path d="M119.051 181.818H160.224L162.365 186.364H116.91L119.051 181.818Z" fill="#1678CC"/>
<path d="M119.129 186.364H115.773L119.05 181.818H119.129V186.364ZM163.501 186.364H160.092V181.818H160.224L163.501 186.364Z" fill="#3CA9FF"/>
<rect x="93.1816" y="153.046" width="109.613" height="61.1793" rx="5.68182" transform="rotate(-45 93.1816 153.046)" fill="#FF5A3C"/>
<path d="M139.214 146.497H157.24V114.953" stroke="#FFAB9E" stroke-width="6.81818" stroke-linecap="round" stroke-linejoin="round"/>
<rect x="88.6367" y="186.364" width="103.409" height="10.2273" fill="#D6ECFF"/>
<path d="M131.372 52.896L127.651 36.9959C127.088 34.5886 128.145 32.0933 130.267 30.8245L175.974 3.49483C179.017 1.67527 182.965 3.05656 184.21 6.37636L191.892 26.8614C192.939 29.6538 191.649 32.7806 188.937 34.0223L139.27 56.7671C136.006 58.262 132.19 56.392 131.372 52.896Z" fill="#FFD1C9"/>
</g>
<defs>
<linearGradient id="paint0_linear_677_6621" x1="140.206" y1="198.864" x2="140.206" y2="301.136" gradientUnits="userSpaceOnUse">
<stop stop-color="#7FC3FF"/>
<stop offset="1" stop-color="#D6ECFF"/>
</linearGradient>
<clipPath id="clip0_677_6621">
<rect width="280" height="300" fill="white"/>
</clipPath>
</defs>
</svg>
