<svg width="96" height="96" viewBox="0 0 96 96" fill="none" xmlns="http://www.w3.org/2000/svg">
<path d="M47.9172 59.4328C47.7675 55.8781 49.3203 52.6352 51.7872 50.3351L53.9154 48.4547L85.3777 19.7571C87.1013 18.1488 87.0065 15.2924 85.1724 13.4295L82.7118 10.9689C80.8489 9.1325 77.9926 9.04002 76.3842 10.7637L47.6867 42.226L45.8063 44.3542C43.5062 46.8211 40.2632 48.3738 36.7085 48.2241C30.7204 47.9714 25.1499 48.2616 16.8688 55.16C8.5878 62.0584 1.12222 72.9505 7.53495 79.2748C13.8568 85.6851 32.1011 88.0031 40.9838 79.275C46.6156 73.7388 48.1701 65.4233 47.9197 59.4353L47.9172 59.4328Z" fill="#7FC3FF"/>
<path d="M47.9328 56.543C41.5308 70.9475 24.3571 82.2077 9.15234 80.6072C15.0114 84.6197 26.3261 87.7527 37.5296 82.151C50.6122 75.6097 50.0668 62.6782 47.9328 56.543Z" fill="#53B7FF"/>
</svg>
