<svg xmlns="http://www.w3.org/2000/svg" width="51" height="58" viewBox="0 0 51 58" fill="none">
  <path d="M2.66338 11.9359L22.9034 1.2371C24.3674 0.46325 26.1195 0.464405 27.5825 1.24019L47.7496 11.9345C49.3847 12.8016 50.4071 14.501 50.4071 16.3518V39.8598C50.4071 41.6578 49.4418 43.3173 47.8789 44.2061L27.7116 55.6751C26.1811 56.5454 24.3057 56.5467 22.7741 55.6784L2.53424 44.2049C0.967969 43.317 0 41.6556 0 39.8552V16.3563C0 14.5031 1.025 12.8019 2.66338 11.9359Z" fill="#E5E7EB"/>
  <path d="M50.3147 15.4082C50.3738 15.7159 50.4075 16.0312 50.4075 16.3516V39.8594C50.4075 41.6572 49.4419 43.3172 47.8792 44.2061L27.7112 55.6748C26.9341 56.1167 26.0682 56.3334 25.2034 56.3271V28.1396L50.3147 15.4082Z" fill="#9CA3AF"/>
  <path d="M0.0927734 15.4062C0.0336285 15.714 1.71661e-05 16.0293 0 16.3496V39.8574C0 41.6553 0.965557 43.3152 2.52832 44.2041L22.6963 55.6729C23.4734 56.1148 24.3393 56.3315 25.2041 56.3252V28.1377L0.0927734 15.4062Z" fill="#D1D5DB"/>
  <path opacity="0.9" d="M3.60571 11.4365C3.28674 12.1621 3.06665 12.8893 3.06665 13.5244C3.06682 15.8934 15.0615 24.6602 25.1663 24.7275C35.271 24.7946 48.569 14.4031 48.2434 13.1289C48.1472 12.7523 47.9953 12.3558 47.8333 11.9824C49.4188 12.8626 50.4074 14.533 50.4075 16.3516V17.0713C50.2635 16.9729 50.1125 16.8992 49.9524 16.8691C48.9206 16.6757 28.3238 25.8218 26.8684 28.1787C25.4237 30.519 25.1697 33.3734 25.1663 33.4131C25.1608 33.3806 24.7034 30.6775 22.6643 28.1787C20.6127 25.6648 2.53842 16.8113 0.894775 17.4082C0.550472 17.5332 0.254114 17.6742 0.000244141 17.8184V16.3564C0.000244141 14.5033 1.02495 12.8016 2.66333 11.9355L3.60571 11.4365Z" fill="#F3F4F6"/>
  <ellipse cx="25.2041" cy="12.6016" rx="3.51797" ry="2.04688" fill="#FF5A3C"/>
  <ellipse cx="12.5884" cy="35.4373" rx="3.51797" ry="2.04688" transform="rotate(60 12.5884 35.4373)" fill="#4B5563"/>
  <ellipse cx="3.51797" cy="2.04688" rx="3.51797" ry="2.04688" transform="matrix(-0.5 0.866025 0.866025 0.5 38.386 31.7969)" fill="#374151"/>
  <ellipse cx="3.51797" cy="2.04688" rx="3.51797" ry="2.04688" transform="matrix(-0.5 0.866025 0.866025 0.5 45.1586 20.9258)" fill="#374151"/>
  <ellipse cx="3.51797" cy="2.04688" rx="3.51797" ry="2.04688" transform="matrix(-0.5 0.866025 0.866025 0.5 32.0231 42.625)" fill="#374151"/>
</svg>