<svg xmlns="http://www.w3.org/2000/svg" width="65" height="61" viewBox="0 0 65 61" fill="none">
  <path d="M64.0227 18.618C63.8271 22.3587 61.8875 25.8232 58.7144 28.7484C52.9893 34.0264 43.2 37.5176 32.0369 37.5176C20.8737 37.5176 11.0845 34.0264 5.35933 28.7484C2.18839 25.8232 0.2467 22.3587 0.0510416 18.618C0.0191408 18.5311 0 18.4777 0 18.4777V27.1176C0 45.7342 14.3426 60.8284 32.0369 60.8284C49.7312 60.8284 64.0738 45.7364 64.0738 27.1176V18.4777C64.0738 18.4777 64.0546 18.5334 64.0227 18.618Z" fill="#ADD9FF"/>
  <path d="M32.0371 1.5C40.6632 1.50004 48.3997 3.56327 53.9287 6.82129C59.4919 10.0995 62.574 14.4123 62.5742 18.8779C62.5742 23.3436 59.492 27.6563 53.9287 30.9346C48.3996 34.1927 40.6633 36.2568 32.0371 36.2568C23.4108 36.2568 15.6736 34.1927 10.1445 30.9346C4.58149 27.6563 1.5 23.3435 1.5 18.8779C1.50019 14.4124 4.58144 10.0995 10.1445 6.82129C15.6736 3.56315 23.4108 1.5 32.0371 1.5Z" fill="#7FC3FF" stroke="#7FC3FF" stroke-width="3" stroke-linecap="round"/>
  <ellipse cx="32.0369" cy="23.6618" rx="27.0655" ry="14.095" fill="#D3E6CD"/>
  <g opacity="0.9">
    <path d="M13.0925 25.1705C9.7169 24.9839 3.87931 23.5327 7.53377 19.2215C11.1882 14.9103 21.1646 15.8648 25.696 16.881" stroke="#F9FAFB" stroke-width="1.6" stroke-linecap="round"/>
    <path d="M13.7531 22.0488C19.2201 16.6335 32.9059 7.34942 43.9133 13.5352C54.9207 19.721 39.7672 23.5719 30.8145 24.7242" stroke="#F9FAFB" stroke-width="1.6" stroke-linecap="round"/>
    <path d="M11.7716 21.2271C10.469 17.6706 11.9477 11.2865 28.2826 14.2016C44.6176 17.1166 29.1449 21.44 19.3667 23.2373" stroke="#F9FAFB" stroke-width="1.6" stroke-linecap="round"/>
    <path d="M47.6557 24.5743C51.8935 22.3927 58.2888 17.3158 49.9672 14.4613C39.5653 10.8931 30.0989 15.3916 30.3191 19.3695C30.5392 23.3475 36.9235 29.6683 42.5923 27.6236C48.2611 25.5788 52.0586 23.9058 47.6557 20.3368C43.2527 16.7678 31.4748 14.2769 28.1176 17.846C24.7603 21.415 20.6876 21.5637 21.7883 25.0955C22.8891 28.6273 28.8331 33.8322 38.6847 32.0476C48.5363 30.2631 60.4243 24.7981 51.5083 20.3368" stroke="#F9FAFB" stroke-width="1.6" stroke-linecap="round"/>
    <path d="M36.8684 19.3713C38.3544 17.3765 39.3451 13.3345 31.4198 13.1253C21.5131 12.8638 12.7622 18.5519 12.7072 21.8235C12.6522 25.0951 8.35928 32.5691 22.0635 31.7512C33.0268 31.0969 42.1153 24.985 45.2891 22.0108" stroke="#F9FAFB" stroke-width="1.6" stroke-linecap="round"/>
    <path d="M19.2017 24.8713C20.0089 28.5514 24.21 35.0197 34.557 31.4513C44.9039 27.8829 45.7661 25.0328 44.9039 24.0538" stroke="#F9FAFB" stroke-width="1.6" stroke-linecap="round"/>
  </g>
  <path d="M33.7977 23.6942L47.3373 11.132C49.2865 12.5636 52.4724 20.1284 46.2949 24.6741C41.1711 28.4445 35.9402 25.9771 33.7977 23.6942Z" fill="#16B77B"/>
  <path d="M34.6704 22.8366L46.1727 12.2076C47.9086 13.4429 50.9598 18.6474 45.6955 23.2098C41.4731 26.8692 36.5783 24.8063 34.6704 22.8366Z" fill="#7EECC4"/>
  <path d="M46.173 12.2076C47.9089 13.4433 50.9592 18.6475 45.6954 23.2096C41.4731 26.869 36.5779 24.8063 34.67 22.8365L35.4904 22.0778C35.5027 22.1074 35.5184 22.1365 35.5411 22.1627C35.7852 22.4437 36.2949 22.912 37.2325 23.3278C38.1922 23.7532 38.8015 23.7737 39.1056 23.7379C39.252 23.7206 39.3448 23.5939 39.3556 23.4469L39.6837 18.9459C39.7001 18.7162 39.5323 18.5489 39.339 18.5211L41.881 16.1725C41.8342 16.4172 42.0315 16.674 42.3156 16.6451L46.8995 16.1774C47.0843 16.1585 47.2279 16.0138 47.212 15.8287C47.1802 15.4578 47.0434 14.7793 46.5304 13.8912C46.1932 13.3076 45.8739 12.9446 45.6183 12.7194L46.173 12.2076ZM41.0753 18.5621C40.8208 18.3085 40.3864 18.4929 40.3927 18.8522L40.4952 24.2379C40.4988 24.4235 40.631 24.5784 40.8165 24.5807C41.2269 24.5854 42.0221 24.5071 43.1075 23.9948C44.2156 23.4717 44.6786 22.949 44.8615 22.6676C44.9417 22.5439 44.9062 22.39 44.8019 22.2858L41.0753 18.5621ZM41.7677 17.1979C41.4082 17.2086 41.2449 17.6521 41.5109 17.8942L45.4972 21.5162C45.6346 21.641 45.8379 21.6515 45.9669 21.5182C46.252 21.2231 46.7409 20.5904 47.1134 19.4489C47.4934 18.284 47.4308 17.5884 47.3517 17.2623C47.3167 17.1192 47.1807 17.0393 47.0333 17.0436L41.7677 17.1979Z" fill="#DDF9EF"/>
  <path d="M17.4656 18.0019C21.1951 14.8727 25.4109 14.9695 27.0526 15.4091C27.647 15.5266 29.2431 15.8923 30.0405 17.346C30.1958 17.6291 30.0405 18.2135 30.0405 18.6714C30.0405 21.0968 27.0526 22.1032 23.7065 24.2838C20.3605 26.4643 18.9694 26.8403 16.7137 26.9155C14.4579 26.9907 12.7285 25.7876 12.3526 23.5694C12.2415 22.9139 12.1287 21.5182 12.2956 21.1611C12.6936 20.3099 14.1814 20.7576 17.4656 18.0019Z" fill="#FF654E"/>
  <path d="M17.4656 16.6466C21.1951 13.5173 25.4109 13.6142 27.0526 14.0538C27.7628 14.1941 29.158 14.6573 29.9475 16.9507C30.737 19.244 27.0526 20.7478 23.7066 22.9284C20.3605 25.109 18.9695 25.4849 16.7137 25.5601C14.458 25.6353 12.7286 24.4322 12.3526 22.2141C11.9766 19.9959 12.8037 20.5582 17.4656 16.6466Z" fill="#FF7F6B"/>
  <path d="M17.9098 16.7194C21.7873 13.9975 25.05 13.966 26.5328 14.3629L26.566 14.3707C27.2371 14.5034 28.855 14.8678 29.5524 16.8932C29.6957 17.3095 29.6421 17.6991 29.4069 18.1139C29.1603 18.5484 28.7193 18.9996 28.108 19.4801C26.8684 20.4546 25.1576 21.3876 23.4332 22.5114C21.7714 23.5944 20.6256 24.2087 19.6324 24.5651C18.6508 24.9172 17.7953 25.0255 16.6969 25.0621C15.6611 25.0967 14.7821 24.8371 14.1276 24.3483C13.4776 23.8628 13.0137 23.1256 12.8453 22.1324C12.7646 21.6559 12.8057 21.2709 12.9459 20.9186C13.0894 20.5584 13.3505 20.1975 13.7653 19.7936C14.6153 18.9659 15.9724 18.0794 17.9098 16.7194Z" stroke="#FFAB9E"/>
  <path d="M20.0593 17.5883C19.8157 17.2999 19.8471 16.1593 19.8932 15.6251L17.3739 17.0352C18.0476 16.8876 19.3893 16.8581 19.3672 17.9211C19.3395 19.25 19.561 19.4992 20.0593 19.6653C20.5576 19.8314 21.8311 20.0252 23.0769 20.7727C24.0736 21.3707 23.6952 22.0369 23.3815 22.2953L26.4822 20.4958C26.5375 20.3482 26.2385 19.9753 24.5996 19.6653C22.5509 19.2777 21.0006 18.9178 20.53 18.8071C20.0593 18.6963 20.3638 17.9488 20.0593 17.5883Z" fill="#FFAB9E"/>
  <path d="M23.3594 22.676C27.0889 19.5467 31.3047 19.6436 32.9463 20.0832C33.5408 20.2007 35.1369 20.5664 35.9343 22.0201C36.0896 22.3032 35.9343 22.8876 35.9343 23.3454C35.9343 25.7709 32.9463 26.7773 29.6003 28.9578C26.2543 31.1384 24.8632 31.5143 22.6075 31.5895C20.3517 31.6647 18.6223 30.4617 18.2464 28.2435C18.1353 27.588 18.0225 26.1923 18.1894 25.8352C18.5874 24.9839 20.0752 25.4316 23.3594 22.676Z" fill="#FF654E"/>
  <path d="M23.3593 21.3205C27.0888 18.1913 31.3046 18.2881 32.9463 18.7277C33.6564 18.8681 35.0516 19.3313 35.8412 21.6246C36.6307 23.918 32.9463 25.4218 29.6002 27.6024C26.2542 29.7829 24.8632 30.1589 22.6074 30.2341C20.3516 30.3093 18.6222 29.1062 18.2463 26.888C17.8703 24.6699 18.6974 25.2321 23.3593 21.3205Z" fill="#FF7F6B"/>
  <path d="M23.8037 21.3936C27.6812 18.6717 30.9439 18.6402 32.4268 19.0371L32.46 19.0449C33.1311 19.1776 34.7489 19.542 35.4463 21.5674C35.5896 21.9837 35.5361 22.3733 35.3008 22.7881C35.0543 23.2226 34.6132 23.6738 34.002 24.1543C32.7623 25.1288 31.0515 26.0618 29.3271 27.1855C27.6653 28.2686 26.5195 28.8829 25.5264 29.2393C24.5447 29.5914 23.6893 29.6997 22.5908 29.7363C21.555 29.7709 20.676 29.5113 20.0215 29.0225C19.3715 28.537 18.9076 27.7998 18.7393 26.8066C18.6585 26.3301 18.6996 25.9451 18.8398 25.5928C18.9833 25.2326 19.2444 24.8717 19.6592 24.4678C20.5092 23.6401 21.8663 22.7536 23.8037 21.3936Z" stroke="#FFAB9E"/>
  <path d="M25.9529 22.2623C25.7092 21.9739 25.7406 20.8333 25.7868 20.2991L23.2675 21.7092C23.9411 21.5615 25.2829 21.532 25.2608 22.5951C25.2331 23.924 25.4545 24.1731 25.9529 24.3392C26.4512 24.5053 27.7247 24.6991 28.9705 25.4466C29.9671 26.0446 29.5888 26.7109 29.275 26.9693L32.3757 25.1698C32.4311 25.0221 32.1321 24.6493 30.4932 24.3392C28.4445 23.9516 26.8941 23.5917 26.4235 23.481C25.9529 23.3703 26.2574 22.6228 25.9529 22.2623Z" fill="#FFAB9E"/>
  <path d="M41.1034 27.8425C41.1635 27.0942 40.2562 26.2661 38.9773 25.9398C37.6981 25.6137 36.5043 25.9062 36.1988 26.592L36.1874 26.5891L36.5348 25.2264L36.5424 25.2283C36.814 24.5097 38.0306 24.196 39.3379 24.5292C40.6453 24.8626 41.5631 25.7206 41.4574 26.4815L41.466 26.4837L41.1185 27.8463L41.1034 27.8425Z" fill="#D93A20"/>
  <path d="M39.3047 24.6639C38.6526 24.4977 38.0329 24.5014 37.5621 24.6328C37.0851 24.7659 36.8028 25.0141 36.729 25.3032C36.6553 25.5924 36.7843 25.9454 37.1394 26.2907C37.4898 26.6315 38.0317 26.9324 38.6839 27.0987C39.3359 27.2649 39.9551 27.26 40.4258 27.1286C40.9029 26.9954 41.1852 26.7474 41.2589 26.4582C41.3325 26.169 41.2035 25.816 40.8485 25.4707C40.4982 25.1301 39.9565 24.8302 39.3047 24.6639Z" stroke="#FF5A3C" stroke-width="0.413662"/>
  <path d="M41.4105 26.6452C41.1014 27.3272 39.9093 27.6168 38.6335 27.2916C37.3576 26.9663 36.4499 26.1413 36.505 25.3944L36.4917 25.3911L36.1706 26.6506C36.1697 26.654 36.1679 26.6573 36.167 26.6607C36.1662 26.6638 36.1662 26.6674 36.1655 26.6704L36.1443 26.7537L36.1519 26.7556C36.0465 27.5165 36.9645 28.3736 38.2716 28.707C39.5788 29.0402 40.7951 28.7273 41.0669 28.0088L41.0744 28.0107L41.4219 26.6481L41.4105 26.6452Z" fill="#B82F1A"/>
  <path d="M38.8158 25.5859C38.9325 25.4182 38.9064 24.9622 38.8787 24.7551C39.1286 24.7551 39.7051 25.0314 39.9621 25.1696C39.8788 25.3084 39.6538 25.6526 39.4205 25.9196C39.1872 26.1865 39.0594 26.8224 39.0247 27.107L37.7539 26.7424C38.0593 26.4268 38.6992 25.7536 38.8158 25.5859Z" fill="#FF5A3C"/>
  <path d="M39.2353 25.1154C39.2767 25.0214 39.3862 24.9789 39.4803 25.0202C39.5743 25.0616 39.6169 25.1711 39.5755 25.2651L39.4643 25.5181C39.4229 25.6121 39.3134 25.6547 39.2193 25.6133C39.1253 25.5719 39.0827 25.4624 39.1241 25.3683L39.2353 25.1154Z" fill="#FFEE7D"/>
  <path d="M45.1591 23.7855C44.9918 23.0539 43.8777 22.5357 42.5601 22.6073C41.2426 22.679 40.191 23.3146 40.104 24.06L40.0923 24.0607L40.0161 22.6574L40.0239 22.657C40.0678 21.8901 41.1351 21.2268 42.4821 21.1533C43.8295 21.0802 44.9618 21.6242 45.0887 22.3819L45.0975 22.3815L45.1737 23.7847L45.1591 23.7855Z" fill="#D93A20"/>
  <path d="M42.4917 21.2917C41.8197 21.3282 41.2295 21.5173 40.8196 21.7835C40.4043 22.0533 40.2093 22.3746 40.2253 22.6725C40.2415 22.9705 40.4702 23.2687 40.9124 23.4919C41.3487 23.7123 41.9559 23.8372 42.6279 23.8007C43.2997 23.7642 43.8891 23.5742 44.299 23.308C44.7143 23.0382 44.9094 22.717 44.8932 22.419C44.8769 22.1211 44.6482 21.8228 44.2062 21.5996C43.7699 21.3794 43.1633 21.2553 42.4917 21.2917Z" stroke="#FF5A3C" stroke-width="0.413662"/>
  <path d="M45.094 22.5521C45.0031 23.2954 43.9524 23.9284 42.6377 23.9999C41.3229 24.0713 40.2099 23.5557 40.039 22.8266L40.0253 22.8274L40.1016 24.2316L40.1104 24.2311C40.2376 24.9886 41.3698 25.5319 42.7169 25.4587C44.0637 25.3853 45.1309 24.7228 45.1752 23.956L45.183 23.9556L45.1067 22.5514L45.094 22.5521Z" fill="#B82F1A"/>
  <path d="M42.3012 22.3178C42.3623 22.1229 42.2009 21.6956 42.1126 21.5063C42.351 21.4315 42.9838 21.5227 43.2704 21.5776C43.2324 21.7349 43.1207 22.1307 42.978 22.4552C42.8352 22.7798 42.9036 23.4248 42.9556 23.7067L41.634 23.7391C41.8309 23.3466 42.2401 22.5127 42.3012 22.3178Z" fill="#FF5A3C"/>
  <path d="M42.5607 21.7432C42.572 21.6411 42.6638 21.5678 42.7659 21.5791C42.868 21.5904 42.9414 21.6821 42.9301 21.7843L42.8996 22.0589C42.8883 22.161 42.7966 22.2344 42.6944 22.223C42.5923 22.2117 42.5189 22.12 42.5303 22.0178L42.5607 21.7432Z" fill="#FFEE7D"/>
  <path d="M41.8416 13.9798C41.6985 13.6039 40.9392 13.4065 40.071 13.5349C39.2027 13.6634 38.5332 14.0721 38.5049 14.4734L38.4962 14.4747L38.3866 13.7338L38.3924 13.7329C38.3894 13.3225 39.0679 12.8965 39.957 12.765C40.8462 12.6335 41.6189 12.8447 41.7349 13.2384L41.7407 13.2376L41.8503 13.9785L41.8416 13.9798Z" fill="#16B77B"/>
  <path d="M39.9812 12.9296C39.5409 12.9948 39.164 13.1345 38.9114 13.2991C38.6426 13.4744 38.5802 13.6291 38.5927 13.7135C38.6054 13.7979 38.71 13.9271 39.0176 14.0169C39.307 14.1013 39.7082 14.1259 40.1485 14.0608C40.5889 13.9957 40.9657 13.8559 41.2183 13.6913C41.487 13.5162 41.5494 13.3624 41.5372 13.2779C41.5247 13.1935 41.4204 13.0635 41.1121 12.9735C40.8227 12.8891 40.4215 12.8645 39.9812 12.9296Z" stroke="#7EECC4" stroke-width="0.413662"/>
  <path d="M41.7442 13.3254C41.7172 13.727 41.0474 14.1363 40.1783 14.2649C39.3093 14.3934 38.5496 14.1957 38.4075 13.819L38.3988 13.8203L38.5084 14.5613L38.5142 14.5604C38.6302 14.9541 39.4029 15.1654 40.2921 15.0338C41.1812 14.9022 41.8597 14.4763 41.8568 14.0659L41.8625 14.0651L41.7529 13.3241L41.7442 13.3254Z" fill="#25DC96"/>
  <path d="M35.7157 24.9912C35.9324 25.1625 36.2468 25.1256 36.418 24.909C36.5892 24.6923 36.5524 24.3779 36.3357 24.2067L36.0257 24.599L35.7157 24.9912ZM31.7068 17.7518L31.2295 17.9009C31.4771 18.6938 31.9918 19.9805 32.7404 21.3049C33.4866 22.6251 34.4858 24.0192 35.7157 24.9912L36.0257 24.599L36.3357 24.2067C35.2494 23.3482 34.3264 22.0786 33.6109 20.8128C32.8977 19.5511 32.411 18.3295 32.1841 17.6028L31.7068 17.7518Z" fill="#0F8A5C"/>
  <path d="M36.176 21.1125C35.2446 21.0989 34.922 24.2637 34.2022 22.7281C34.2447 22.1094 35.2095 20.8915 35.1075 20.3482C34.9799 19.6691 33.5765 18.1758 33.5446 17.6942C33.5127 17.2127 34.326 17.9016 34.4217 17.6942C34.5174 17.4869 33.9274 16.9794 33.9114 16.7693C33.8955 16.5592 34.0868 16.7693 34.4217 16.7693C34.7566 16.7693 34.3579 16.4344 34.326 16.0835C34.2942 15.7327 34.8683 15.9559 35.1075 16.196C35.3467 16.4361 35.57 16.5938 35.6497 16.2908C35.7294 15.9878 36.0165 16.196 36.0484 16.7693C36.0803 17.3425 36.479 18.0291 36.766 17.9972C37.0531 17.9653 36.9552 16.0007 36.9255 15.8604C36.8213 15.3683 37.1807 15.1586 37.372 15.4585C37.5634 15.7583 37.5953 16.0354 37.7548 15.7802C37.9143 15.5251 38.1694 14.6366 38.5043 14.9494C38.6926 15.1253 38.5362 15.5701 38.6797 15.4585C38.8233 15.3468 39.3814 14.9178 39.4931 15.2527C39.6047 15.5876 39.0944 16.0199 39.3814 15.8604C39.6685 15.701 40.115 15.909 40.0193 16.196C39.9237 16.4831 39.2858 16.8996 39.6047 16.9794C39.9237 17.0591 40.4499 17.1078 40.1948 17.3311C39.6047 17.8474 40.2267 17.7133 40.115 18.1758C40.0034 18.6383 39.4931 18.2059 38.6797 18.477C37.8664 18.7481 37.9462 19.1328 38.1694 19.3744C38.3927 19.6161 39.7787 18.4833 40.0193 18.7351C40.2077 18.9322 39.9077 18.9757 40.0193 19.3744C40.131 19.7731 40.4499 19.6472 40.4499 19.9662C40.4499 20.2851 40.115 20.0771 40.0193 20.3482C39.9237 20.6193 40.3383 20.62 40.115 20.8423C39.8918 21.0646 39.3176 20.5712 39.0944 20.8423C38.8711 21.1134 39.4931 21.1125 39.4931 21.4802C39.4931 21.8479 39.1582 21.5121 38.9827 21.4802C38.8073 21.4483 38.9668 21.6716 38.6797 21.7832C38.3927 21.8948 37.3401 21.1295 36.176 21.1125Z" fill="#0F8A5C"/>
  <path d="M31.4399 22.1124C32.0426 22.472 34.0963 21.7039 33.8502 22.472C33.2931 22.7445 31.7317 23.0598 31.3122 23.4199C30.7879 23.8699 30.1963 25.8319 29.7952 26.1003C29.3942 26.3687 29.5841 25.3199 29.3567 25.3407C29.1293 25.3615 28.9848 26.1263 28.8108 26.2452C28.6368 26.364 28.7231 26.0932 28.5556 25.8032C28.3882 25.5132 28.2975 26.0259 28.0096 26.2289C27.7217 26.432 27.628 25.8232 27.7163 25.496C27.8046 25.1687 27.8296 24.8965 27.5273 24.979C27.2251 25.0614 27.2618 24.7087 27.7423 24.3945C28.2228 24.0802 28.6181 23.3917 28.4469 23.159C28.2758 22.9264 26.6233 23.9935 26.5167 24.0893C26.1426 24.4256 25.7813 24.2193 25.9453 23.9036C26.1093 23.5879 26.3333 23.4217 26.0326 23.4112C25.7319 23.4007 24.8349 23.6239 24.9383 23.1775C24.9965 22.9265 25.4599 22.8396 25.2914 22.7711C25.123 22.7026 24.4723 22.4337 24.7066 22.1696C24.9408 21.9055 25.5704 22.1313 25.2887 21.9624C25.0071 21.7935 24.964 21.3028 25.2604 21.2422C25.5568 21.1815 26.2365 21.5257 26.1461 21.2096C26.0557 20.8935 25.8347 20.4134 26.1557 20.5227C26.8978 20.7756 26.4707 20.304 26.9271 20.1694C27.3834 20.0349 27.2641 20.693 27.9056 21.2618C28.547 21.8306 28.8403 21.5692 28.9379 21.255C29.0356 20.9409 27.3615 20.3069 27.4593 19.9726C27.5358 19.7109 27.7235 19.949 28.013 19.653C28.3024 19.3569 28.0339 19.1437 28.3101 18.9842C28.5864 18.8247 28.5737 19.2188 28.8563 19.1661C29.1389 19.1134 28.9322 18.754 29.2363 18.8362C29.5405 18.9184 29.4002 19.6623 29.7467 19.7201C30.0931 19.7779 29.7813 19.2397 30.0997 19.0558C30.4182 18.872 30.2948 19.3299 30.3549 19.4978C30.415 19.6657 30.5286 19.4159 30.7688 19.6087C31.009 19.8015 30.44 21.5158 31.4399 22.1124Z" fill="#0F8A5C"/>
  <path d="M30.8033 18.2119C32.1541 18.1923 32.2182 21.3012 33.0046 20.4351C32.9429 19.5377 32.205 17.8914 32.353 17.1034C32.538 16.1185 34.5735 13.9526 34.6198 13.2542C34.666 12.5557 33.4864 13.5549 33.3476 13.2542C33.2088 12.9535 34.0646 12.2173 34.0878 11.9126C34.1109 11.6079 33.8333 11.9126 33.3476 11.9126C32.8619 11.9126 33.4401 11.4269 33.4864 10.918C33.5327 10.4092 32.7 10.733 32.353 11.0812C32.0061 11.4294 31.6823 11.6582 31.5666 11.2187C31.451 10.7793 31.0346 11.0812 30.9884 11.9126C30.9421 12.744 30.3638 13.7399 29.9475 13.6936C29.5312 13.6474 29.6731 10.7979 29.7162 10.5945C29.8673 9.8807 29.3461 9.57649 29.0686 10.0114C28.791 10.4464 28.7447 10.8482 28.5134 10.4782C28.2821 10.1081 27.9121 8.81951 27.4263 9.27319C27.1533 9.52826 27.3801 10.1734 27.1719 10.0114C26.9637 9.84953 26.1542 9.22725 25.9923 9.71298C25.8304 10.1987 26.5705 10.8258 26.1542 10.5945C25.7378 10.3632 25.0902 10.6649 25.229 11.0812C25.3678 11.4975 26.293 12.1017 25.8304 12.2173C25.3678 12.333 24.6045 12.4036 24.9746 12.7274C25.8304 13.4763 24.9283 13.2818 25.0902 13.9526C25.2521 14.6234 25.9923 13.9962 27.1719 14.3894C28.3515 14.7826 28.2359 15.3406 27.9121 15.6911C27.5882 16.0416 25.578 14.3986 25.229 14.7638C24.9558 15.0497 25.3909 15.1128 25.229 15.6911C25.0671 16.2693 24.6045 16.0867 24.6045 16.5493C24.6045 17.0119 25.0902 16.7102 25.229 17.1034C25.3678 17.4966 24.7664 17.4976 25.0902 17.82C25.414 18.1424 26.2467 17.4268 26.5705 17.82C26.8943 18.2132 25.9923 18.2119 25.9923 18.7452C25.9923 19.2785 26.478 18.7915 26.7324 18.7452C26.9869 18.699 26.7556 19.0228 27.1719 19.1847C27.5882 19.3466 29.1148 18.2365 30.8033 18.2119Z" fill="#0F8A5C"/>
  <path d="M42.9162 29.2729C42.7184 29.4504 42.6046 29.6955 42.6064 29.9609C42.6077 30.2259 42.7245 30.4895 42.9245 30.6871C43.1245 30.8848 43.3894 30.9985 43.6544 30.9967C43.9198 30.9953 44.1636 30.8787 44.3387 30.6788C44.3387 30.6788 44.3387 30.6788 44.3387 30.6788C44.519 30.4726 44.709 30.2566 44.8938 30.0456C48.0467 26.4239 51.2223 22.8859 54.2951 19.1401C54.3986 18.9234 54.6162 18.7334 54.8625 18.6539C55.1147 18.5643 55.414 18.6598 55.5905 18.8836C55.5905 18.8836 55.5905 18.8836 55.5905 18.8836C55.4455 18.6423 55.1351 18.4896 54.8386 18.5568C54.5513 18.6161 54.2905 18.7838 54.1206 19.046C50.706 22.3067 47.0854 25.5044 43.5417 28.7108C43.3334 28.8981 43.12 29.0905 42.9162 29.2729Z" fill="#FFEE7D"/>
  <path d="M55.0017 18.9009C54.8268 20.2381 55.3115 21.1939 55.7684 21.7144C55.9369 21.9064 56.2281 21.8259 56.3039 21.5819C56.815 19.9376 56.1205 19.0334 55.4686 18.651C55.2684 18.5336 55.0317 18.6708 55.0017 18.9009Z" fill="#FFE731"/>
  <path d="M43.6837 29.3768C43.531 29.5942 43.301 29.7363 43.0373 29.7659C42.774 29.796 42.4984 29.7112 42.2785 29.536C42.0586 29.3608 41.9143 29.1112 41.8847 28.8479C41.8546 28.5842 41.9416 28.3283 42.1193 28.1308C42.1193 28.1308 42.1193 28.1308 42.1193 28.1308C42.3027 27.9273 42.4947 27.7131 42.6823 27.5046C45.9052 23.945 49.0423 20.3729 52.3978 16.8781C52.6008 16.7496 52.7637 16.511 52.8135 16.2571C52.8726 15.996 52.7423 15.7102 52.4992 15.5614C52.4992 15.5614 52.4992 15.5614 52.4992 15.5614C52.7559 15.6769 52.9443 15.967 52.9127 16.2694C52.8879 16.5616 52.7522 16.8404 52.512 17.0402C49.6785 20.8169 46.9321 24.7907 44.1679 28.6891C44.0065 28.9182 43.8408 29.1529 43.6837 29.3768Z" fill="#FFF6BF"/>
  <path d="M52.5519 16.1482C51.2448 16.4802 50.2383 16.1121 49.6674 15.72C49.4568 15.5754 49.5022 15.2767 49.7355 15.1726C51.3077 14.4704 52.2878 15.0529 52.7447 15.655C52.885 15.8398 52.7768 16.0911 52.5519 16.1482Z" fill="#FFE731"/>
  <path d="M39.5717 31.5245C39.3203 31.6103 39.0508 31.5897 38.8201 31.4584C38.5896 31.3276 38.4168 31.0969 38.3422 30.8258C38.2675 30.5547 38.2979 30.268 38.429 30.0377C38.56 29.8068 38.7809 29.6512 39.0409 29.5962C39.0409 29.5962 39.0409 29.5962 39.0409 29.5962C39.3089 29.5397 39.5902 29.4796 39.8646 29.4215C44.5655 28.442 49.2044 27.4017 53.9743 26.5526C54.214 26.5683 54.4861 26.4713 54.6759 26.2954C54.8774 26.1191 54.9403 25.8114 54.8314 25.548C54.8314 25.548 54.8314 25.548 54.8314 25.548C54.971 25.7925 54.9525 26.1379 54.7489 26.3637C54.5567 26.5853 54.2829 26.7308 53.9711 26.7509C49.4572 28.1352 44.8976 29.7301 40.3679 31.2536C40.1026 31.3438 39.8305 31.4359 39.5717 31.5245Z" fill="#FFF6BF"/>
  <path d="M54.5285 26.0532C53.2765 25.5519 52.6796 24.6618 52.449 24.0087C52.364 23.7678 52.5766 23.5532 52.8265 23.6063C54.5107 23.9645 54.9599 25.0124 54.9747 25.7681C54.9793 26.0001 54.7439 26.1394 54.5285 26.0532Z" fill="#FFE731"/>
  <path d="M38 31.0047C37.8559 30.6294 37.0969 30.4325 36.2294 30.5608C35.3619 30.6891 34.6926 31.0974 34.6632 31.4983L34.6545 31.4996L34.5451 30.7596L34.5509 30.7588C34.5479 30.3484 35.2263 29.9224 36.1155 29.7909C37.0047 29.6593 37.7774 29.8706 37.8934 30.2643L37.8992 30.2634L38.0087 31.0034L38 31.0047Z" fill="#16B77B"/>
  <path d="M36.1397 29.9555C35.6994 30.0206 35.3225 30.1604 35.07 30.325C34.8012 30.5003 34.7388 30.655 34.7512 30.7394C34.764 30.8238 34.8686 30.9529 35.1762 31.0428C35.4656 31.1272 35.8668 31.1518 36.3071 31.0867C36.7475 31.0216 37.1243 30.8818 37.3768 30.7172C37.6455 30.5421 37.708 30.3882 37.6957 30.3038C37.6833 30.2194 37.579 30.0894 37.2707 29.9994C36.9812 29.915 36.5801 29.8903 36.1397 29.9555Z" stroke="#7EECC4" stroke-width="0.413662"/>
  <path d="M37.9027 30.3514C37.8756 30.753 37.2058 31.1623 36.3368 31.2909C35.4678 31.4194 34.7081 31.2216 34.566 30.845L34.5582 30.8462L34.6591 31.5282C34.6595 31.531 34.6591 31.5343 34.6594 31.537C34.6599 31.5398 34.6612 31.5429 34.6617 31.5456L34.6678 31.5871L34.6727 31.5864C34.7886 31.9801 35.5614 32.1914 36.4506 32.0598C37.3396 31.9282 38.0182 31.5023 38.0152 31.0919L38.021 31.0911L37.9114 30.3501L37.9027 30.3514Z" fill="#25DC96"/>
  <path d="M16.918 28.8246C16.9312 28.4225 16.307 27.9473 15.4565 27.7304C14.606 27.5135 13.8305 27.632 13.6495 27.9913L13.641 27.9891L13.826 27.2633L13.8317 27.2647C13.9875 26.885 14.7778 26.7541 15.6488 26.9762C16.5197 27.1983 17.1509 27.6916 17.1059 28.0995L17.1116 28.101L16.9265 28.8268L16.918 28.8246Z" fill="#16B77B"/>
  <path d="M15.6075 27.1375C15.1762 27.0276 14.7745 27.0109 14.478 27.0652C14.1623 27.1231 14.045 27.2417 14.024 27.3243C14.0031 27.4071 14.0498 27.5666 14.2988 27.7683C14.5331 27.9579 14.8937 28.1356 15.325 28.2456C15.7563 28.3556 16.1578 28.3722 16.4544 28.3179C16.7699 28.2601 16.8869 28.1424 16.9082 28.0597C16.9293 27.977 16.8833 27.8169 16.6337 27.6148C16.3993 27.4252 16.0388 27.2475 15.6075 27.1375Z" stroke="#7EECC4" stroke-width="0.413662"/>
  <path d="M17.0806 28.1842C16.8997 28.5436 16.1242 28.662 15.2736 28.4451C14.4232 28.2282 13.7999 27.7532 13.8131 27.3511L13.8045 27.349L13.6344 28.0161C13.6337 28.0188 13.6321 28.0217 13.6313 28.0244C13.6306 28.027 13.6306 28.0304 13.6301 28.0331L13.6197 28.0738L13.6245 28.075C13.5794 28.483 14.2106 28.9763 15.0816 29.1983C15.9525 29.4203 16.7429 29.2895 16.8986 28.9098L16.9043 28.9113L17.0891 28.1864L17.0806 28.1842Z" fill="#25DC96"/>
  <path d="M14.3984 17.5482C14.3852 17.1462 15.0094 16.6709 15.8599 16.454C16.7105 16.2372 17.4859 16.3556 17.6669 16.7149L17.6754 16.7127L17.4904 15.9869L17.4847 15.9884C17.3289 15.6087 16.5386 15.4778 15.6676 15.6998C14.7967 15.9219 14.1655 16.4152 14.2105 16.8232L14.2048 16.8246L14.3899 17.5504L14.3984 17.5482Z" fill="#16B77B"/>
  <path d="M15.709 15.8611C16.1403 15.7512 16.542 15.7345 16.8385 15.7888C17.1542 15.8467 17.2715 15.9653 17.2926 16.0479C17.3134 16.1307 17.2668 16.2903 17.0178 16.4919C16.7834 16.6816 16.4229 16.8592 15.9916 16.9692C15.5602 17.0792 15.1587 17.0958 14.8621 17.0415C14.5466 16.9837 14.4296 16.866 14.4083 16.7833C14.3872 16.7007 14.4332 16.5405 14.6829 16.3384C14.9172 16.1488 15.2777 15.9711 15.709 15.8611Z" stroke="#7EECC4" stroke-width="0.413662"/>
  <path d="M14.2354 16.907C14.4155 17.2671 15.1913 17.3859 16.0427 17.1688C16.894 16.9517 17.5183 16.476 17.5039 16.0737L17.5124 16.0715L17.6975 16.7973L17.6918 16.7987C17.7369 17.2067 17.1057 17.7 16.2347 17.9221C15.3638 18.144 14.5734 18.0132 14.4177 17.6335L14.412 17.635L14.2269 16.9092L14.2354 16.907Z" fill="#25DC96"/>
  <path d="M32.0371 1.5C40.6632 1.50004 48.3997 3.56327 53.9287 6.82129C59.4919 10.0995 62.574 14.4123 62.5742 18.8779C62.5742 23.3436 59.492 27.6563 53.9287 30.9346C48.3996 34.1927 40.6633 36.2568 32.0371 36.2568C23.4108 36.2568 15.6736 34.1927 10.1445 30.9346C4.58149 27.6563 1.5 23.3435 1.5 18.8779C1.50019 14.4124 4.58144 10.0995 10.1445 6.82129C15.6736 3.56315 23.4108 1.5 32.0371 1.5Z" stroke="#ADD9FF" stroke-width="3" stroke-linecap="round"/>
</svg>