<svg preserveAspectRatio="none" width="100%" height="100%" overflow="visible" style="display: block;" viewBox="0 0 64.772 58.6977" fill="none" xmlns="http://www.w3.org/2000/svg">
<g id="Group 18">
<path id="Vector" d="M64.7204 17.9658C64.5226 21.5754 62.5619 24.9185 59.3543 27.7413C53.5668 32.8344 43.6708 36.2033 32.386 36.2033C21.1012 36.2033 11.2052 32.8344 5.41773 27.7413C2.21224 24.9185 0.249388 21.5754 0.0515978 17.9658C0.0193494 17.8819 0 17.8303 0 17.8303V26.1676C0 44.1321 14.4989 58.6977 32.386 58.6977C50.2731 58.6977 64.772 44.1343 64.772 26.1676V17.8303C64.772 17.8303 64.7527 17.8841 64.7204 17.9658Z" fill="var(--fill-0, #374151)"/>
<path id="Ellipse 7" d="M32.3858 1.5C41.1199 1.5 48.9536 3.49427 54.5508 6.64258C60.1949 9.81737 63.2724 13.969 63.2725 18.2168C63.2725 22.4647 60.195 26.6162 54.5508 29.791C48.9536 32.9394 41.1201 34.9346 32.3858 34.9346C23.6516 34.9345 15.8179 32.9394 10.2207 29.791C4.57672 26.6162 1.50003 22.4646 1.50003 18.2168C1.50017 13.969 4.57669 9.81736 10.2207 6.64258C15.8179 3.4942 23.6516 1.50004 32.3858 1.5Z" fill="var(--fill-0, #1F2933)" stroke="var(--stroke-0, #4B5563)" stroke-width="3" stroke-linecap="round"/>
<path id="Vector 9695" d="M18.7578 30.0846C10.4611 30.6126 7.56544 29.0384 7.15471 28.1853C3.97157 23.5623 12.0834 19.7672 17.731 18.8593C23.3785 17.9514 22.7624 18.8588 33.6467 15.5573C44.5309 12.2557 57.2635 19.6026 57.7769 24.4723C58.2903 29.3421 52.9509 30.0846 45.2497 30.0846C37.5486 30.0846 41.1424 31.9833 33.6467 33.2214C26.1509 34.4595 29.1287 29.4246 18.7578 30.0846Z" fill="var(--fill-0, #452215)"/>
<path id="Vector 9683" d="M41.0688 25.2664C36.6667 28.9262 25.502 35.0407 16.0596 30.2196C6.61725 25.3985 16.2522 17.2049 22.25 13.7108" stroke="var(--stroke-0, #4A2416)" stroke-width="3" stroke-linecap="round"/>
<path id="Vector 9684" d="M44.948 23.2112C40.546 26.871 29.3813 32.9855 19.9389 28.1644C10.4965 23.3433 20.1315 15.1497 26.1293 11.6556" stroke="var(--stroke-0, #5B3020)" stroke-width="3" stroke-linecap="round"/>
<path id="Vector 9685" d="M50.313 22.389C45.911 26.0489 34.7463 32.1633 25.3039 27.3422C15.8615 22.5211 25.4965 14.3276 31.4943 10.8335" stroke="var(--stroke-0, #723F28)" stroke-width="3" stroke-linecap="round"/>
<path id="Vector 9686" d="M46.6393 19.5452C48.5468 32.1529 28.3578 34.1226 22.8277 30.9596C20.1547 28.8777 15.3599 23.4046 17.5648 18.1677" stroke="var(--stroke-0, #4A2416)" stroke-width="3" stroke-linecap="round"/>
<path id="Vector 9687" d="M51.5512 18.1795C55.2104 22.9122 47.7175 33.1481 30.7732 24.4406" stroke="var(--stroke-0, #5B3020)" stroke-width="3" stroke-linecap="round"/>
<path id="Vector 9688" d="M47.4241 12.071C51.6061 13.225 61.4852 17.5835 54.6841 23.5275" stroke="var(--stroke-0, #5B3020)" stroke-width="3" stroke-linecap="round"/>
<path id="Vector 9689" d="M31.2336 34.5917C49.7651 32.7909 64.3877 22.0346 46.7222 15.1518" stroke="var(--stroke-0, #7D472E)" stroke-width="3" stroke-linecap="round"/>
<path id="Vector 9690" d="M9.70418 28.4964C8.21849 25.9928 6.98042 20.0114 13.9136 16.1153" stroke="var(--stroke-0, #5B3020)" stroke-width="3" stroke-linecap="round"/>
<path id="Vector 9691" d="M28.1928 10.9978C25.8267 8.68753 20.0215 5.89926 15.7295 13.228" stroke="var(--stroke-0, #5B3020)" stroke-width="3"/>
<path id="Vector 9692" d="M41.4814 9.26181C40.0508 7.25372 34.8123 4.54168 25.3039 9.75826" stroke="var(--stroke-0, #7D472E)" stroke-width="3"/>
<path id="Vector 9693" d="M17.1534 13.3573C13.4482 13.6676 5.00512 19.1319 12.4894 24.4721C14.9808 25.8128 21.338 27.0472 26.8362 21.2596" stroke="var(--stroke-0, #7D472E)" stroke-width="3" stroke-linecap="round"/>
<path id="Vector 9694" d="M21.2448 22.9286C15.0694 23.4526 12.9141 21.8902 12.6084 21.0435C10.2391 16.4551 16.2769 12.6884 20.4805 11.7873C24.6841 10.8862 24.2255 11.7868 32.3269 8.51003C40.4284 5.23322 49.9055 12.525 50.2877 17.3583C50.6698 22.1916 46.6955 22.9286 40.9634 22.9286C35.2312 22.9286 37.9062 24.8131 32.3269 26.0419C26.7477 27.2707 28.9641 22.2735 21.2448 22.9286Z" fill="var(--fill-0, #522A1B)"/>
<g id="Group 12">
<path id="Vector 9695_2" d="M33.7289 8.87795L19.5905 22.0526C19.3863 21.1341 20.072 18.2464 24.4492 14.0442C28.8264 9.84213 32.4595 8.84917 33.7289 8.87795Z" fill="var(--fill-0, #0F8A5C)"/>
<path id="Intersect" d="M20.1935 21.4926C20.4957 20.1001 21.696 17.6773 25.0001 14.5053C28.3731 11.2672 31.3046 9.93696 33.0528 9.50918L20.1935 21.4926Z" fill="var(--fill-0, #7EECC4)"/>
</g>
<g id="Group 15">
<path id="Vector 9695_3" d="M32.5325 9.27804L16.5863 20.1951C16.5214 19.2563 17.6305 16.5033 22.5858 13.0015C27.5411 9.49975 31.2817 9.06013 32.5325 9.27804Z" fill="var(--fill-0, #0F8A5C)"/>
<path id="Intersect_2" d="M17.2678 19.7273C17.7771 18.3949 19.3264 16.1809 23.0605 13.5421C26.8735 10.8476 29.968 9.9686 31.7616 9.80469L17.2678 19.7273Z" fill="var(--fill-0, #25DC96)"/>
</g>
<g id="Group 13">
<path id="Vector 9695_4" d="M17.4397 15.4672L32.7795 6.16044C32.849 6.98929 31.7963 9.39408 27.0303 12.3825C22.2642 15.3709 18.6507 15.6841 17.4397 15.4672Z" fill="var(--fill-0, #0F8A5C)"/>
<path id="Intersect_3" d="M32.1251 6.55743C31.6431 7.72169 30.1605 9.64355 26.5665 11.897C22.8975 14.1975 19.9114 14.9106 18.1788 15.0189L32.1251 6.55743Z" fill="var(--fill-0, #25DC96)"/>
</g>
<g id="Group 14">
<path id="Vector 9695_5" d="M13.9137 13.9005L30.6211 5.61074C30.5569 6.51667 29.1269 8.99863 23.9204 11.6791C18.7138 14.3596 15.0799 14.2769 13.9137 13.9005Z" fill="var(--fill-0, #0F8A5C)"/>
<path id="Intersect_4" d="M29.908 5.96438C29.2431 7.16924 27.4643 9.07741 23.5383 11.0987C19.5302 13.1621 16.4544 13.5857 14.7187 13.5008L29.908 5.96438Z" fill="var(--fill-0, #7EECC4)"/>
</g>
<g id="Group 16">
<path id="Vector 9695_6" d="M13.9438 16.5296L30.6512 8.2398C30.587 9.14572 29.157 11.6277 23.9505 14.3082C18.7439 16.9887 15.11 16.906 13.9438 16.5296Z" fill="var(--fill-0, #0F8A5C)"/>
<path id="Intersect_5" d="M29.9373 8.59207C29.2723 9.79694 27.4944 11.7055 23.5685 13.7266C19.5596 15.7905 16.4833 16.2146 14.7476 16.1294L29.9373 8.59207Z" fill="var(--fill-0, #7EECC4)"/>
</g>
<circle id="Ellipse 8" cx="33.6765" cy="16.5873" r="1.59026" fill="var(--fill-0, #25DC96)"/>
<circle id="Ellipse 9" cx="29.937" cy="17.6084" r="1.59026" fill="var(--fill-0, #25DC96)"/>
<circle id="Ellipse 10" cx="34.8149" cy="21.0472" r="1.59026" fill="var(--fill-0, #25DC96)"/>
<g id="Group 17">
<path id="Vector 9699" d="M34.9097 13.1366C34.0994 8.29678 37.8665 6.26331 40.2566 6.91092C43.0821 7.70954 47.96 11.4678 48.5998 14.2666C49.2395 17.0654 45.641 20.3973 43.242 20.6105C40.8431 20.8238 35.9227 19.1864 34.9097 13.1366Z" fill="var(--fill-0, #E5E7EB)"/>
<path id="Vector 9698" d="M35.923 11.1641C35.1126 6.32428 39.6903 6.40953 42.0804 7.05714C44.9058 7.85576 47.9179 10.6833 48.5576 13.4821C49.1973 16.2809 46.6118 18.8132 44.2128 19.0264C41.8138 19.2397 36.9359 17.2139 35.923 11.1641Z" fill="var(--fill-0, white)"/>
<circle id="Ellipse 11" cx="44.0408" cy="14.0722" r="2.97207" fill="var(--fill-0, #FFD52F)"/>
</g>
<path id="Ellipse 8_2" d="M32.3858 1.5C41.1199 1.5 48.9536 3.49427 54.5508 6.64258C60.1949 9.81737 63.2724 13.969 63.2725 18.2168C63.2725 22.4647 60.195 26.6162 54.5508 29.791C48.9536 32.9394 41.1201 34.9346 32.3858 34.9346C23.6516 34.9345 15.8179 32.9394 10.2207 29.791C4.57672 26.6162 1.50003 22.4646 1.50003 18.2168C1.50017 13.969 4.57669 9.81736 10.2207 6.64258C15.8179 3.4942 23.6516 1.50004 32.3858 1.5Z" stroke="var(--stroke-0, #4B5563)" stroke-width="3" stroke-linecap="round"/>
</g>
</svg>
