<svg xmlns="http://www.w3.org/2000/svg" width="81" height="66" viewBox="0 0 81 66" fill="none">
  <path d="M1.2644 29.6301L2.7474 36.1608C2.83693 36.5551 3.04384 36.9129 3.34085 37.1872L26.8956 58.94C27.4862 59.4855 28.3459 59.6242 29.0782 59.2923L75.5693 38.2182C76.1762 37.9431 76.6062 37.3839 76.7162 36.7268L77.8989 29.6617L27.87 51.9299L1.2644 29.6301Z" fill="#663722"/>
  <path d="M1.51812 30.0602C0.93189 29.5506 1.12512 28.5964 1.86342 28.355L48.6272 13.0659C48.8913 12.9796 49.1793 13.007 49.4223 13.1415L77.3329 28.591C78.0546 28.9905 78.0095 30.0428 77.2563 30.3791L28.0433 52.3518C27.6881 52.5104 27.2731 52.4486 26.9795 52.1934L1.51812 30.0602Z" fill="#7D472E"/>
  <path d="M14.6539 29.0923C13.1395 28.7558 12.9712 27.2694 13.0764 26.5683L44.4162 18.5756C44.8369 19.9217 44.241 20.6088 43.8904 20.7841C44.8159 22.2143 43.7151 23.4133 43.0491 23.8339C43.4697 25.8531 41.6118 26.6384 40.6302 26.7786C40.7985 28.5454 38.4568 29.1975 37.2649 29.3026C37.1807 29.6392 36.5287 29.6532 36.2132 29.6181L30.1135 31.9318C28.5991 33.4462 26.9585 32.8433 26.3275 32.3525C24.5607 34.2876 22.7167 33.1588 22.0156 32.3525C19.3233 33.2779 18.0894 31.6864 17.8089 30.775C15.7897 31.2798 14.8642 29.8635 14.6539 29.0923Z" fill="#F9FAFB"/>
  <path d="M12.0248 26.7648C10.1949 25.5179 10.1318 24.6766 10.1949 23.6821C10.2581 22.6875 9.71473 19.6733 10.6577 18.9975C17.3346 14.2124 29.4206 12.1252 32.9531 11.7259C37.1308 11.0178 43.949 10.865 46.3094 12.2669C47.4547 12.947 46.3094 15.9789 46.3094 16.6839C46.3094 18.4717 47.0455 19.1928 42.8388 19.4031C38.6321 19.6134 27.9051 24.977 23.5932 28.4475C19.2814 31.918 13.8547 28.0117 12.0248 26.7648Z" fill="#FFD52F"/>
  <path d="M12.0248 16.4724C19.092 10.0782 28.9216 7.5682 32.953 7.11248C39.1579 6.06081 43.9956 9.53133 45.5731 11.0037C47.1506 12.476 47.0455 14.5794 42.8388 14.7897C38.6321 15 27.905 20.3636 23.5932 23.8341C19.2813 27.3046 15.3901 24.5702 12.0248 22.1514C9.33247 20.2163 10.903 17.5591 12.0248 16.4724Z" fill="#FFE731"/>
  <path d="M30.5342 19.733C31.039 22.3411 30.6394 29.0227 30.4291 32.0375L37.0546 29.6187C37.896 25.7485 37.3 19.2071 36.9494 16.4728L30.5342 19.733Z" fill="#1F2933"/>
  <path d="M34.7715 7.56245C35.3264 7.55667 35.8108 7.61035 36.0879 7.61037C36.42 7.611 36.6997 7.66916 37.1001 7.78028C37.3775 7.8585 37.7141 7.96433 38.1588 8.12009C38.6721 8.30171 39.0125 8.47078 39.2995 8.61457C39.7024 8.81886 39.998 8.97928 40.4663 9.15261C40.9361 9.32724 41.4099 9.52609 41.7914 9.71535C41.8396 9.73914 41.8854 9.76268 41.9287 9.7865C42.1254 9.8958 42.3641 10.0274 42.6047 10.2193C42.897 10.4441 43.3457 10.945 43.2219 11.5742C43.1153 12.0462 42.8515 12.2392 42.6722 12.3809C42.6091 12.428 42.5566 12.4604 42.5001 12.4963C42.3145 12.6494 42.1196 12.7745 41.9287 12.8833C41.9001 12.906 41.8691 12.9295 41.8365 12.9545C41.6815 13.075 41.4783 13.219 41.2164 13.3502C40.7991 13.5581 40.4119 13.6683 40.0045 13.7721C39.6893 13.8516 39.3569 13.927 38.9872 14.027C38.7344 14.0953 38.4474 14.1783 38.1624 14.2557C37.7886 14.3574 37.4193 14.4489 37.1284 14.4982C37.094 14.504 37.0608 14.5094 37.0289 14.5142C36.9272 14.5294 36.8345 14.5264 36.7414 14.5251H36.7211C36.0591 14.6975 35.4067 14.9387 34.7671 15.2156C34.7125 15.2436 34.659 15.2716 34.6052 15.2998C34.3421 15.4373 34.089 15.5778 33.9335 15.6897C33.7627 15.8115 33.3114 16.0482 32.8408 16.3178C32.5334 16.4932 32.2169 16.6816 31.9658 16.8457C31.8185 16.9418 31.6618 17.0033 31.5011 17.0672C31.3511 17.1268 31.1962 17.1895 31.0437 17.285C30.9672 17.3329 30.8876 17.3902 30.8033 17.452C30.7291 17.5064 30.6506 17.5639 30.5666 17.6212C30.4885 17.6744 30.3029 17.7722 30.0649 17.9C29.9176 17.9791 29.7509 18.069 29.5777 18.1672C29.1394 18.4602 28.7062 18.7578 28.2728 19.061C28.1932 19.1382 28.1285 19.2129 28.0841 19.2832C28.0523 19.3336 28.0299 19.3834 28.0071 19.4342C27.9761 19.5036 27.9442 19.5757 27.8873 19.6543C27.8433 19.7152 27.7778 19.7719 27.7246 19.7951C27.7 19.8058 27.6778 19.8092 27.6578 19.8125C27.6348 19.8164 27.6143 19.8204 27.5954 19.8336C27.5818 19.8431 27.5712 19.8583 27.5584 19.8772C27.5379 19.9074 27.5113 19.9464 27.4567 19.9846C27.2514 20.1282 27.016 20.2847 26.7822 20.4414C26.5251 20.6134 26.2708 20.7857 26.0793 20.9278C25.8594 21.0908 25.5278 21.2953 25.2007 21.4986C24.9658 21.6451 24.7362 21.7889 24.5428 21.919C24.3507 22.0484 24.1691 22.1961 23.9823 22.3467C23.769 22.5196 23.5483 22.6957 23.3462 22.8077C23.309 22.8279 23.2357 22.8447 23.1553 22.8571C23.1118 22.8642 23.0635 22.8713 23.0137 22.8803C22.9942 22.8853 22.9742 22.8909 22.9541 22.8963C22.6723 23.0774 22.3608 23.2624 21.9354 23.3857C21.9217 23.3935 21.9076 23.4018 21.8933 23.4097L21.8926 23.4104C21.7223 23.4997 21.4862 23.6034 21.1418 23.6057C20.8006 23.6128 20.3946 23.4666 20.1361 23.2543C20.0035 23.1481 19.9536 23.0673 19.9089 22.9965C19.8672 22.9281 19.8329 22.8675 19.7687 22.8106C19.6952 22.7456 19.6002 22.6951 19.5022 22.648C19.3654 22.5822 19.2287 22.5289 19.121 22.4367C19.1136 22.4304 19.1055 22.4233 19.0971 22.4164C19.0185 22.3505 18.8974 22.26 18.771 22.1535C18.4256 22.025 18.0242 21.9672 17.5897 21.9654C17.4487 21.966 17.3232 21.9626 17.1809 21.9546C16.5981 21.9169 15.9541 21.8109 15.3496 21.4267C14.7342 21.0503 14.344 20.3368 14.2322 19.7334C14.1095 19.1329 14.1995 18.6173 14.3222 18.263C14.4506 17.9093 14.6093 17.7145 14.7884 17.6967C14.968 17.6763 15.1592 17.8859 15.3017 18.2384C15.4462 18.5879 15.5405 19.0328 15.6488 19.3849C15.8386 19.9707 16.1101 20.1387 16.73 20.238C16.7608 20.2399 16.7929 20.2411 16.8258 20.2424C17.0575 20.2513 17.2911 20.2107 17.5294 20.1545C17.5454 20.1517 17.5615 20.1493 17.5773 20.1466C17.6586 20.1327 17.7395 20.1201 17.8191 20.1095C18.424 19.9846 19.7806 20.33 20.351 20.7834C20.3617 20.7904 20.3726 20.7974 20.383 20.8044C20.5212 20.8985 20.6425 20.9863 20.7729 21.0861C20.924 21.2009 21.0973 21.3468 21.2354 21.4492C21.3023 21.4993 21.347 21.5224 21.3422 21.5283C21.3374 21.5322 21.3154 21.557 21.417 21.5443C21.5262 21.5113 21.7166 21.4133 21.9042 21.2894C21.9154 21.2821 21.9268 21.2746 21.9383 21.2669C24.342 19.5822 26.8928 17.763 29.5689 16.2554C29.6022 16.2347 29.6363 16.2141 29.6706 16.1929C30.3314 15.7831 31.1711 15.2981 31.7276 15.0428C32.4338 14.7167 32.928 14.524 33.3381 14.3726C34.4672 13.901 35.6448 13.4853 36.899 13.2733C38.089 13.0763 39.2832 12.8259 40.3864 12.4368C41.0408 12.205 41.7818 11.8587 42.0478 11.4987C42.1011 11.4229 42.101 11.3891 42.1 11.3818C42.1004 11.374 42.0889 11.3254 42.0245 11.2511C41.8956 11.0991 41.6341 10.9312 41.358 10.7972C41.3348 10.7871 41.3109 10.7768 41.2868 10.7667C40.9387 10.6195 40.6074 10.482 40.3 10.3565C39.835 10.1663 39.4254 10.0054 39.0918 9.86855C38.2902 9.53408 37.4018 9.18621 36.7247 9.02482C36.6143 8.99738 36.5094 8.97352 36.4125 8.95366C35.8679 8.87187 35.3203 8.85165 34.7751 8.89194C34.7379 8.8866 34.7003 8.88124 34.6626 8.87597C34.5352 8.85842 34.4001 8.85067 34.2509 8.85419C33.8683 8.86141 33.3619 8.96335 32.6854 9.1439C32.2795 9.25234 31.8108 9.38935 31.2579 9.55778C30.904 9.66587 30.7077 9.69239 30.5499 9.71244C30.5032 9.71851 30.4589 9.72441 30.4149 9.73205C30.2643 9.75814 30.1244 9.83254 29.956 9.92301C29.7403 10.0395 29.4804 10.1807 29.1035 10.273C27.9032 10.5695 27.431 10.8602 27.0755 11.0746C26.9713 11.1379 26.8782 11.1953 26.7778 11.2467C26.456 11.4116 25.9643 11.5784 25.5906 11.6874C25.2902 11.775 24.7373 12.0503 24.3301 12.2821C24.1766 12.3693 23.957 12.469 23.7049 12.5864C23.4429 12.7085 23.1376 12.8531 22.8321 13.0278C22.8219 13.0337 22.8117 13.0395 22.8016 13.0453C22.8303 13.1063 22.8491 13.1445 22.8532 13.1578C22.8625 13.1889 22.8719 13.2204 22.8801 13.2493C22.8815 13.2527 22.8832 13.2563 22.8844 13.2595C22.8939 13.2831 22.915 13.3289 22.936 13.3749C22.9408 13.3855 22.9458 13.3965 22.9505 13.4069C22.9862 13.4853 22.9635 13.4572 22.9512 13.4417V13.441C22.9485 13.4375 22.9468 13.4366 22.9454 13.4359C22.9418 13.4342 22.9366 13.4318 22.9055 13.3858C22.9046 13.3885 22.9036 13.3907 22.9019 13.3916C22.8826 13.4014 22.8303 13.3473 22.7719 13.2805V13.282C22.7711 13.2924 22.7704 13.3052 22.7523 13.2791C22.7294 13.246 22.7092 13.2147 22.692 13.1876C22.6765 13.1698 22.6606 13.1529 22.6463 13.1375C22.6229 13.1512 22.6003 13.1649 22.578 13.1781C22.5817 13.1888 22.5853 13.197 22.586 13.2014C22.5888 13.2184 22.575 13.2036 22.5613 13.1876C22.5572 13.19 22.553 13.1924 22.549 13.1948C22.5496 13.1994 22.5504 13.204 22.5511 13.2086C22.5491 13.205 22.5467 13.2015 22.5446 13.1977C22.5162 13.2147 22.4882 13.2304 22.4618 13.2464C22.4729 13.2779 22.4793 13.2955 22.4843 13.3103C22.486 13.3153 22.4878 13.3201 22.4894 13.3248C22.4947 13.3401 22.4983 13.3537 22.5018 13.3669C22.5059 13.3825 22.5104 13.3983 22.5177 13.4185C22.501 13.4015 22.4817 13.3799 22.4626 13.3582C22.4566 13.3514 22.4414 13.3216 22.4146 13.274L22.4059 13.2791C21.8883 13.5819 21.5674 13.7746 21.3001 13.9355C21.206 13.9923 21.1158 14.0466 21.0278 14.1003C20.7491 14.2703 20.4016 14.4775 20.0519 14.6906C19.6337 14.9453 19.2135 15.209 18.9017 15.4203C18.0542 15.9013 17.2132 16.3945 16.4439 16.935C16.0531 17.2105 15.6664 17.4357 15.3896 17.5609C15.1144 17.6884 14.9782 17.6493 14.7884 17.6967C14.6994 17.7107 14.5923 17.6525 14.5502 17.4999C14.5091 17.3445 14.537 17.1385 14.6206 16.9306C14.7928 16.5081 15.1497 16.1017 15.5653 15.7696C16.4095 15.1024 17.2788 14.5296 18.1618 13.9754C19.2378 13.3043 20.3328 12.6774 21.4525 12.0919C21.5435 12.0444 21.6336 11.9983 21.7212 11.9532L21.7081 11.9597C21.7382 11.9437 21.7689 11.9283 21.7989 11.9125C21.7852 11.8756 21.7735 11.8436 21.7706 11.8305C21.7679 11.8184 21.7805 11.8385 21.7916 11.8559C21.7993 11.8679 21.806 11.8786 21.8062 11.8762C21.8062 11.8748 21.806 11.8721 21.8054 11.869C21.803 11.8548 21.799 11.8309 21.825 11.8668C21.8294 11.8728 21.8346 11.8817 21.841 11.8915C21.894 11.8637 21.9471 11.8365 22 11.8094C21.9955 11.7955 21.9906 11.7807 21.9833 11.7622C21.9785 11.7499 21.9903 11.7699 22.0022 11.7906C22.005 11.7954 22.0083 11.7999 22.0109 11.8043C22.0122 11.8037 22.0133 11.8028 22.0146 11.8022C22.0111 11.794 22.0078 11.7851 22.0058 11.7797C22.0044 11.7752 22.0115 11.7854 22.0204 11.7985V11.7993C22.0242 11.7973 22.0281 11.7954 22.032 11.7935C22.0312 11.7895 22.0305 11.7856 22.0298 11.7818C22.0213 11.7634 22.0097 11.7395 21.9949 11.7092C21.9843 11.6875 21.9717 11.6616 21.9586 11.6352C21.9408 11.5991 21.9222 11.5619 21.9078 11.5321C21.8966 11.5088 21.8924 11.4994 21.8976 11.5088C21.9001 11.5132 21.9046 11.5216 21.9085 11.5292C21.913 11.5376 21.9171 11.5452 21.9173 11.5451C21.9173 11.5449 21.9143 11.5387 21.9107 11.5313C21.9049 11.5193 21.8975 11.5031 21.8976 11.5023C21.8986 11.5004 21.9024 11.5038 21.9064 11.5074C21.9111 11.5117 21.9157 11.5162 21.9151 11.511C21.9142 11.5049 21.9285 11.5265 21.9427 11.548C21.9525 11.5629 21.9625 11.5777 21.9674 11.5836C21.9721 11.5892 21.9678 11.5757 21.963 11.5626C21.9573 11.5468 21.9514 11.5318 21.963 11.5509C21.9654 11.5549 21.9787 11.5796 21.9949 11.6105C22.0065 11.6323 22.0198 11.6572 22.032 11.6802C22.0338 11.6793 22.0365 11.6793 22.0392 11.6802C22.0376 11.6768 22.0358 11.6735 22.0342 11.67L21.9782 11.5531C21.9646 11.5236 21.9603 11.5121 21.9782 11.5437C21.9874 11.5597 22.0032 11.59 22.0175 11.617C22.0314 11.6435 22.0441 11.6674 22.0472 11.6722C22.0503 11.6767 22.043 11.6603 22.0349 11.6424C22.0232 11.6167 22.0102 11.5879 22.0247 11.6134C22.0256 11.615 22.0266 11.6167 22.0276 11.6185C22.038 11.6366 22.0533 11.664 22.0828 11.7187C22.0917 11.7285 22.1016 11.7396 22.1118 11.7521C22.6952 11.4576 23.2732 11.1976 23.8632 10.9403C23.9464 10.9042 24.0286 10.8682 24.113 10.8321C24.778 10.4905 25.444 10.1686 25.9232 9.95786C26.3171 9.78456 26.6194 9.6914 26.8773 9.61224C27.0544 9.55795 27.2131 9.50945 27.3667 9.44814C27.4493 9.41516 27.5619 9.36902 27.6978 9.31381C28.2527 9.08765 29.2001 8.71338 30.1004 8.45846C30.4969 8.34583 30.9706 8.23358 31.4227 8.13607C32.0698 7.99495 32.6815 7.88768 32.9882 7.80279C33.327 7.70804 33.7034 7.633 34.1056 7.59512C34.3328 7.57437 34.5562 7.5643 34.7715 7.56245Z" fill="#FFD52F"/>
  <path d="M34.1539 9.61238C34.4324 9.59946 34.6387 9.63419 34.8124 9.66829C34.9354 9.69225 35.0385 9.71592 35.1508 9.72856C35.2108 9.73538 35.2925 9.74395 35.3904 9.7576C35.4756 9.76959 35.5726 9.78561 35.6772 9.80698C35.8986 9.85599 36.1267 9.90419 36.4433 10.0684C36.5934 10.1533 36.7861 10.2628 36.9784 10.5316C37.1748 10.78 37.2416 11.2731 37.1345 11.5467C36.9043 12.1529 36.5622 12.3047 36.2966 12.4892C35.9014 12.7275 35.5557 12.86 35.3941 12.9692C35.1126 13.1565 34.7668 13.3025 34.4588 13.4223C34.1648 13.5368 33.9086 13.6277 33.777 13.7156C33.6195 13.8205 33.4678 13.8653 33.2404 13.9298C33.0837 13.9739 32.8904 14.027 32.632 14.1113C32.3366 14.2073 32.115 14.2538 31.9305 14.2899C31.6647 14.3419 31.4745 14.376 31.1885 14.4954C31.0501 14.5528 30.8993 14.6069 30.7521 14.6465C30.6676 14.6767 30.5089 14.7386 30.3912 14.7772C30.2862 14.8118 30.172 14.8632 30.0456 14.9231C29.8843 14.9995 29.7053 15.0895 29.5431 15.1518C29.403 15.2064 29.2799 15.2289 29.1692 15.2506C29.1346 15.2574 29.1012 15.2642 29.069 15.2716C28.9592 15.3292 28.8623 15.381 28.7553 15.4386C28.7408 15.4528 28.7254 15.4679 28.7095 15.4837C28.6274 15.5644 28.538 15.6577 28.4024 15.753C28.1916 15.9019 27.981 15.9929 27.7642 16.0856C27.5936 16.1587 27.4148 16.2357 27.2232 16.3455C27.0909 16.4213 26.9471 16.5144 26.8028 16.6077C26.5872 16.7469 26.3768 16.8821 26.2146 16.9518C26.1546 16.9776 26.0941 16.9837 26.0346 16.9896H26.0338C26.03 16.99 26.0261 16.9907 26.0222 16.9911C25.6529 17.2025 25.2799 17.4135 24.9048 17.6191C24.8744 17.6404 24.8421 17.6618 24.8111 17.683C24.6582 17.7877 24.5122 17.8867 24.4219 17.9706C24.3241 18.0616 24.0481 18.2163 23.7481 18.3736C23.5538 18.4758 23.3452 18.5805 23.1788 18.6705C23.0789 18.7242 22.9716 18.7412 22.8629 18.7562C22.7642 18.7692 22.6515 18.7853 22.5464 18.8274C22.4932 18.8487 22.438 18.8774 22.3794 18.9072C22.3248 18.9345 22.266 18.9636 22.2044 18.9886C22.1448 19.0122 22.0197 19.037 21.8355 19.0684C21.7226 19.0873 21.6079 19.1035 21.4652 19.1229C21.1236 19.2034 20.7379 19.2765 20.2787 19.234C20.1779 19.2412 20.0956 19.2515 20.0072 19.2645C19.947 19.2745 19.8915 19.2888 19.8329 19.3008C19.7519 19.3161 19.6713 19.3321 19.5483 19.311C19.4531 19.295 19.3471 19.2458 19.2883 19.1933C19.2609 19.169 19.2434 19.1447 19.2281 19.1229C19.2107 19.098 19.1951 19.0753 19.17 19.0554C19.1519 19.041 19.129 19.0311 19.101 19.0176C19.0564 18.996 18.9968 18.9658 18.9304 18.8942C18.8941 18.8549 18.8595 18.8126 18.8258 18.7686C18.6312 18.5226 18.4772 18.147 18.4599 17.7941C18.433 17.3338 18.5698 16.9885 18.6552 16.7761C18.7591 16.5206 18.9614 16.2531 19.1627 16.042C19.3074 15.8882 19.4474 15.7615 19.5643 15.6507C19.6781 15.5428 19.7834 15.4211 19.8866 15.3072C20.0115 15.1695 20.1316 15.0442 20.2577 14.9681C20.283 14.953 20.3289 14.9511 20.3862 14.9492C20.4268 14.9479 20.4734 14.9461 20.5227 14.9398C20.663 14.8267 20.8097 14.7152 20.9518 14.6116C20.9546 14.6048 20.9577 14.5976 20.9606 14.5906L21.0172 14.4628C21.0834 14.3293 21.1864 14.1873 21.3919 14.1106C21.4607 14.0852 21.517 14.0878 21.5676 14.0903C21.6172 14.0927 21.6616 14.095 21.7077 14.0707C21.7601 14.043 21.8063 13.9896 21.858 13.9313C21.9304 13.8494 22.0127 13.7577 22.1274 13.7185C22.1353 13.7158 22.144 13.7128 22.1528 13.7098C22.2359 13.6811 22.3598 13.6385 22.4984 13.6248C22.8225 13.4413 23.1501 13.267 23.4801 13.0999C24.0308 12.821 24.5856 12.5633 25.1495 12.3157C25.4203 12.1972 25.7188 12.1418 25.9641 12.1719C26.2069 12.1987 26.3801 12.3018 26.4615 12.4558C26.3964 12.2906 26.4404 12.0859 26.5813 11.8858C26.7289 11.6786 26.9751 11.4924 27.2544 11.3725C27.8204 11.1299 28.3941 10.9037 28.9782 10.6994C29.6869 10.4517 30.4122 10.2358 31.1551 10.0742C31.6746 9.96143 32.2033 9.86937 32.7416 9.80916C32.797 9.80298 32.8521 9.79724 32.9079 9.79173C33.3553 9.69397 33.8185 9.62726 34.1539 9.61238ZM35.3708 11.1205C34.9546 10.9722 34.695 11.0392 34.5133 11.0856C34.4466 11.1029 34.3877 11.1194 34.3274 11.1285C34.1292 11.157 33.8507 11.1318 33.6282 11.1016C33.4559 11.0758 33.1082 11.143 32.8534 11.2229C32.7554 11.2529 32.6227 11.272 32.4635 11.2977C32.3008 11.3239 32.1109 11.3576 31.9124 11.4153C31.4102 11.5626 31.1455 11.6521 30.9329 11.7224C30.8724 11.7427 30.8161 11.7619 30.7601 11.7813C30.5825 11.8425 30.3608 11.9146 30.1371 11.9911C29.8697 12.0824 29.5993 12.1804 29.3979 12.2656C28.8513 12.4113 28.3048 12.5676 27.7656 12.739C27.49 12.8263 27.1994 12.8526 26.9574 12.8051C26.7296 12.7586 26.557 12.6514 26.4797 12.495C26.5442 12.6534 26.516 12.8482 26.3969 13.0505C26.2764 13.2607 26.0647 13.4617 25.8218 13.6103C25.4211 13.8545 25.0251 14.1062 24.6339 14.3618C24.6145 14.3772 24.5947 14.3925 24.5751 14.4076C24.4302 14.5192 24.3091 14.6479 24.191 14.7764C24.1638 14.806 24.1364 14.8362 24.1089 14.8657C23.8996 15.0891 23.403 15.3549 23.136 15.5076C23.1312 15.5104 23.1263 15.5135 23.1214 15.5163C23.0575 15.5526 22.9988 15.5897 22.9312 15.6332C22.771 15.7378 22.5488 15.877 22.0889 16.1502C21.9683 16.2431 21.8445 16.3396 21.7273 16.4341C21.3632 16.728 21.02 17.0335 20.7761 17.3251C20.7169 17.3946 20.6659 17.4648 20.6273 17.524C20.6539 17.5261 20.6823 17.5281 20.7122 17.5284C20.972 17.5325 21.3025 17.4794 21.6366 17.3998C21.6555 17.3938 21.6749 17.3874 21.6946 17.381C22.0786 17.257 22.5691 17.0535 22.8862 16.9533C23.2933 16.825 23.5754 16.7351 23.8091 16.6614C25.0947 16.1336 26.3654 15.5081 27.6313 14.857C28.0308 14.6518 28.4212 14.4477 28.8279 14.2398C29.2033 14.0495 29.5758 13.8596 29.9926 13.688C30.1548 13.6115 30.3263 13.533 30.5335 13.4782C30.5839 13.4618 30.6498 13.4412 30.7049 13.4215C30.9577 13.3326 31.1961 13.2348 31.3896 13.1667C31.8675 12.9988 32.4172 12.835 32.8265 12.7005C32.8935 12.6786 32.9561 12.6578 33.0139 12.6381C33.3258 12.5006 33.633 12.3555 33.9331 12.2024C33.9563 12.1995 33.9798 12.1971 34.0036 12.1944C34.3023 12.1581 34.6317 12.0045 35.0855 11.7275C35.2782 11.6074 35.5108 11.4514 35.6838 11.2868C35.6855 11.2851 35.6872 11.2833 35.6889 11.2817C35.6691 11.2707 35.6469 11.2594 35.6242 11.2447C35.5401 11.1915 35.464 11.1538 35.3708 11.1205Z" fill="#FFD52F"/>
  <path d="M19.1763 11.4256C24.2243 12.8558 28.8517 17.5603 30.5343 19.7338L36.9495 16.4736C33.2476 11.2573 27.6247 9.182 25.276 8.79639L19.1763 11.4256Z" fill="#374151"/>
  <path d="M29.6818 37.895C27.9257 37.5047 27.7306 35.7812 27.8525 34.9682L45.9936 24.9684L64.1933 25.7001C64.6811 27.261 63.99 28.0578 63.5835 28.261C64.6567 29.9195 63.3803 31.3097 62.6079 31.7975C63.0957 34.1389 60.9413 35.0495 59.8031 35.2121C59.9982 37.2608 57.2828 38.0169 55.9008 38.1389C55.8032 38.5291 54.652 39.3583 53.9203 39.6022C53.1886 39.8461 51.6653 39.533 51.6653 39.533C51.6653 39.533 50.7496 40.8205 49.774 41.1876C48.9824 41.4854 47.6082 41.1876 47.6082 41.1876C45.8522 42.9436 43.9498 42.2445 43.2181 41.6754C41.1693 43.9192 39.0312 42.6103 38.2182 41.6754C35.0963 42.7485 33.6654 40.903 33.3402 39.8461C30.9988 40.4315 29.9257 38.7893 29.6818 37.895Z" fill="white"/>
  <path d="M65.0176 26.9184C66.1883 26.2355 66.3997 23.6257 66.3591 22.4063L45.6278 20.9429L25.7501 29.8451C25.6688 31.024 25.6525 33.7475 26.2379 35.2109C26.9696 37.0401 32.7012 42.162 41.7254 33.9914C50.7496 25.8208 56.2193 27.0577 57.5788 27.1623C59.1641 27.2842 63.5542 27.772 65.0176 26.9184Z" fill="#D93A20"/>
  <path d="M27.7013 25.0905C32.3354 18.6272 40.6279 15.8223 41.1157 15.4565C56.3593 9.60295 63.0665 18.1394 64.0421 18.8711C65.0177 19.6028 68.4323 23.0173 64.8957 23.5051C61.3592 23.9929 61.7251 21.432 52.5789 23.5051C43.4327 25.5782 44.0425 29.1148 35.5061 34.2366C26.9697 39.3585 23.0673 31.5537 27.7013 25.0905Z" fill="#F2472A"/>
  <path d="M26.0625 32.8053C30.0646 30.6626 35.2234 30.941 37.5791 31.4332C32.9337 31.5762 29.1836 33.0385 26.9023 34.3209C26.5409 33.8848 26.2591 33.3734 26.0625 32.8053ZM26.9688 26.2477C34.7799 22.945 41.7671 24.6901 44.4082 26.068C35.7136 24.6629 28.9368 27.2377 25.8916 29.1295C26.0802 28.1884 26.4344 27.2125 26.9688 26.2477ZM35.8057 18.0797C43.471 17.5853 49.3725 20.508 51.6035 22.2858C42.4237 19.2259 34.8155 20.2736 30.9033 21.5797C32.5195 20.144 34.2423 18.9861 35.8057 18.0797ZM48.9814 13.5211C54.1384 14.7955 58.3084 18.1889 60.0176 20.0914C54.0934 16.272 46.7368 15.2083 42.0283 15.1217C44.5924 14.2128 46.9053 13.7174 48.9814 13.5211Z" fill="#FF7F6B"/>
</svg>