<svg preserveAspectRatio="none" width="100%" height="100%" overflow="visible" style="display: block;" viewBox="0 0 63.1085 68.1143" fill="none" xmlns="http://www.w3.org/2000/svg">
<g id="Group 62360">
<g id="Group 62353">
<path id="Ellipse 6" d="M59.1468 42.6882C59.1468 50.367 55.1143 68.1143 31.6034 68.1143C9.86037 68.1143 4.06 51.0983 4.06 42.6882C4.06 34.8874 16.3916 30.3776 31.6034 30.3776C46.8152 30.3776 59.1468 34.6436 59.1468 42.6882Z" fill="var(--fill-0, #1F2933)"/>
<path id="Ellipse 4" d="M31.5547 29.7603C39.5727 29.7604 46.1886 31.1413 50.5 33.3072C54.724 35.4292 55.6084 37.5789 55.6084 39.3033C55.6082 40.7058 54.8081 42.8957 50.4404 45.1383C46.1003 47.3666 39.4822 48.8452 31.5547 48.8453C23.4441 48.8453 16.8333 47.5634 12.5488 45.4586C8.46879 43.4541 7.50013 41.3516 7.5 39.3033C7.5 37.7937 8.32833 35.6158 12.6484 33.4136C16.9789 31.2063 23.5972 29.7603 31.5547 29.7603Z" stroke="var(--stroke-0, #4B5563)" stroke-width="15"/>
<path id="Union" d="M31.6033 15.1784C43.545 15.1784 53.4047 18.7228 54.9041 25.4381L57.2595 30.7614C58.4774 32.5578 59.1463 34.614 59.1463 36.9225C59.1461 46.395 46.7923 52.109 31.5535 52.109C16.3149 52.1089 3.96185 47.297 3.96169 36.9225C3.96169 34.6777 4.63384 32.6537 5.85817 30.8698L8.33766 25.3375C9.95141 18.8685 19.7522 15.1784 31.6033 15.1784Z" fill="var(--fill-0, #1F2933)"/>
<path id="Ellipse 3" d="M31.5542 22.3564C37.9608 22.3564 43.1409 23.3832 46.4175 24.9082C49.7326 26.4511 49.5493 27.601 49.5493 27.6142C49.5494 27.6657 49.573 27.8113 49.2525 28.2012C48.8555 28.6839 47.9909 29.4282 46.3599 30.2041C43.0585 31.7744 37.8768 32.8721 31.5542 32.8721C25.0621 32.872 19.8867 31.9153 16.6333 30.4346C13.4648 28.9923 13.559 27.8845 13.5591 27.6142C13.5591 27.5037 13.5546 27.3416 13.8648 26.9629C14.2538 26.488 15.1053 25.7522 16.729 24.9853C20.022 23.4302 25.2037 22.3564 31.5542 22.3564Z" stroke="var(--stroke-0, #4B5563)" stroke-width="15"/>
<path id="Ellipse 7" d="M53.3477 26.9538C53.3477 33.0159 43.6124 36.6725 31.6033 36.6725C19.5942 36.6725 9.85885 33.5933 9.85885 26.9538C9.85885 20.7954 19.5942 17.2351 31.6033 17.2351C43.6124 17.2351 53.3477 20.603 53.3477 26.9538Z" fill="var(--fill-0, #1F2933)"/>
<path id="Intersect" d="M31.6034 19.8654C42.7356 19.8654 51.9123 22.76 53.1932 28.2414C51.9132 33.5296 42.7362 36.672 31.6034 36.672C20.4459 36.672 11.2518 34.0144 10.0038 28.3127C11.2528 22.9385 20.4467 19.8654 31.6034 19.8654Z" fill="var(--fill-0, #FF5A3C)"/>
</g>
<ellipse id="Ellipse 12" cx="32.0083" cy="28.1845" rx="16.7223" ry="4.4057" fill="var(--fill-0, #F2472A)"/>
<g id="&#235;&#145;&#144;&#235;&#182;&#128;">
<path id="Vector 4" d="M37.5138 27.1228L31.3644 24.4066C31.0021 24.2466 30.7684 23.8879 30.7684 23.4919V23.275C30.7684 22.9406 30.9355 22.6284 31.2137 22.4429L35.2097 19.7789C35.4129 19.6435 35.6585 19.5871 35.9004 19.6203L41.3902 20.3738C41.8398 20.4355 42.1915 20.7923 42.2467 21.2428L42.4297 22.7346C42.4682 23.0486 42.3559 23.3623 42.1268 23.5804L38.6075 26.9322C38.3149 27.2108 37.8834 27.286 37.5138 27.1228Z" fill="var(--fill-0, #FFD1C9)"/>
<path id="Vector 5" d="M42.0782 30.6062L38.6567 26.5744C38.5033 26.3937 38.4191 26.1644 38.4191 25.9274V25.1957C38.4191 24.5047 39.1031 24.022 39.7541 24.2534L42.9423 25.3869L49.3584 27.2487C49.8699 27.3971 50.1753 27.9204 50.053 28.4388L50.0445 28.4747C49.9605 28.8305 49.689 29.1121 49.3365 29.2091L43.1059 30.9233C42.7308 31.0265 42.3299 30.9028 42.0782 30.6062Z" fill="var(--fill-0, #FFD1C9)"/>
<path id="Vector 3" d="M46.5246 22.6781L49.6105 26.4063C50.0826 26.9767 49.7928 27.8444 49.0727 28.0165L43.5552 29.3355C43.1753 29.4264 42.7772 29.2876 42.536 28.9803L39.4071 24.9932C38.9446 24.4038 39.2706 23.5339 40.0065 23.3936L45.567 22.3334C45.9251 22.2651 46.2921 22.3972 46.5246 22.6781Z" fill="var(--fill-0, #FFEDEA)"/>
<path id="Vector 2" d="M36.0773 18.428L40.8275 19.8911C41.5284 20.1069 41.7662 20.9789 41.2719 21.5207L38.1978 24.89C37.9238 25.1904 37.4952 25.2949 37.1137 25.1545L32.2675 23.371C31.5746 23.1159 31.3875 22.2236 31.9197 21.7117L35.0897 18.663C35.3517 18.411 35.7298 18.321 36.0773 18.428Z" fill="var(--fill-0, #FFEDEA)"/>
</g>
<g id="Group 62354">
<path id="Vector 7" d="M15.5931 23.9076L21.3009 20.356C21.7068 19.8486 22.823 19.8233 23.3811 19.9755C23.9392 20.1277 23.8378 20.2038 24.954 19.9755C26.0702 19.7472 27.161 19.874 27.643 20.356C28.125 20.838 28.4548 20.8634 29.1397 20.8634C29.6877 20.8634 29.8923 21.4046 29.9261 21.6752C31.0846 22.0472 33.1631 23.2023 32.2092 24.8462C31.2554 26.49 26.2308 30.4864 23.8378 32.279C20.8951 30.8162 14.9031 27.6062 14.4769 26.4698C14.0507 25.3333 15.0435 24.2881 15.5931 23.9076Z" fill="var(--fill-0, #FF7F6B)"/>
<path id="Vector 6" d="M15.675 24.9468C14.9156 25.0704 13.7765 26.175 13.1272 26.905C12.9722 27.0792 12.8729 27.3178 12.9823 27.5237C12.9926 27.543 13.0031 27.561 13.0137 27.5776C13.0596 27.6501 13.128 27.7002 13.2022 27.7434C16.9715 29.9369 24.2629 33.8064 24.1239 32.2174C23.9484 30.2117 21.341 26.8773 20.9148 26.8773C20.4886 26.8773 19.1598 25.1975 18.8088 24.9468C18.4578 24.6961 16.753 24.7713 15.675 24.9468Z" fill="var(--fill-0, #F2472A)"/>
<path id="Vector 11" d="M13.8823 28.092C14.5091 27.1564 16.4966 25.619 18.8074 27.2322C21.1182 28.8454 22.3207 31.2984 22.7113 32.2885" stroke="var(--stroke-0, #FF5A3C)" stroke-width="2" stroke-linecap="round"/>
<path id="Vector 12" d="M15.2863 29.0378C15.9988 28.1246 17.9415 27.3038 20.0127 31.3258" stroke="var(--stroke-0, #FF5A3C)" stroke-width="2" stroke-linecap="round"/>
<path id="Vector 8" opacity="0.6" d="M19.659 25.1902C19.8079 25.3797 24.053 22.1104 26.1569 20.4521C26.7571 19.9809 24.7863 20.266 23.1787 21.5012C21.5712 22.7365 19.4729 24.9533 19.659 25.1902Z" fill="var(--fill-0, #FFAB9E)"/>
<path id="Vector 13" d="M22.533 27.4705C22.9348 27.4706 27.3561 24.0745 29.5165 22.3764C30.0905 21.4915 28.3446 21.7307 28.1055 22.1133C27.8663 22.496 22.533 26.1551 22.1504 26.5378C21.7677 26.9204 22.0308 27.4705 22.533 27.4705Z" fill="var(--fill-0, #FF654E)"/>
<path id="Vector 9" opacity="0.6" d="M28.8305 23.2442C28.3431 23.2983 27.7362 23.56 27.4937 23.6841C26.9635 23.9323 26.0418 24.2595 26.5968 23.5826C27.2906 22.7365 28.4075 22.6519 29.0505 22.6858C29.6935 22.7196 29.4397 23.1765 28.8305 23.2442Z" fill="var(--fill-0, #FFAB9E)"/>
<path id="Vector 10" opacity="0.6" d="M23.9233 24.8348C24.3836 24.6182 26.3178 24.7174 27.1892 24.6148C28.0606 24.5123 29.8121 23.3288 29.9136 23.6672C30.0151 24.0056 28.4583 25.1902 27.1892 25.3255C25.92 25.4609 23.348 25.1055 23.9233 24.8348Z" fill="var(--fill-0, #FFAB9E)"/>
</g>
<path id="Vector 17" d="M43.749 29.1304C43.749 28.6553 43.3978 27.3955 43.3979 27.0856L39.1019 27.8085L29.3739 31.9806C29.4084 32.3317 29.5103 33.1413 29.6424 33.5709C29.8077 34.1079 30.0968 34.4797 30.5925 34.7276C31.0882 34.9754 32.7405 34.9134 35.3842 35.2439C38.0279 35.5744 38.3583 35.0167 39.4117 34.9134C40.465 34.8102 43.1707 30.824 43.2946 30.7001C43.4185 30.5761 43.749 29.6054 43.749 29.1304Z" fill="var(--fill-0, #D93A20)"/>
<path id="Vector 14" d="M34.5484 25.2012C34.8584 24.6527 34.6776 24.0983 34.5484 23.8896C34.5484 22.0713 41.2852 25.2012 42.7161 26.1849C44.1469 27.1686 43.2824 27.6754 42.5074 29.1658C41.7324 30.6563 38.2149 34.4122 37.0524 34.5314C35.8898 34.6507 30.2857 32.9515 29.5703 32.415C28.8549 31.8784 30.0771 30.7159 30.9117 29.7918C31.7464 28.8677 33.1474 28.5696 33.8926 27.109C34.6378 25.6484 34.1609 25.8868 34.5484 25.2012Z" fill="var(--fill-0, #FFAB9E)"/>
<path id="Intersect_2" d="M33.0815 28.1518C34.9748 28.507 38.0398 29.6473 39.98 32.3051C39.6517 32.641 39.3179 32.9625 38.9956 33.2524C38.5684 32.2291 37.6076 30.7962 36.0981 30.7758C34.4556 30.7535 32.5326 29.8046 31.645 29.1743C32.1102 28.8534 32.624 28.5641 33.0815 28.1518ZM34.6821 24.8598C37.2815 25.0553 41.4023 25.9003 43.0845 28.1811C42.9134 28.4602 42.7077 28.7802 42.5073 29.1655C42.4059 29.3605 42.2566 29.5937 42.0728 29.853C40.7683 28.8858 38.1103 27.4538 34.1313 26.604C34.5238 25.6955 34.2135 25.7943 34.5483 25.2016C34.613 25.0871 34.6553 24.9716 34.6821 24.8598Z" fill="var(--fill-0, #FFD1C9)"/>
<path id="Intersect_3" d="M40.017 34.6041C39.7849 34.7835 39.5778 34.8973 39.4115 34.9136C39.2872 34.9258 39.173 34.9447 39.0639 34.9673C39.0388 34.2744 39.0072 33.3783 39.0072 33.275L40.017 32.3238V34.6041ZM43.0951 30.9712C42.8927 31.2505 42.5532 31.7125 42.1586 32.2271L42.0844 29.813L43.0951 28.2105V30.9712Z" fill="var(--fill-0, #FF7F6B)"/>
<g id="Group 62355">
<path id="Subtract" d="M25.3451 28.7569C25.5499 28.2546 26.6407 28.0039 27.8927 28.1933C29.1449 28.3828 30.1135 28.9452 30.1604 29.4857L30.1739 29.4877L30.3246 28.4922L30.3169 28.4911C30.3169 27.9384 29.334 27.3518 28.0505 27.1574C26.7667 26.9631 25.6535 27.2326 25.49 27.7605L25.4823 27.7593L25.3316 28.7548L25.3451 28.7569Z" fill="var(--fill-0, #16B77B)"/>
<path id="Ellipse 10" d="M28.0131 27.4C28.6514 27.4966 29.1991 27.6939 29.5668 27.9216C29.7507 28.0356 29.877 28.1494 29.9506 28.2503C30.0232 28.35 30.0328 28.4188 30.0263 28.4613C30.0198 28.5038 29.9902 28.566 29.8917 28.6395C29.7915 28.7142 29.6373 28.7864 29.4276 28.8408C29.009 28.9495 28.4276 28.9749 27.7893 28.8783C27.1512 28.7817 26.6041 28.5855 26.2365 28.3578C26.0521 28.2437 25.9254 28.1291 25.8518 28.028C25.7797 27.9289 25.7706 27.8606 25.7769 27.8182C25.7833 27.7757 25.8121 27.7125 25.9107 27.6389C26.0109 27.5642 26.1659 27.4931 26.3756 27.4386C26.7941 27.33 27.3749 27.3035 28.0131 27.4Z" stroke="var(--stroke-0, #7EECC4)" stroke-width="0.6"/>
<path id="Subtract_2" d="M25.4777 27.8825C25.5247 28.423 26.4933 28.9854 27.7453 29.1749C28.9972 29.3643 30.088 29.1135 30.2929 28.6113L30.3064 28.6134L30.1558 29.6089L30.1481 29.6077C29.9845 30.1356 28.8721 30.4051 27.5885 30.211C26.3048 30.0166 25.3212 29.4298 25.3212 28.8771L25.3135 28.876L25.4641 27.8805L25.4777 27.8825Z" fill="var(--fill-0, #25DC96)"/>
</g>
<g id="Group 62356">
<path id="Subtract_3" d="M30.9581 28.2868C30.9433 27.7662 31.7501 27.1517 32.8506 26.8711C33.9514 26.5904 34.9547 26.7434 35.1909 27.2076L35.2032 27.2045L34.9634 26.2639L34.9558 26.2658C34.7534 25.7741 33.7294 25.6049 32.6011 25.8926C31.4731 26.1803 30.6559 26.8189 30.7136 27.3474L30.706 27.3493L30.9458 28.2899L30.9581 28.2868Z" fill="var(--fill-0, #16B77B)"/>
<path id="Ellipse 10_2" d="M32.6624 26.1323C33.2179 25.9906 33.7334 25.9704 34.1123 26.0398C34.5192 26.1143 34.6532 26.264 34.6755 26.3517C34.6977 26.4396 34.6512 26.6344 34.3301 26.8943C34.0307 27.1365 33.5685 27.3656 33.013 27.5072C32.4574 27.6489 31.942 27.6691 31.5632 27.5997C31.157 27.5253 31.0228 27.3765 31.0001 27.2888C30.9778 27.2011 31.0238 27.0055 31.3453 26.7452C31.6446 26.503 32.1069 26.2739 32.6624 26.1323Z" stroke="var(--stroke-0, #7EECC4)" stroke-width="0.6"/>
<path id="Subtract_4" d="M30.7477 27.461C30.984 27.9251 31.9865 28.0783 33.087 27.7978C34.1877 27.5172 34.9953 26.9024 34.9805 26.3818L34.9918 26.3789L35.2131 27.2467C35.2139 27.2494 35.2155 27.2522 35.2162 27.255C35.2167 27.2573 35.2166 27.2604 35.2172 27.2628L35.2316 27.3195L35.225 27.3212C35.2826 27.8497 34.4647 28.4886 33.3365 28.7763C32.2085 29.0638 31.1853 28.8943 30.9828 28.4028L30.9752 28.4048L30.7354 27.4642L30.7477 27.461Z" fill="var(--fill-0, #25DC96)"/>
</g>
<g id="Group 62357" opacity="0.4">
<path id="Vector 20" d="M29.9725 5.46299C29.4782 3.06967 31.4141 0.82378 32.4439 0C32.1946 0.975537 31.8911 3.36235 32.6715 5.10531C33.4519 6.84826 34.4913 6.52575 34.9803 8.68227C35.4693 10.8388 33.4953 13.9935 32.4439 14.3079C32.6498 14.0477 33.0357 13.0267 32.9316 11.0236C32.8016 8.51968 30.5904 8.45464 29.9725 5.46299Z" fill="var(--fill-0, #ADD9FF)"/>
<path id="Vector 21" d="M36.7246 7.41088C36.4008 5.84269 37.6692 4.3711 38.3439 3.83133C38.1806 4.47054 37.9817 6.03446 38.4931 7.17651C39.0044 8.31856 39.6855 8.10724 40.0059 9.52027C40.3263 10.9333 39.0329 13.0004 38.3439 13.2064C38.4789 13.0359 38.7317 12.3669 38.6635 11.0544C38.5783 9.41373 37.1294 9.37112 36.7246 7.41088Z" fill="var(--fill-0, #ADD9FF)"/>
<path id="Vector 22" d="M25.2614 10.4351C24.848 8.31496 26.4671 6.32538 27.3284 5.59562C27.1199 6.45982 26.866 8.57424 27.5187 10.1183C28.1715 11.6623 29.0407 11.3766 29.4497 13.287C29.8587 15.1974 28.2077 17.9921 27.3284 18.2706C27.5006 18.0401 27.8233 17.1356 27.7363 15.3611C27.6275 13.143 25.7782 13.0854 25.2614 10.4351Z" fill="var(--fill-0, #ADD9FF)"/>
</g>
</g>
</svg>
