<svg preserveAspectRatio="none" width="100%" height="100%" overflow="visible" style="display: block;" viewBox="0 0 79 59.6" fill="none" xmlns="http://www.w3.org/2000/svg">
<g id="Frame 2087330753">
<g id="Group 7">
<path id="Vector" d="M39.5 59.6C54.7707 59.6 67.15 52.4295 67.15 43.5843C67.15 34.7391 54.7707 27.5687 39.5 27.5687C24.2293 27.5687 11.85 34.7391 11.85 43.5843C11.85 52.4295 24.2293 59.6 39.5 59.6Z" fill="var(--fill-0, #D1D5DB)"/>
<path id="Vector_2" d="M39.5 54.6159C61.3153 54.6159 79 44.3722 79 31.7358C79 19.0995 61.3153 8.85573 39.5 8.85573C17.6848 8.85573 0 19.0995 0 31.7358C0 44.3722 17.6848 54.6159 39.5 54.6159Z" fill="var(--fill-0, #E5E7EB)"/>
<path id="Vector_3" d="M39.5 47.7517C54.7707 47.7517 67.15 40.581 67.15 31.7356C67.15 22.8901 54.7707 15.7195 39.5 15.7195C24.2293 15.7195 11.85 22.8901 11.85 31.7356C11.85 40.581 24.2293 47.7517 39.5 47.7517Z" fill="var(--fill-0, #D1D5DB)"/>
</g>
<g id="Group">
<g id="Group_2">
<path id="Vector_4" d="M65.061 10.2735C64.0932 9.94833 63.0368 9.91252 62.0034 10.1093C61.0988 9.56423 60.0912 9.23087 59.0669 9.20152C56.1071 9.11689 54.0801 11.9215 54.6193 15.0183C55.1021 17.7927 57.5065 19.7123 60.1298 20.1441C62.7793 20.7152 65.7875 19.7541 67.2267 17.2687C68.8018 14.5481 67.8683 11.2165 65.0614 10.2735L65.061 10.2735Z" fill="var(--fill-0, #FF5A3C)"/>
<path id="Vector_5" d="M65.6238 10.512L63.4651 10.3884L64.2515 12.2501L61.8997 10.6595L59.3276 11.373L60.5242 9.8645L58.5033 9.21577C61.1346 9.11277 63.3872 9.4809 65.6238 10.512Z" fill="var(--fill-0, #16B77B)"/>
</g>
<path id="Vector_6" d="M61.9759 10.232C61.6702 10.1776 61.4666 9.88535 61.521 9.58003L61.7354 8.37685C61.7897 8.07153 62.0816 7.86793 62.3873 7.92239C62.693 7.97684 62.8966 8.26869 62.8422 8.57401L62.6279 9.7772C62.5735 10.0825 62.2815 10.2865 61.9759 10.232Z" fill="var(--fill-0, #16B77B)"/>
</g>
<g id="Group 8">
<path id="Vector_7" d="M40.6706 12.8931L40.5856 12.5641C39.7885 9.47094 41.7041 6.33053 44.8193 5.62418L50.474 4.34201C53.4625 3.66453 56.4484 5.48589 57.2134 8.45353C57.9785 11.4212 56.2452 14.4588 53.3011 15.3105L47.7311 16.9215C44.6628 17.809 41.4677 15.9863 40.6706 12.8931Z" fill="var(--fill-0, #D98D4A)"/>
<path id="Intersect" d="M49.2051 4.62891C49.4271 5.84344 49.481 7.24655 49.4727 8.23926C49.4706 8.45301 49.1781 8.50489 49.0869 8.31152C48.1304 6.27731 47.0967 5.45368 46.5312 5.23535L49.2051 4.62891Z" fill="var(--fill-0, #FFBB00)"/>
<path id="Vector 9679" d="M48.246 13.2578L47.6549 14.6367" stroke="var(--stroke-0, #B57237)" stroke-linecap="round"/>
<path id="Vector 9680" d="M43.8622 9.21875L44.798 10.4492" stroke="var(--stroke-0, #B57237)" stroke-linecap="round"/>
<path id="Vector 9681" d="M53.9751 8.36328V9.8125" stroke="var(--stroke-0, #B57237)" stroke-linecap="round"/>
</g>
<g id="Group 6">
<path id="Union" d="M16.842 22.7571C22.7308 18.6457 32.6189 17.4212 38.9524 20.4211C40.8307 21.3108 42.4567 22.092 43.9299 22.7571H67.9524V31.5569C68.0749 32.1483 68.0823 32.7712 67.9524 33.4211C66.9524 38.4211 62.4524 39.4211 58.9524 39.4211C55.4524 39.4211 54.4523 38.9211 48.4524 39.9211C42.4524 40.9211 42.9523 42.4211 32.9524 43.4211C22.9525 44.4211 11.9527 40.9217 11.9524 30.9221C11.9524 30.8671 11.9552 30.8118 11.9563 30.7571H11.9524V22.7571H16.842Z" fill="var(--fill-0, #912416)"/>
<path id="Vector 9672" d="M38.9524 11.7579C46.5524 15.3579 50.0216 17.175 55.9524 16.758C61.8831 16.3409 68.9524 19.758 67.9524 24.758C66.9524 29.758 62.4524 30.758 58.9524 30.758C55.4524 30.758 54.4524 30.2579 48.4524 31.2579C42.4524 32.2579 42.9524 33.758 32.9524 34.758C22.9524 35.758 11.9524 32.258 11.9524 22.258C11.9524 12.258 29.4524 7.25793 38.9524 11.7579Z" fill="var(--fill-0, #B82F1A)"/>
<path id="Subtract" d="M46.6897 15.2617C48.9427 16.1335 50.9404 16.6514 53.1848 16.7822L35.5041 34.4629C34.7366 34.5647 33.8908 34.664 32.9524 34.7578C31.0213 34.9509 29.0532 34.9743 27.134 34.8174L46.6897 15.2617ZM34.9641 10.4873C36.3889 10.7614 37.7362 11.1817 38.9524 11.7578C39.6047 12.0668 40.2269 12.3621 40.8225 12.6445L20.1799 33.2871C18.273 32.5394 16.5793 31.5247 15.2317 30.2197L34.9641 10.4873ZM61.1496 17.3018C63.2126 17.8717 65.0821 18.8436 66.3537 20.1133L55.8098 30.6572C54.0951 30.592 52.3038 30.6159 48.4524 31.2578C47.8783 31.3535 47.3637 31.4537 46.8938 31.5576L61.1496 17.3018ZM12.2043 24.7627C12.0401 23.9777 11.9524 23.1433 11.9524 22.2578C11.9525 15.9192 18.9838 11.5898 26.552 10.415L12.2043 24.7627Z" fill="var(--fill-0, #912416)"/>
</g>
<path id="Vector 9677" d="M44.2417 22.6765C42.4942 22.5082 41.2978 22.2507 39.4524 21.7578M29.9524 16.7578C31.3993 18.1143 33.0268 19.2067 34.7274 20.0812M39.4524 21.7578C38.8451 21.1143 38.4524 19.7578 38.9524 17.7578M39.4524 21.7578C38.8451 21.9476 36.2524 23.1578 35.4524 24.7578M39.4524 21.7578C37.607 21.2649 36.5367 21.0116 34.7274 20.0812M34.7274 20.0812C34.3024 19.3068 33.9524 17.2578 34.4524 15.7578M34.7274 20.0812C33.9691 19.9734 31.7521 20.7912 30.8927 21.7578" stroke="var(--stroke-0, #16B77B)" stroke-width="2" stroke-linecap="round"/>
</g>
</svg>
