<svg preserveAspectRatio="none" width="100%" height="100%" overflow="visible" style="display: block;" viewBox="0 0 82.4303 66.9962" fill="none" xmlns="http://www.w3.org/2000/svg">
<g id="Group 1171276618">
<g id="Vector 9660">
<path d="M27.4994 62.9719C35.9332 69.1822 49.7925 66.8733 56.1437 64.8114C56.4652 64.707 56.7484 64.5177 56.9752 64.2671L81.7031 36.9389C82.1568 36.4375 82.3237 35.7256 82.1449 35.0735C75.0571 9.22067 64.0534 6.36317 59.1264 6.36317C56.7145 6.36317 54.9903 6.87262 53.8804 7.43017C52.981 7.88194 51.8228 8.06634 50.9036 7.65654C49.1917 6.89337 46.7375 6.11953 44.5614 6.36317C42.4637 6.59802 40.7876 7.53167 39.7329 8.35833C39.0815 8.86894 38.2172 9.11882 37.4024 8.97297C35.7824 8.68297 33.3056 8.5497 30.8287 9.29844C28.9803 9.8572 27.474 10.9589 26.381 12.0436C25.384 13.0331 23.6051 13.1614 22.6895 12.0963C10.6891 -1.86417 9.00875 -0.305791 5.44338 0.492572C1.6981 1.33122 -1.63104 6.78244 0.865813 14.3303C2.70533 19.891 13.6271 30.1461 20.1101 35.6633C20.9647 36.3906 21.0592 37.6705 20.3915 38.5724C13.7443 47.5504 17.2819 55.4481 27.4994 62.9719Z" fill="url(#paint0_linear_559_4360)"/>
<path d="M27.4994 62.9719C35.9332 69.1822 49.7925 66.8733 56.1437 64.8114C56.4652 64.707 56.7484 64.5177 56.9752 64.2671L81.7031 36.9389C82.1568 36.4375 82.3237 35.7256 82.1449 35.0735C75.0571 9.22067 64.0534 6.36317 59.1264 6.36317C56.7145 6.36317 54.9903 6.87262 53.8804 7.43017C52.981 7.88194 51.8228 8.06634 50.9036 7.65654C49.1917 6.89337 46.7375 6.11953 44.5614 6.36317C42.4637 6.59802 40.7876 7.53167 39.7329 8.35833C39.0815 8.86894 38.2172 9.11882 37.4024 8.97297C35.7824 8.68297 33.3056 8.5497 30.8287 9.29844C28.9803 9.8572 27.474 10.9589 26.381 12.0436C25.384 13.0331 23.6051 13.1614 22.6895 12.0963C10.6891 -1.86417 9.00875 -0.305791 5.44338 0.492572C1.6981 1.33122 -1.63104 6.78244 0.865813 14.3303C2.70533 19.891 13.6271 30.1461 20.1101 35.6633C20.9647 36.3906 21.0592 37.6705 20.3915 38.5724C13.7443 47.5504 17.2819 55.4481 27.4994 62.9719Z" fill="url(#paint1_linear_559_4360)"/>
<path d="M27.4994 62.9719C35.9332 69.1822 49.7925 66.8733 56.1437 64.8114C56.4652 64.707 56.7484 64.5177 56.9752 64.2671L81.7031 36.9389C82.1568 36.4375 82.3237 35.7256 82.1449 35.0735C75.0571 9.22067 64.0534 6.36317 59.1264 6.36317C56.7145 6.36317 54.9903 6.87262 53.8804 7.43017C52.981 7.88194 51.8228 8.06634 50.9036 7.65654C49.1917 6.89337 46.7375 6.11953 44.5614 6.36317C42.4637 6.59802 40.7876 7.53167 39.7329 8.35833C39.0815 8.86894 38.2172 9.11882 37.4024 8.97297C35.7824 8.68297 33.3056 8.5497 30.8287 9.29844C28.9803 9.8572 27.474 10.9589 26.381 12.0436C25.384 13.0331 23.6051 13.1614 22.6895 12.0963C10.6891 -1.86417 9.00875 -0.305791 5.44338 0.492572C1.6981 1.33122 -1.63104 6.78244 0.865813 14.3303C2.70533 19.891 13.6271 30.1461 20.1101 35.6633C20.9647 36.3906 21.0592 37.6705 20.3915 38.5724C13.7443 47.5504 17.2819 55.4481 27.4994 62.9719Z" fill="url(#paint2_radial_559_4360)" fill-opacity="0.3"/>
</g>
<g id="Intersect" filter="url(#filter0_f_559_4360)">
<path d="M20.2625 35.806C22.3821 37.6732 25.685 40.4393 28.0181 41.8245C28.1539 41.9051 28.1522 42.1022 28.0111 42.1729C25.84 43.2611 21.0722 44.9833 17.6112 44.5956C17.4928 44.5823 17.4161 44.4668 17.4475 44.3519C17.961 42.4729 18.9293 40.5488 20.3924 38.5726C21.0184 37.7271 20.9745 36.5492 20.2625 35.806ZM18.7564 34.4866C18.7586 34.4743 18.7735 34.4693 18.7826 34.4778C19.0433 34.7182 19.3815 35.0232 19.7762 35.3753C19.4481 35.0944 19.1086 34.8035 18.7615 34.5014C18.7573 34.4977 18.7553 34.4921 18.7564 34.4866Z" fill="url(#paint3_linear_559_4360)" fill-opacity="0.5"/>
</g>
<g id="Intersect_2" filter="url(#filter1_f_559_4360)">
<path d="M30.6855 20.0652C30.7327 20.2486 30.5235 20.3872 30.3747 20.27C26.8199 17.4711 23.9412 13.8914 22.7209 12.1308C23.6451 13.1579 25.3951 13.0222 26.381 12.0438C26.8473 11.5811 27.3892 11.1157 28.0005 10.6904C28.1132 10.6119 28.2682 10.6716 28.3024 10.8046L30.6855 20.0652Z" fill="url(#paint4_linear_559_4360)" fill-opacity="0.5"/>
</g>
<g id="Intersect_3" filter="url(#filter2_f_559_4360)">
<path d="M41.5182 12.4607C41.5587 12.6511 41.3309 12.7813 41.1874 12.6498L37.332 9.11637C37.2698 9.05941 37.3191 8.95856 37.4021 8.97342C38.2169 9.11927 39.0817 8.86879 39.7332 8.35818C39.9019 8.22595 40.0867 8.09138 40.2866 7.9572C40.4021 7.8796 40.5579 7.94517 40.5868 8.08134L41.5182 12.4607ZM50.7426 7.90858C50.6104 7.78759 50.7395 7.58407 50.9031 7.65701C51.6948 8.00997 52.6641 7.92152 53.4923 7.60161C53.6114 7.55561 53.7466 7.62379 53.7731 7.74867L54.4186 10.7833C54.4591 10.9737 54.2315 11.1039 54.0879 10.9724L50.7426 7.90858Z" fill="url(#paint5_linear_559_4360)" fill-opacity="0.5"/>
</g>
</g>
<defs>
<filter id="filter0_f_559_4360" x="16.4404" y="33.4736" width="12.678" height="12.1778" filterUnits="userSpaceOnUse" color-interpolation-filters="sRGB">
<feFlood flood-opacity="0" result="BackgroundImageFix"/>
<feBlend mode="normal" in="SourceGraphic" in2="BackgroundImageFix" result="shape"/>
<feGaussianBlur stdDeviation="0.5" result="effect1_foregroundBlur_559_4360"/>
</filter>
<filter id="filter1_f_559_4360" x="21.7209" y="9.65531" width="9.97143" height="11.6579" filterUnits="userSpaceOnUse" color-interpolation-filters="sRGB">
<feFlood flood-opacity="0" result="BackgroundImageFix"/>
<feBlend mode="normal" in="SourceGraphic" in2="BackgroundImageFix" result="shape"/>
<feGaussianBlur stdDeviation="0.5" result="effect1_foregroundBlur_559_4360"/>
</filter>
<filter id="filter2_f_559_4360" x="36.304" y="6.5872" width="19.1194" height="7.11592" filterUnits="userSpaceOnUse" color-interpolation-filters="sRGB">
<feFlood flood-opacity="0" result="BackgroundImageFix"/>
<feBlend mode="normal" in="SourceGraphic" in2="BackgroundImageFix" result="shape"/>
<feGaussianBlur stdDeviation="0.5" result="effect1_foregroundBlur_559_4360"/>
</filter>
<linearGradient id="paint0_linear_559_4360" x1="28.7138" y1="15.515" x2="-1.21581" y2="17.2392" gradientUnits="userSpaceOnUse">
<stop stop-color="white"/>
<stop offset="1" stop-color="#ADD9FF"/>
</linearGradient>
<linearGradient id="paint1_linear_559_4360" x1="29.5461" y1="10.9024" x2="29.5461" y2="114.056" gradientUnits="userSpaceOnUse">
<stop stop-color="white"/>
<stop offset="1" stop-color="#ADD9FF"/>
</linearGradient>
<radialGradient id="paint2_radial_559_4360" cx="0" cy="0" r="1" gradientTransform="matrix(-2.08072 5.87054 -46.1592 -16.6115 36.2044 65.4146)" gradientUnits="userSpaceOnUse">
<stop stop-color="white"/>
<stop offset="1" stop-color="#ECF6FF"/>
</radialGradient>
<linearGradient id="paint3_linear_559_4360" x1="20.2141" y1="44.6516" x2="17.6607" y2="32.6475" gradientUnits="userSpaceOnUse">
<stop stop-color="#ADD9FF"/>
<stop offset="1" stop-color="white"/>
</linearGradient>
<linearGradient id="paint4_linear_559_4360" x1="24.7911" y1="20.3131" x2="21.7918" y2="9.21849" gradientUnits="userSpaceOnUse">
<stop stop-color="#ADD9FF"/>
<stop offset="1" stop-color="white"/>
</linearGradient>
<linearGradient id="paint5_linear_559_4360" x1="41.7495" y1="12.7036" x2="41.3309" y2="6.42507" gradientUnits="userSpaceOnUse">
<stop stop-color="#ADD9FF"/>
<stop offset="1" stop-color="white"/>
</linearGradient>
</defs>
</svg>
