<svg preserveAspectRatio="none" width="100%" height="100%" overflow="visible" style="display: block;" viewBox="0 0 48 48" fill="none" xmlns="http://www.w3.org/2000/svg">
<g id="Frame 2087330674">
<g id="Subtract">
<mask id="path-1-inside-1_559_4349" fill="white">
<path d="M25.2705 0.0332031C37.9347 0.693737 48 11.1714 48 24C48 37.2548 37.2548 48 24 48C11.1714 48 0.693737 37.9347 0.0332031 25.2705L25.2705 0.0332031Z"/>
</mask>
<path d="M25.2705 0.0332031C37.9347 0.693737 48 11.1714 48 24C48 37.2548 37.2548 48 24 48C11.1714 48 0.693737 37.9347 0.0332031 25.2705L25.2705 0.0332031Z" fill="var(--fill-0, #FFAB9E)"/>
<path d="M25.2705 0.0332031L25.4372 -3.16245L24.0149 -3.23664L23.0078 -2.22954L25.2705 0.0332031ZM0.0332031 25.2705L-2.22954 23.0078L-3.23664 24.0149L-3.16245 25.4372L0.0332031 25.2705ZM25.2705 0.0332031L25.1038 3.22886C36.0768 3.80118 44.8 12.8829 44.8 24H48H51.2C51.2 9.45985 39.7926 -2.41371 25.4372 -3.16245L25.2705 0.0332031ZM48 24H44.8C44.8 35.4875 35.4875 44.8 24 44.8V48V51.2C39.0221 51.2 51.2 39.0221 51.2 24H48ZM24 48V44.8C12.8829 44.8 3.80118 36.0768 3.22886 25.1038L0.0332031 25.2705L-3.16245 25.4372C-2.41371 39.7926 9.45985 51.2 24 51.2V48ZM0.0332031 25.2705L2.29594 27.5332L27.5332 2.29594L25.2705 0.0332031L23.0078 -2.22954L-2.22954 23.0078L0.0332031 25.2705Z" fill="var(--stroke-0, white)" mask="url(#path-1-inside-1_559_4349)"/>
</g>
<path id="Union" d="M24.8655 16.2956C27.5434 13.6158 31.8852 13.6158 34.5631 16.2956C37.2409 18.9755 37.2409 23.3206 34.5631 26.0004C31.8852 28.6803 24 36.5713 24 36.5713C24 36.5713 16.1148 28.6803 13.437 26.0004C10.7591 23.3206 10.7591 18.9755 13.437 16.2956C16.1148 13.6157 20.4566 13.6157 23.1345 16.2956L24 17.1617L24.8655 16.2956Z" fill="var(--fill-0, #F2472A)"/>
<path id="Vector 9668" d="M24.9272 2.68945C26.0214 6.42374 26.0345 13.0909 19.5503 19.5752C13.052 26.0734 6.50601 25.9137 2.88718 24.7295L24.9272 2.68945Z" fill="var(--fill-0, #D93A20)" stroke="var(--stroke-0, white)" stroke-width="3" stroke-linejoin="round"/>
</g>
</svg>
