<svg preserveAspectRatio="none" width="100%" height="100%" overflow="visible" style="display: block;" viewBox="0 0 184 57.9996" fill="none" xmlns="http://www.w3.org/2000/svg">
<path id="Union" d="M161.507 34.7168C162.1 34.7157 162.528 34.9217 162.681 35C163.013 35.1706 163.226 35.3771 163.263 35.4111C163.301 35.4471 163.334 35.4805 163.361 35.5088L163.424 35.5762L163.822 36.0244L163.854 36.0732C163.997 36.2098 164.125 36.3649 164.236 36.5381C164.497 36.945 164.628 37.3987 164.639 37.8486C164.662 37.916 164.687 37.9906 164.707 38.0723C164.758 38.277 164.852 38.7525 164.701 39.332L164.668 39.4492L164.567 39.7715L164.468 40.0928C164.289 40.6665 163.857 41.305 163.093 41.6553C162.433 41.9575 161.841 41.8955 161.567 41.8457C161.428 41.8202 161.3 41.7832 161.188 41.7441C161.061 41.9201 160.905 42.0891 160.715 42.2402C160.773 42.3475 160.822 42.4515 160.86 42.5508C161.083 42.5655 161.324 42.6109 161.577 42.7041C161.936 42.8366 162.217 43.0247 162.438 43.2314L162.511 43.2217C162.884 43.1715 163.381 43.1905 163.899 43.4229C163.942 43.4419 163.983 43.4627 164.023 43.4834C164.708 43.5034 165.415 43.7996 165.918 44.4043C166.097 44.6195 166.218 44.8388 166.302 45.0361C166.465 44.9942 166.653 44.9631 166.862 44.957C167.539 44.9374 168.236 45.1882 168.758 45.7168C168.814 45.7739 168.866 45.8328 168.913 45.8906C169.453 46.007 169.917 46.2889 170.257 46.6592C170.338 46.7477 170.409 46.8379 170.472 46.9277C170.536 46.9152 170.603 46.9053 170.673 46.8975C171.518 46.8025 172.376 47.1341 172.936 47.8154C172.944 47.8254 172.951 47.8358 172.959 47.8457C173.268 47.8425 173.618 47.8965 173.986 48.0547C174.809 48.408 175.181 49.0499 175.339 49.4316C175.562 49.4818 175.795 49.5675 176.027 49.6982C176.207 49.6094 176.438 49.5202 176.715 49.4707C177.356 49.3564 178.136 49.4793 178.784 50.0098C179.329 50.4556 179.533 50.9914 179.607 51.2344C179.617 51.2669 179.625 51.2994 179.634 51.3311C180.062 51.1309 180.919 50.8707 181.881 51.3545C182.909 51.8715 183.162 52.8163 183.213 53.0225C183.218 53.0437 183.222 53.0652 183.227 53.0859C183.957 53.7961 184.219 54.907 183.8 55.9023C183.512 56.5867 182.959 57.079 182.311 57.3125L182.019 57.4873L181.889 57.5596C181.731 57.6415 181.492 57.7447 181.188 57.8027C180.812 57.8742 180.236 57.8894 179.637 57.6123C179.394 57.6795 179.092 57.7267 178.745 57.6982C178.097 57.6449 177.543 57.3543 177.146 56.958C176.877 56.9289 176.59 56.8557 176.306 56.7178C176.224 56.6781 176.148 56.6338 176.075 56.5889C175.736 56.6345 175.338 56.6188 174.902 56.4668C174.82 56.4379 174.741 56.4053 174.666 56.3711C174.263 56.3766 173.816 56.2873 173.391 56.0518C173.145 55.9157 172.947 55.7527 172.788 55.5879C172.467 55.625 172.096 55.6053 171.692 55.4707C171.413 55.3775 171.18 55.2504 170.984 55.1074C170.966 55.104 170.948 55.1015 170.93 55.0977C170.318 54.9676 169.864 54.646 169.556 54.3018C169.33 54.3193 169.082 54.3097 168.815 54.252C167.567 53.9811 167.094 53.0291 166.932 52.5527C166.647 52.4001 166.393 52.1945 166.185 51.9463C166.142 51.8953 166.102 51.8439 166.065 51.793C165.651 51.8904 165.088 51.9171 164.467 51.6465C163.906 51.4017 163.553 51.0269 163.334 50.6787L163.152 50.6289L163.076 50.6074C162.74 50.7221 162.227 50.8221 161.621 50.6689C161.198 50.562 160.864 50.3706 160.603 50.1484C160.192 50.1459 159.703 50.0472 159.22 49.7295L158.983 49.5732L158.745 49.418C158.053 48.9631 157.789 48.3249 157.691 47.9814C157.608 47.6876 157.595 47.4361 157.595 47.2842C157.265 47.3729 156.547 47.4846 155.8 47.1152C155.513 47.1274 155.134 47.0938 154.725 46.9268C154.591 47.149 154.411 47.3772 154.159 47.584C153.826 47.8582 153.482 48.0113 153.158 48.0908L153.083 48.2451C152.92 48.5762 152.634 48.9723 152.163 49.2725C152.105 49.3096 152.046 49.3438 151.987 49.375C151.579 49.9414 150.919 50.3653 150.117 50.4297C149.79 50.4559 149.503 50.4148 149.273 50.3555C149.204 50.5377 149.104 50.7435 148.954 50.9502C148.553 51.502 147.92 51.9003 147.177 51.9854C147.086 51.9958 146.998 52.0001 146.913 52.001C146.473 52.3678 145.943 52.5592 145.423 52.5889C145.278 52.5971 145.141 52.5916 145.012 52.5781C144.972 52.65 144.928 52.7235 144.878 52.7969C144.392 53.5072 143.566 53.9396 142.673 53.9062C142.649 53.9053 142.625 53.9039 142.602 53.9023C142.391 54.1453 142.107 54.3817 141.721 54.5547C140.883 54.9298 140.143 54.7524 139.759 54.6064C139.55 54.7499 139.302 54.8719 139.012 54.9541C138.949 55.147 138.849 55.3796 138.684 55.6172C138.308 56.1573 137.662 56.6257 136.82 56.7041C136.118 56.7693 135.596 56.5307 135.375 56.4121C135.319 56.3821 135.266 56.35 135.216 56.3184C135.062 56.7319 134.618 57.592 133.505 57.9033C132.39 58.2149 131.563 57.6806 131.39 57.5645C131.37 57.5511 131.351 57.5369 131.332 57.5234C130.41 57.4903 129.538 56.9587 129.114 56.0693C128.754 55.3118 128.8 54.4654 129.166 53.7773L129.274 53.4355C129.323 53.2832 129.436 52.9693 129.691 52.6396C129.922 52.3427 130.325 51.9685 130.919 51.7754C131.049 51.5665 131.233 51.3353 131.496 51.127C131.969 50.7524 132.523 50.5824 133.048 50.5742H133.138C133.345 50.4167 133.592 50.2796 133.879 50.1846C133.953 50.16 134.027 50.139 134.099 50.1221C134.304 49.8586 134.59 49.5986 134.992 49.4033C135.064 49.3682 135.136 49.3367 135.207 49.3096C135.484 49.0213 135.855 48.7701 136.314 48.6318C136.565 48.5567 136.803 48.5271 137.019 48.5244C137.208 48.276 137.468 48.032 137.825 47.8379C138.074 47.7026 138.317 47.6181 138.548 47.5713C138.555 47.5658 138.563 47.5602 138.57 47.5547C139.057 47.2039 139.578 47.0797 140.029 47.0732C140.157 46.9065 140.316 46.7413 140.516 46.5908C141.519 45.8323 142.534 46.074 143.017 46.2637C143.304 46.1533 143.61 46.0958 143.918 46.0938C143.96 46.0935 144.002 46.094 144.042 46.0957C144.221 45.7223 144.537 45.2902 145.097 44.9785C145.615 44.69 146.111 44.6313 146.515 44.6611L146.613 44.583L146.633 44.5664C146.729 44.2272 146.937 43.7548 147.4 43.3467C147.698 43.0846 148.014 42.9222 148.318 42.8271C148.512 42.5379 148.796 42.2417 149.204 42.0186L149.366 41.9365L149.867 41.7051C150.631 41.3532 151.32 41.4766 151.648 41.5713C151.709 41.5888 151.766 41.61 151.82 41.6299C151.834 41.5988 151.847 41.5723 151.857 41.5508L152.047 41.166L152.122 41.0137L152.157 40.9619C152.192 40.8751 152.231 40.7885 152.276 40.7041C152.528 40.2328 152.906 39.8724 153.347 39.6426C153.359 39.6293 153.372 39.6157 153.386 39.6025C153.793 39.1986 154.293 38.9739 154.776 38.8955C155.014 38.857 155.234 38.8552 155.43 38.874C155.838 38.4303 156.378 38.1606 156.935 38.0771C157.075 37.5873 157.422 36.9243 158.196 36.5137L158.44 36.3848L158.684 36.2559L158.853 36.1738C158.999 36.1093 159.143 36.0644 159.277 36.0312C159.316 35.9622 159.359 35.8922 159.407 35.8223C159.926 35.07 160.746 34.7184 161.507 34.7168ZM38.4932 36.6475C39.2757 36.6475 39.9758 36.9994 40.4443 37.5527L40.7178 37.7744C40.8408 37.8742 41.0895 38.0923 41.3018 38.4463C41.4965 38.7712 41.7043 39.2962 41.6572 39.9395C41.8048 40.1417 41.9527 40.4052 42.0479 40.7354C42.2273 41.358 42.1517 41.9757 41.9238 42.4844C41.9916 42.7437 42.0245 43.0322 41.998 43.3428C41.9907 43.4285 41.9776 43.5111 41.9629 43.5908C42.1264 43.8879 42.2538 44.2611 42.2705 44.7168C42.2736 44.8016 42.2729 44.8842 42.2686 44.9639C42.4207 45.3358 42.5001 45.7803 42.4375 46.2598C42.4022 46.5302 42.3268 46.7679 42.2354 46.9717C42.3864 47.2522 42.504 47.5979 42.5303 48.0137C42.5484 48.3021 42.52 48.5618 42.4629 48.7939C42.4657 48.8077 42.4691 48.822 42.4717 48.8359C42.5455 49.2362 42.5156 49.6049 42.4316 49.9287C42.5662 49.931 42.7068 49.9436 42.8525 49.9697C42.9894 49.9943 43.1167 50.0296 43.2354 50.0703C43.4464 50.0004 43.6729 49.9559 43.9092 49.9434C44.023 49.9187 44.1427 49.9019 44.2676 49.8936C44.6324 49.7723 45.0713 49.7183 45.5762 49.8232C45.5903 49.8262 45.6043 49.8308 45.6182 49.834C46.0807 49.749 46.5734 49.7905 47.041 49.9805C47.0855 49.9643 47.1316 49.9488 47.1787 49.9346C47.7469 49.7627 48.2974 49.8064 48.7627 49.9688C49.1278 49.8467 49.5674 49.7927 50.0732 49.8975C50.422 49.9698 50.7086 50.1036 50.9395 50.2529C51.0952 50.2884 51.2388 50.3378 51.3701 50.3945C51.7154 50.099 52.2522 49.7925 53.0029 49.7861C53.4859 49.7821 53.882 49.9045 54.1973 50.0693C54.5004 50.1111 54.8011 50.2079 55.084 50.3643C55.1337 50.3917 55.1811 50.4211 55.2266 50.4502C55.2561 50.4569 55.2858 50.4622 55.3145 50.4697C55.6743 50.5014 55.9806 50.6083 56.2354 50.7422C56.8825 50.8871 57.3321 51.2681 57.5518 51.501L60.0723 52.0605L58.3652 54.7051C58.2734 54.9365 58.1491 55.1513 57.9971 55.3438C57.9911 55.3796 57.9835 55.4216 57.9736 55.4668C57.9618 55.5208 57.9335 55.6437 57.8789 55.7939C57.8648 55.8328 57.6968 56.3488 57.2119 56.7969C56.9164 57.0699 56.335 57.4682 55.5 57.4756C55.3691 57.4767 55.2438 57.4665 55.125 57.4502C54.9571 57.4672 54.7785 57.4692 54.5898 57.4482C54.5091 57.4804 54.4241 57.5107 54.334 57.5361C53.4696 57.7796 52.7176 57.5275 52.2256 57.2031H52.1826C51.7375 57.1985 51.3637 57.0821 51.0674 56.9336C50.8433 57.0204 50.592 57.0823 50.3193 57.0996C50.1569 57.2282 49.9518 57.3599 49.6992 57.4629C49.2935 57.6283 48.8542 57.6843 48.4238 57.6318C48.2192 57.6933 47.9945 57.7325 47.7529 57.7354C47.6134 57.7596 47.4648 57.7752 47.3066 57.7754C47.0293 57.7756 46.781 57.7318 46.5605 57.665C45.4155 57.9853 44.5182 57.4428 44.1084 57.0508C44.0903 57.0335 44.0737 57.0144 44.0566 56.9971C43.8623 56.9841 43.6826 56.9505 43.5176 56.9014C43.381 56.9065 43.2458 56.9009 43.1133 56.8848C42.9271 57.1021 42.6133 57.3961 42.1377 57.5898C41.6978 57.769 41.2552 57.8106 40.8457 57.7568C40.0672 57.8457 39.4224 57.562 39.0205 57.2588C38.9921 57.2374 38.9659 57.2141 38.9395 57.1924C38.7458 57.2998 38.5179 57.3944 38.2529 57.4531C37.9838 57.5127 37.7306 57.525 37.4971 57.5068C37.0511 57.6175 36.6214 57.599 36.2393 57.499C36.1042 57.5201 35.9644 57.5313 35.8203 57.5293C35.5329 57.6211 35.2015 57.6735 34.8359 57.6436C34.1722 57.5891 33.6894 57.2941 33.4053 57.0566C33.2651 56.9394 33.1502 56.8156 33.0557 56.6982C32.9875 56.6886 32.9189 56.6758 32.8496 56.6602C32.631 56.9006 32.3096 57.1667 31.8574 57.3369C31.6891 57.4003 31.5157 57.4442 31.3418 57.4707C31.3177 57.4786 31.2938 57.487 31.2695 57.4941C30.9239 57.6643 30.4821 57.7876 29.9707 57.7539C29.7199 57.7374 29.494 57.6845 29.2939 57.6143C29.0358 57.6765 28.7464 57.7002 28.4277 57.6611C28.0261 57.7823 27.595 57.8053 27.1738 57.7188C27.0163 57.7115 26.851 57.6906 26.6797 57.6494C26.4831 57.6021 26.3074 57.5354 26.1514 57.459C26.035 57.4819 25.9121 57.4988 25.7822 57.5059C25.5232 57.5199 25.2872 57.4959 25.0742 57.4482C24.762 57.628 24.3489 57.7792 23.8389 57.7861C23.4606 57.7912 23.1331 57.7147 22.8584 57.6045C22.5171 57.6721 22.1267 57.6749 21.6943 57.5557C21.5906 57.527 21.4933 57.4918 21.4014 57.4541C21.2092 57.4731 21.0201 57.4701 20.8369 57.4473C20.3929 57.6169 19.8546 57.684 19.2812 57.5352C19.0249 57.4686 18.8059 57.37 18.623 57.2617C18.1838 57.6021 17.4616 57.9533 16.498 57.7354C16.1178 57.6493 15.8128 57.4917 15.5732 57.3193C15.5585 57.314 15.543 57.3094 15.5283 57.3037C15.2584 57.3587 14.965 57.3757 14.6582 57.332C14.1729 57.2629 13.7956 57.068 13.5332 56.8809C13.4462 56.9495 13.3508 57.0172 13.2451 57.0791C12.7982 57.3408 12.1849 57.5124 11.501 57.3896C11.3932 57.3703 11.2914 57.3442 11.1953 57.3145C11.1944 57.3149 11.1933 57.315 11.1924 57.3154C10.9454 57.4927 10.6288 57.655 10.2314 57.7383C9.74657 57.8399 9.32421 57.7958 8.96973 57.6865C8.9348 57.6933 8.89945 57.7015 8.86328 57.707C8.2964 57.7929 7.81937 57.6858 7.44434 57.5166C7.29786 57.5511 7.13981 57.5747 6.9707 57.583C6.6268 57.5999 6.32404 57.552 6.06152 57.4678C6.01048 57.4682 5.95828 57.4674 5.90527 57.4648C5.69205 57.4546 5.49698 57.4204 5.31934 57.3701C4.50065 57.6882 3.75921 57.533 3.2207 57.2549C2.90875 57.287 2.57415 57.2634 2.23145 57.1611C1.54908 56.9574 1.15057 56.5347 0.983398 56.3301C0.800153 56.1058 0.696249 55.8989 0.646484 55.792C0.546052 55.5761 0.499493 55.3945 0.484375 55.334C0.475129 55.2969 0.469546 55.2609 0.462891 55.2285C0.17191 54.8144 5.06426e-05 54.3109 0 53.7666C0 53.3743 0.0885439 53.002 0.24707 52.6699L0.271484 52.5664L0.323242 52.3809C0.355917 52.2788 0.405154 52.1441 0.477539 52.001C0.526759 51.9036 0.757617 51.44 1.28125 51.0693C1.34678 51.023 1.42121 50.9772 1.50195 50.9316C1.58286 50.8448 1.67654 50.7546 1.78613 50.668C2.21125 50.3321 2.91007 50.0217 3.73438 50.1426C3.74249 50.1397 3.75059 50.1366 3.75879 50.1338C3.79252 50.1149 3.82641 50.0941 3.8623 50.0762C4.25748 49.8787 4.7153 49.7802 5.18359 49.8125C5.2489 49.7957 5.31659 49.7807 5.38672 49.7686C5.66883 49.7197 5.931 49.7209 6.1709 49.7539C6.28332 49.7512 6.39882 49.7544 6.5166 49.7676C6.52356 49.7684 6.53117 49.7697 6.53809 49.7705C7.13745 49.648 7.76401 49.7431 8.2998 50.043C8.44827 50.1261 8.5766 50.219 8.6875 50.3115C8.89786 50.197 9.1402 50.1009 9.40723 50.0469C9.85323 49.8237 10.4488 49.6832 11.168 49.8701L11.3711 49.9229L11.5449 49.9746C11.5893 49.9895 11.6328 50.0068 11.6748 50.0234C12.1896 49.8322 12.7962 49.7941 13.3984 50.001C13.5729 50.0609 13.7268 50.1362 13.8623 50.2158C14.4016 50.0983 14.921 50.1652 15.3594 50.3408C15.674 50.3067 15.9576 50.3311 16.21 50.3896C16.2424 50.3713 16.2761 50.3525 16.3105 50.335C16.3598 50.1471 16.4304 49.9623 16.5244 49.7852C16.5327 49.7696 16.5423 49.7544 16.5508 49.7393C16.4259 49.4508 16.3385 49.1016 16.3457 48.6914C16.3616 47.7877 16.8241 47.1978 17.1191 46.9092C17.08 46.6741 17.0722 46.4168 17.1113 46.1396C16.9624 46.0052 16.7946 45.8221 16.6465 45.5811C16.3044 45.0241 16.1334 44.2492 16.3965 43.4502C16.617 42.7807 17.0455 42.3973 17.2441 42.2412C17.2767 42.2156 17.3105 42.1928 17.3428 42.1699C17.0061 41.8467 16.4412 41.1314 16.5596 40.0439C16.684 38.9022 17.4803 38.3347 17.6553 38.2148C17.6735 38.2024 17.6921 38.1913 17.71 38.1797C18.1037 37.2781 19.0038 36.6476 20.0518 36.6475C20.8343 36.6475 21.5344 36.9994 22.0029 37.5527L22.2764 37.7744C22.3993 37.8741 22.648 38.0921 22.8604 38.4463C23.0551 38.7712 23.2639 39.2961 23.2168 39.9395C23.3644 40.1417 23.5123 40.4052 23.6074 40.7354C23.7868 41.358 23.7113 41.9757 23.4834 42.4844C23.5511 42.7437 23.5841 43.0323 23.5576 43.3428C23.5503 43.4285 23.5372 43.5111 23.5225 43.5908C23.686 43.8879 23.8134 44.2611 23.8301 44.7168C23.8332 44.8016 23.8325 44.8842 23.8281 44.9639C23.9803 45.3358 24.0596 45.7803 23.9971 46.2598C23.9617 46.5301 23.8864 46.7679 23.7949 46.9717C23.946 47.2522 24.0636 47.5979 24.0898 48.0137C24.108 48.3021 24.0796 48.5619 24.0225 48.7939C24.0252 48.8077 24.0287 48.822 24.0312 48.8359C24.1161 49.296 24.0658 49.715 23.9512 50.0713C24.1269 50.1257 24.2841 50.1929 24.4219 50.2686C24.4812 50.2429 24.5435 50.2186 24.6084 50.1963C24.9112 50.0924 25.218 50.0496 25.5146 50.0586C25.8974 50.0078 26.303 50.043 26.7021 50.1846C27.1869 49.8693 27.9069 49.642 28.7188 49.8447C29.2901 49.9875 29.6778 50.2897 29.9053 50.5166C30.2183 50.2956 30.6392 50.1021 31.1836 50.0625L31.3838 50.0479L31.5303 50.041C31.598 50.0396 31.6641 50.0415 31.7285 50.0449C32.079 49.843 32.5568 49.6744 33.1445 49.707C33.3699 49.7196 33.5754 49.7613 33.7598 49.8184C33.8732 49.8071 33.9916 49.8026 34.1152 49.8076C34.3988 49.7486 34.6875 49.7395 34.9688 49.7764C34.9758 49.7637 34.9843 49.7517 34.9912 49.7393C34.8664 49.4508 34.7789 49.1016 34.7861 48.6914C34.802 47.7875 35.2656 47.1977 35.5605 46.9092C35.5214 46.6741 35.5136 46.4169 35.5527 46.1396C35.4038 46.0051 35.2351 45.8222 35.0869 45.5811C34.7448 45.0241 34.5748 44.2492 34.8379 43.4502C35.0584 42.7808 35.4869 42.3973 35.6855 42.2412C35.7179 42.2158 35.7511 42.1927 35.7832 42.1699C35.4465 41.8466 34.8826 41.1313 35.001 40.0439C35.1255 38.9023 35.9217 38.3347 36.0967 38.2148C36.1149 38.2024 36.1335 38.1913 36.1514 38.1797C36.5451 37.278 37.445 36.6475 38.4932 36.6475ZM109.044 0C109.826 6.91381e-05 110.527 0.352018 110.995 0.905273L111.269 1.12695C111.392 1.22673 111.64 1.44493 111.853 1.79883C112.047 2.12375 112.255 2.64879 112.208 3.29199C112.356 3.49421 112.503 3.75775 112.599 4.08789C112.778 4.71054 112.703 5.32822 112.475 5.83691C112.542 6.09627 112.575 6.38478 112.549 6.69531C112.542 6.78107 112.528 6.8636 112.514 6.94336C112.677 7.24049 112.805 7.61365 112.821 8.06934C112.824 8.15415 112.824 8.23669 112.819 8.31641C112.971 8.68832 113.051 9.13285 112.988 9.6123C112.953 9.88262 112.878 10.1205 112.786 10.3242C112.937 10.6048 113.055 10.9502 113.081 11.3662C113.099 11.6546 113.071 11.9144 113.014 12.1465C113.016 12.1602 113.02 12.1745 113.022 12.1885C113.134 12.7914 113.014 13.324 112.819 13.7373C112.919 13.9322 113.003 14.1561 113.053 14.4131C113.293 15.6579 112.614 16.4637 112.234 16.8057C112.206 17.1191 112.12 17.4262 111.979 17.709C111.956 17.757 111.93 17.8025 111.904 17.8467C112.159 18.1807 112.406 18.6706 112.421 19.3281C112.434 19.9288 112.248 20.3984 112.028 20.7422L112.056 20.8945L112.064 20.9414C112.315 21.1907 112.63 21.6035 112.762 22.21C112.849 22.6123 112.833 22.9784 112.761 23.2988C112.94 23.6556 113.07 24.1197 113.018 24.6758L112.991 24.9541L112.965 25.2314C112.886 26.0621 112.439 26.5942 112.187 26.835C112.036 26.9789 111.887 27.0834 111.767 27.1582C112.012 27.4172 112.345 27.8754 112.446 28.5176C112.625 28.7564 112.815 29.0968 112.904 29.54C113.018 30.1035 112.931 30.6453 112.729 31.0928C112.621 31.33 112.488 31.5259 112.354 31.6855C112.506 32.3086 112.412 32.9431 112.138 33.4688L112.112 33.5176C112.435 33.9313 112.781 34.6422 112.619 35.5449L112.569 35.8223L112.521 36.1006C112.474 36.36 112.391 36.5893 112.294 36.7852L112.249 36.875C112.35 37.1034 112.428 37.3696 112.454 37.6758L112.462 37.7861L112.486 38.3418C112.527 39.238 112.104 39.8718 111.812 40.1885C111.535 40.4873 111.254 40.6488 111.125 40.7168H111.124L110.92 40.8242C110.928 40.8672 110.935 40.9109 110.94 40.9551L111.567 41.3506C111.708 41.4396 112.515 41.9491 112.717 43.0518C112.897 44.0389 112.491 44.7551 112.146 45.1621L112.181 45.4648C112.242 46.0076 112.133 46.4563 111.966 46.8125C111.972 47.0591 111.943 47.2949 111.887 47.5137C112.026 47.6001 112.195 47.7241 112.361 47.8936C112.717 48.2552 113.278 49.0822 113.038 50.2109C112.948 50.6321 112.77 50.9604 112.585 51.207C112.652 51.4336 112.694 51.6895 112.689 51.9727L112.687 52.1348L112.74 52.3154C113.051 53.3553 112.638 54.2271 112.242 54.6943C111.916 55.0792 111.559 55.2656 111.437 55.3271C111.371 55.3597 111.308 55.3872 111.249 55.4111C110.904 56.0003 110.328 56.4378 109.646 56.6025L109.493 56.6758H108.798C108.415 56.6756 108.125 56.5872 108.034 56.5586C107.907 56.5187 107.808 56.476 107.755 56.4521C107.648 56.4042 107.566 56.3587 107.532 56.3398L106.632 55.8301C106.544 55.7804 105.56 55.2552 105.366 53.998C105.247 53.2266 105.476 52.6346 105.75 52.2227C105.601 52.0022 105.462 51.7221 105.382 51.377L105.252 50.8203C105.099 50.1585 105.223 49.602 105.424 49.1768C105.422 48.9734 105.443 48.7555 105.499 48.5234C105.589 48.1482 105.75 47.852 105.91 47.6299C105.648 47.1987 105.435 46.5789 105.592 45.8076C105.708 45.2356 105.988 44.8295 106.237 44.5654C106.081 44.4705 105.908 44.3465 105.744 44.1816C105.438 43.8731 104.931 43.181 105.014 42.1758C105.051 41.7306 105.193 41.3701 105.359 41.0908C105.272 40.5263 105.383 39.9937 105.598 39.5635L105.736 39.2861L105.859 39.0381L105.969 38.7998L106.094 38.5293L106.036 38.4404L105.856 38.1621C105.522 37.6442 105.314 36.8924 105.545 36.0801C105.743 35.3859 106.171 34.9789 106.379 34.8076C106.463 34.7387 106.547 34.6802 106.628 34.6289C106.515 34.2176 106.491 33.732 106.66 33.1992L106.748 32.9219L106.8 32.7578C106.714 32.5648 106.646 32.344 106.61 32.0947C106.306 31.6705 106.034 31.0028 106.164 30.2012C105.91 29.9584 105.568 29.5326 105.431 28.8906C105.222 27.9125 105.62 27.1451 105.966 26.7266C105.851 26.5059 105.757 26.2453 105.71 25.9404C105.648 25.5319 105.684 25.1713 105.772 24.8623L105.698 24.7549C105.488 24.4484 105.282 24.001 105.254 23.4404C105.251 23.3819 105.251 23.3243 105.252 23.2676C104.959 22.6396 104.909 21.8648 105.237 21.1387C105.363 20.8602 105.524 20.6418 105.677 20.4736C105.558 20.334 105.436 20.1617 105.332 19.9521C105.031 19.3435 104.97 18.6026 105.237 17.9072C105.268 17.8271 105.302 17.7509 105.338 17.6797C105.218 17.1304 105.289 16.5823 105.494 16.1143C105.547 15.9933 105.608 15.8831 105.672 15.7822C105.63 15.7217 105.588 15.6577 105.549 15.5889C105.127 14.8451 105.1 13.921 105.516 13.1377C105.524 13.1221 105.534 13.107 105.542 13.0918C105.417 12.8033 105.33 12.4541 105.337 12.0439C105.353 11.14 105.816 10.5503 106.111 10.2617C106.072 10.0266 106.064 9.76942 106.104 9.49219C105.955 9.35769 105.786 9.17473 105.638 8.93359C105.296 8.37664 105.126 7.60173 105.389 6.80273C105.609 6.13342 106.037 5.74982 106.235 5.59375C106.268 5.56816 106.302 5.54536 106.334 5.52246C105.997 5.1992 105.433 4.48388 105.552 3.39648C105.676 2.2548 106.472 1.68722 106.647 1.56738C106.666 1.55498 106.684 1.54378 106.702 1.53223C107.096 0.630551 107.996 5.51043e-08 109.044 0ZM13.2539 54.3535L13.1729 54.3867L13.2666 54.3496L13.2539 54.3535ZM41.8857 53.8301H41.8867H41.8857ZM42.6162 53.7412L42.6182 53.7402L42.5225 53.7168L42.6162 53.7412ZM42.3594 53.6758V53.6748L42.3018 53.6602H42.3008L42.3594 53.6758ZM81.3125 6.51758C82.5597 6.27778 83.3677 6.9571 83.71 7.33594C84.0236 7.36455 84.3303 7.44983 84.6133 7.58984C84.6614 7.61366 84.7076 7.63961 84.752 7.66504C85.0865 7.41073 85.5768 7.16389 86.2354 7.14941C86.8371 7.13623 87.308 7.32184 87.6523 7.54102L87.8037 7.51367L87.8506 7.50488C88.1002 7.25434 88.5136 6.94001 89.1211 6.80859C89.5242 6.72147 89.8909 6.7385 90.2119 6.81055C90.5302 6.65107 90.934 6.53027 91.4121 6.54297L91.5918 6.55371L92.1484 6.60645C92.9799 6.68524 93.5127 7.1312 93.7539 7.38281C93.9988 7.63839 94.1336 7.88672 94.1934 8.00586C94.2408 8.10038 94.2769 8.19004 94.3057 8.26758L94.3564 8.29102L94.5928 8.40137L94.6924 8.45117C95.205 8.72201 95.9488 9.35268 96.0547 10.4736C96.0747 10.6862 96.0659 10.8838 96.041 11.0635C96.2933 11.2976 96.6977 11.7731 96.8252 12.4805C97.0089 12.7156 97.2079 13.0526 97.3066 13.4951C97.432 14.0568 97.3553 14.6011 97.1621 15.0527C97.0567 15.299 96.9234 15.5022 96.7881 15.667C96.9568 16.3018 96.8671 16.9508 96.5918 17.4863L96.5342 17.5977C96.8421 17.9957 97.1692 18.6749 97.0479 19.5205L97.0156 19.6992L96.8945 20.2637C96.838 20.5272 96.7442 20.762 96.6338 20.9629L96.5469 21.1211C96.6542 21.4069 96.7229 21.7479 96.7021 22.1436L96.6875 22.4277L96.6729 22.7109C96.6262 23.5978 96.1511 24.1905 95.8164 24.4873C95.5054 24.7631 95.2017 24.8967 95.0625 24.9521L94.7666 25.0693C94.7707 25.167 94.768 25.2671 94.7598 25.3691L95.3506 25.9961C95.4692 26.1221 96.1188 26.8143 96.0391 27.9277C95.9635 28.9834 95.329 29.5843 94.8896 29.876L94.8555 30.043L94.7969 30.3213C94.6779 30.8885 94.4106 31.2961 94.1191 31.5869C94.0081 31.9287 93.8337 32.2202 93.6309 32.457C93.7279 32.5976 93.8556 32.8101 93.9492 33.085C94.1074 33.5498 94.2776 34.5958 93.4951 35.5361C93.1818 35.9126 92.823 36.1309 92.5156 36.2588C92.4576 36.549 92.3431 36.8611 92.1377 37.1689L92.0098 37.3613L91.9336 37.5977C91.611 38.5964 90.8107 39.097 90.1963 39.2705C90.086 39.3016 89.9796 39.322 89.8799 39.3369C89.8808 39.3456 89.882 39.3545 89.8828 39.3633C89.9139 39.7043 89.9044 40.4173 89.3955 41.1074C88.9118 41.7632 88.263 42.0161 87.8008 42.1025C87.7537 42.3886 87.6514 42.7171 87.4414 43.0488C86.7551 44.1331 85.6408 44.2632 85.127 44.2324C85.1236 44.2322 85.1196 44.2317 85.1162 44.2314C84.8825 44.5369 84.5669 44.8091 84.1621 44.9951L84.0088 45.0596L83.7334 45.165L83.459 45.2715C83.2713 45.3436 83.0886 45.3884 82.917 45.4141L82.8232 45.6807C82.8177 45.6965 82.8117 45.7131 82.8057 45.7295L82.5625 46.3809C82.4463 46.6929 82.226 47.097 81.8184 47.4414C81.5743 47.6475 81.3077 47.7918 81.041 47.8887C81.0001 47.9312 80.9579 47.9742 80.9121 48.0156C80.1495 48.7059 79.296 48.7233 78.7754 48.6396C78.6028 48.7007 78.4335 48.7385 78.2715 48.7588C78.0318 48.9184 77.7685 49.0353 77.4932 49.1064C77.3379 49.5174 76.963 50.1923 76.1133 50.5586C76.0258 50.5963 75.9384 50.6259 75.8535 50.6523C75.8294 50.6902 75.8036 50.7286 75.7764 50.7666C75.5126 51.1345 75.0976 51.5023 74.5195 51.6982C73.9608 51.8874 73.4555 51.8464 73.1094 51.7646L72.7617 51.6826L72.4131 51.6006C72.0201 51.5076 71.7269 51.3396 71.5518 51.2197C71.4583 51.3394 71.2999 51.5226 71.0791 51.6904C70.9357 51.7994 70.3226 52.2554 69.4004 52.208C68.2539 52.1491 67.5829 51.411 67.29 50.8828L67.2363 50.7803L67.1865 50.6777L66.9336 50.1611L66.9316 49.9814C66.7187 48.9709 67.1371 47.8892 68.0615 47.3027L68.1104 47.2725L68.1494 47.2471C68.1527 47.2439 68.1559 47.2404 68.1592 47.2373L68.5264 46.8867C68.5518 46.7566 68.5913 46.6053 68.6543 46.4443C68.8103 46.0463 69.2605 45.2416 70.2979 44.9297C70.6697 44.818 71.0114 44.8041 71.3047 44.8359L71.3105 44.8291L71.4961 44.5967C71.7918 44.2257 72.2222 43.9003 72.7715 43.7383C72.8567 43.7131 72.9408 43.6941 73.0225 43.6787C73.1832 43.5629 73.3679 43.4583 73.5791 43.375C74.3137 43.0855 74.963 43.2095 75.3096 43.3223C75.3872 43.3475 75.461 43.3763 75.5303 43.4062C75.6654 43.3898 75.7941 43.386 75.9141 43.3896C75.9195 43.357 75.9245 43.323 75.9316 43.2891C76.0085 42.9221 76.2566 42.183 77.0361 41.6748C77.5428 41.3446 78.0507 41.257 78.4531 41.2607C78.6596 40.8411 79.0158 40.4055 79.5684 40.1182C79.6329 40.0846 79.6973 40.0549 79.7607 40.0283C79.8724 39.6506 80.105 39.1865 80.5596 38.8018C81.0599 38.3782 81.6127 38.2333 82.0254 38.2031C82.1881 38.1912 82.3404 38.1963 82.4795 38.2109C82.4852 37.9618 82.5289 37.6591 82.6572 37.334C82.9691 36.544 83.6148 36.0344 84.29 35.8291C84.389 35.799 84.4853 35.7774 84.5771 35.7607C84.608 35.7028 84.6414 35.648 84.6748 35.5947C84.7075 35.3192 84.7889 35.0166 84.9541 34.7051C85.26 34.1283 85.6897 33.7972 86.0908 33.6064C86.0928 33.4069 86.118 33.1868 86.1826 32.9531L86.3291 32.4248L86.3643 32.3076C86.549 31.7383 86.8805 31.3513 87.2207 31.0918C87.2975 30.9468 87.3933 30.8002 87.5107 30.6553C87.7003 30.4212 87.9082 30.2454 88.1143 30.1133C88.0573 29.65 88.1132 29.0799 88.4658 28.498C88.6897 28.1288 88.9664 27.8745 89.2256 27.7012C89.157 27.6206 89.0881 27.5315 89.0244 27.4326C88.7954 27.0767 88.4329 26.2909 88.7275 25.3154C88.8471 24.9199 89.0395 24.6129 89.2432 24.3799C89.2729 23.8551 89.4626 23.3887 89.7275 23.0244L90.0537 22.5752L90.2588 22.2607L90.1084 21.9941C89.8003 21.4458 89.6453 20.6745 89.9336 19.8779C90.1783 19.2024 90.6307 18.8277 90.8447 18.6738C90.9098 18.627 90.975 18.5859 91.0381 18.5488C90.9499 18.157 90.9461 17.7025 91.1084 17.209L91.2002 16.9326L91.2441 16.7969C91.1619 16.6131 91.0961 16.4038 91.0586 16.1689C90.7482 15.7496 90.4686 15.0918 90.5811 14.2959C90.5772 14.2923 90.5733 14.2878 90.5693 14.2842C90.4998 14.2936 90.428 14.301 90.3545 14.3047C90.2957 14.3076 90.2377 14.3076 90.1807 14.3066C89.5518 14.599 88.776 14.6488 88.0488 14.3213C87.7698 14.1955 87.5513 14.0347 87.3828 13.8818C87.2429 14.0006 87.0702 14.1229 86.8604 14.2266C86.2506 14.5275 85.5082 14.5884 84.8115 14.3213C84.7312 14.2905 84.6553 14.2563 84.584 14.2207C84.0338 14.34 83.4854 14.2696 83.0166 14.0645C82.8956 14.0115 82.7855 13.951 82.6846 13.8877C82.624 13.9295 82.5592 13.9708 82.4902 14.0098C81.7453 14.4306 80.8197 14.4582 80.0352 14.043C80.0196 14.0347 80.0044 14.026 79.9893 14.0176C79.7004 14.1422 79.3502 14.2289 78.9395 14.2217C78.0347 14.2057 77.4444 13.7437 77.1553 13.4492C76.9197 13.4883 76.6615 13.4961 76.3838 13.457C76.2491 13.6057 76.0657 13.774 75.8242 13.9219C75.2664 14.2634 74.4906 14.4335 73.6904 14.1709C73.0199 13.9507 72.6358 13.5226 72.4795 13.3242C72.4539 13.2917 72.4311 13.2578 72.4082 13.2256C72.0845 13.5617 71.3684 14.1259 70.2793 14.0078C69.136 13.8837 68.5676 13.0892 68.4473 12.9141C68.4347 12.8958 68.4228 12.8773 68.4111 12.8594C67.5081 12.4662 66.877 11.567 66.877 10.5205C66.8771 9.73939 67.2292 9.04099 67.7832 8.57324L68.0049 8.2998C68.1047 8.17714 68.3232 7.9288 68.6777 7.7168C69.0031 7.52236 69.5295 7.31439 70.1738 7.36133C70.3764 7.21399 70.6409 7.06669 70.9717 6.97168C71.5951 6.79268 72.2133 6.86731 72.7227 7.09473C72.9824 7.02706 73.2719 6.99507 73.583 7.02148C73.6688 7.02878 73.7513 7.04194 73.8311 7.05664C74.1287 6.89336 74.5025 6.76566 74.959 6.74902C75.0441 6.74593 75.1271 6.74661 75.207 6.75098C75.5795 6.59914 76.0247 6.51951 76.5049 6.58203C76.7757 6.61735 77.0137 6.69285 77.2178 6.78418C77.4988 6.63334 77.8443 6.51647 78.2607 6.49023C78.5499 6.47206 78.8103 6.50051 79.043 6.55762C79.0568 6.55483 79.0709 6.55044 79.085 6.54785C79.6888 6.43693 80.2218 6.55644 80.6357 6.75098C80.8309 6.65168 81.0552 6.56709 81.3125 6.51758ZM166.852 48.917L166.92 48.9873L166.835 48.8984L166.852 48.917ZM81.2979 44.0771L81.458 44.0586L81.5664 44.0459L81.2979 44.0771ZM83.3965 41.3711L83.2676 41.6445L83.4219 41.3184L83.3965 41.3711ZM160.724 39.4385L160.767 39.6357H160.768L160.724 39.4385ZM28.1094 0.400391C28.2516 0.412057 28.3854 0.43697 28.5107 0.467773C28.741 0.414964 28.9961 0.389185 29.2734 0.410156C30.0803 0.4713 30.614 0.883853 30.8662 1.12988C30.9241 1.18637 30.976 1.24478 31.0244 1.30176C31.3692 1.41243 31.6385 1.57889 31.8408 1.74121C31.8609 1.74508 31.8811 1.74856 31.9014 1.75293C31.9138 1.75562 31.9262 1.75984 31.9385 1.7627C32.0103 1.68671 32.096 1.60398 32.1963 1.52344C32.4612 1.31075 33.1854 0.827563 34.209 0.994141C35.0438 1.13004 35.5541 1.61274 35.8232 1.96094L35.9248 1.93359C36.402 1.80449 37.0329 1.78706 37.6689 2.08105C37.8948 2.18548 38.085 2.31204 38.2432 2.44531C38.3151 2.4229 38.3905 2.40159 38.4697 2.38477C38.8783 2.29805 39.4603 2.28353 40.0684 2.5625C40.6737 2.84037 41.0381 3.28746 41.2354 3.6416C41.4748 4.07187 41.536 4.48015 41.5518 4.70703C41.6955 4.76929 41.8304 4.84481 41.957 4.92969C41.9588 4.92925 41.9611 4.92817 41.9629 4.92773C42.1481 4.88278 42.7225 4.75909 43.4072 4.99707C44.3144 5.31259 44.8754 6.06099 45.0547 6.82422C45.1074 7.04902 45.1231 7.25735 45.1211 7.43652C45.2657 7.52511 45.4122 7.63438 45.5537 7.76953C45.7121 7.92093 45.84 8.07982 45.9434 8.24023C46.0589 8.30325 46.1776 8.37819 46.2939 8.46973C46.4349 8.29608 46.6107 8.12894 46.8291 7.97656L47.0332 7.83398L47.2363 7.69238L47.3613 7.61035C47.6434 7.43684 47.9199 7.34156 48.1553 7.29004C48.4368 7.06577 48.7936 6.88179 49.2383 6.79297C50.0209 6.63674 50.6294 6.88593 50.8828 7.0127L50.9688 7.05762L51.2832 7.22949L51.4395 7.31543L51.4668 7.33594C52.0022 7.58912 52.4533 8.02755 52.7109 8.61133C53.1338 9.56983 52.9171 10.6478 52.248 11.3711C52.2738 11.4281 52.3019 11.4963 52.3291 11.5732C52.3727 11.6969 52.481 12.0266 52.4736 12.4639C52.4655 12.9408 52.2967 13.8343 51.4473 14.4668C51.364 14.5288 51.2795 14.5827 51.1963 14.6309C50.8474 15.1936 50.2877 15.6085 49.624 15.7686C49.2229 15.8652 48.8718 15.8477 48.6201 15.8076C48.5447 16.0631 48.441 16.2722 48.3428 16.4307C48.6765 16.8487 49.0251 17.5346 48.8691 18.4502C48.6945 19.4746 47.9888 19.9892 47.8291 20.1025C47.7751 20.1408 47.7212 20.1747 47.6709 20.2051L47.8154 20.3066C47.8803 20.3524 47.991 20.4353 48.1143 20.5537C48.2158 20.6512 48.4565 20.8963 48.6445 21.2852C48.8493 21.7088 49.0774 22.5147 48.6875 23.4111C48.4639 23.9249 48.1252 24.2582 47.832 24.4678C47.8186 24.5406 47.8024 24.6156 47.7812 24.6914C47.6156 25.2865 47.2588 25.7444 46.8574 26.0469L46.5918 26.2461L46.3262 26.4463C46.3087 26.4595 46.2903 26.4738 46.2715 26.4873L45.749 26.8613C45.6344 26.9434 45.5181 27.0117 45.4053 27.0684C45.4035 27.0807 45.4014 27.093 45.3994 27.1055L45.3789 27.2188L45.3086 27.5557L45.2393 27.8936C45.1212 28.4621 44.7679 29.1357 44.0488 29.5654C43.4201 29.9411 42.8183 29.9431 42.5303 29.9199C42.3156 29.9026 42.125 29.858 41.9717 29.8105C41.6943 30.2483 41.2482 30.67 40.5586 30.877L40.2812 30.9609L40.0039 31.0439C39.993 31.0472 39.9815 31.0487 39.9707 31.0518C39.8126 31.2734 39.6006 31.4945 39.3154 31.6836C39.0632 32.143 38.5372 32.7419 37.6465 32.9463C37.5897 32.9593 37.5335 32.9687 37.4785 32.9775C37.3452 33.2864 37.0262 33.8584 36.3232 34.2285C35.3904 34.7195 34.5059 34.4972 34.0449 34.2812L33.8604 34.1943C33.6243 34.4025 33.311 34.6022 32.9023 34.7236C32.3983 34.8733 31.9507 34.8544 31.5752 34.7607L31.5488 34.7793L31.2588 34.9736C30.9639 35.1715 30.5334 35.3697 29.9912 35.4033C29.8677 35.411 29.7471 35.4076 29.6309 35.3984C28.9575 35.6889 28.1309 35.7025 27.3896 35.2979C27.0736 35.1252 26.8423 34.9128 26.6797 34.7246C26.619 34.7186 26.5589 34.7094 26.5 34.6992C26.3213 34.8166 26.0899 34.9374 25.8057 35.0195C25.1364 35.2129 24.3787 35.1326 23.7344 34.7275C23.6305 34.6622 23.5365 34.5932 23.4521 34.5225C22.8211 34.5338 22.2427 34.3134 21.8008 33.957C21.6137 33.8062 21.4654 33.6425 21.3477 33.4824C21.215 33.5258 21.0677 33.5635 20.9062 33.5859C20.5324 33.6379 20.0633 33.6168 19.5771 33.416C19.0895 33.2146 18.7388 32.8951 18.5068 32.585C18.4544 32.5148 18.407 32.4443 18.3652 32.375C17.9752 32.3636 17.5137 32.2622 17.0479 31.9551C16.1234 31.3456 15.9506 30.4336 15.9141 30.0879C15.6004 29.9405 15.2775 29.7094 14.999 29.3535C14.9028 29.2306 14.8236 29.1062 14.7578 28.9834C14.5353 28.9774 14.2014 28.9392 13.833 28.7842C13.1794 28.5091 12.5369 27.9038 12.332 26.9922C12.17 26.2708 12.3671 25.7027 12.4473 25.499C12.4887 25.3939 12.5355 25.2981 12.582 25.2129C12.5537 25.1369 12.5261 25.0582 12.5039 24.9756L12.4307 24.7031L12.3789 24.5059C12.3605 24.4963 12.341 24.4879 12.3223 24.4775C12.0675 24.3366 11.0419 23.6945 11.0059 22.3115C10.9744 21.0984 11.7681 20.4178 11.8955 20.3086C11.9179 20.2894 11.9409 20.2715 11.9629 20.2539C12.0403 19.9992 12.1581 19.7518 12.3203 19.5225C13.1343 18.3721 14.7286 18.0985 15.8809 18.9111L15.9824 18.9824L16.0352 19.0244L16.6328 19.4941C16.7526 19.5884 17.441 20.1452 17.585 21.1172C17.7236 21.2541 17.8615 21.4223 17.9834 21.627C18.2556 22.0842 18.3583 22.5746 18.3408 23.0293C18.3981 23.1214 18.4514 23.2198 18.499 23.3252C18.7127 23.456 18.9267 23.6323 19.124 23.8691C19.4489 24.0419 19.7595 24.2959 20.0059 24.6416C20.059 24.7162 20.1053 24.7917 20.1475 24.8662C20.3579 24.9264 20.5765 25.0202 20.7979 25.1572C20.9762 25.2676 21.1281 25.3892 21.2578 25.5166C21.6437 25.6751 21.9472 25.9091 22.1787 26.166C22.305 26.1685 22.4391 26.1804 22.5781 26.2051C23.7535 26.4142 24.2752 27.2363 24.4902 27.75C24.6902 27.8492 24.875 27.9735 25.04 28.1182C25.3901 27.9663 25.8477 27.8601 26.3965 27.9355C26.9313 28.0092 27.3378 28.2232 27.6367 28.4629C27.8989 28.2375 28.3064 27.9765 28.874 27.8799C29.1803 27.8278 29.4645 27.8338 29.7227 27.877C30.0406 27.7168 30.4413 27.5982 30.9229 27.6094L31.4385 27.6211C32.3108 27.6411 32.8793 28.0845 33.1035 28.2891L33.1045 28.29C33.2629 28.0954 33.4745 27.8924 33.75 27.7246C33.908 27.4778 34.1491 27.1929 34.5088 26.959C34.9868 26.6483 35.5163 26.5295 36 26.5479C36.1794 26.5547 36.3455 26.5793 36.4961 26.6152C36.844 26.3555 37.2478 26.1917 37.665 26.1318C37.8253 25.6775 38.1565 25.1305 38.8115 24.7578L39.2705 24.4961L39.4287 24.4131C39.5237 24.3674 39.6179 24.3308 39.708 24.2998C39.7787 24.1283 39.8732 23.9523 39.999 23.7773L40.3018 23.3545C40.841 22.6047 41.5867 22.3864 41.9658 22.3242C42.0378 22.3124 42.1071 22.3051 42.1729 22.2998C41.9334 22.0275 41.5203 21.4368 41.5352 20.5684C41.5493 19.7508 41.9082 19.1869 42.2715 18.8242C42.2693 18.7969 42.268 18.769 42.2666 18.7422C42.1109 18.8473 41.9323 18.9434 41.7275 19.0195C41.3218 19.1703 40.9398 19.1992 40.6094 19.1689C40.4829 19.2171 40.3467 19.2593 40.2002 19.2891C40.1143 19.3065 40.03 19.3177 39.9482 19.3262C39.321 19.712 38.6353 19.7711 38.0576 19.6445C37.87 19.6911 37.6704 19.7192 37.46 19.7207C37.1704 19.7228 36.9147 19.6741 36.6963 19.6074C36.4642 19.8947 36.0231 20.3134 35.3154 20.4873C35.055 20.5513 34.808 20.57 34.5791 20.5586C34.3311 20.8998 33.8717 21.3594 33.1094 21.5439C32.6031 21.6665 32.163 21.6273 31.7969 21.5186C31.5924 21.6087 31.3574 21.6828 31.0908 21.7168C30.4777 21.7948 29.9426 21.6413 29.5508 21.4297C29.1692 21.2236 28.91 20.957 28.748 20.75C28.6301 20.7636 28.506 20.771 28.376 20.7676C27.2463 20.738 26.6124 20.0226 26.4287 19.7881C26.4162 19.7721 26.4044 19.756 26.3926 19.7402C26.2779 19.7467 26.1582 19.7453 26.0332 19.7354L25.9502 19.8154L25.626 20.1299C25.4 20.3483 24.7763 20.8658 23.8047 20.8516L23.6191 20.8477L23.3848 20.9189C22.7596 21.1092 22.0295 21.0667 21.3799 20.7002C21.2601 20.6326 21.1527 20.5588 21.0566 20.4834L20.9385 20.498L20.6221 20.5371C20.1497 20.5958 19.6165 20.527 19.1143 20.2627C18.6365 20.0111 18.3357 19.6622 18.1611 19.3936C18.1455 19.3695 18.1326 19.3442 18.1182 19.3203C17.8336 19.3923 17.4504 19.4385 17.0078 19.3535C16.1974 19.1978 15.7037 18.7684 15.4043 18.3281C15.172 18.2837 14.9252 18.2037 14.6729 18.0684L14.084 17.7529C13.3057 17.3354 12.9008 16.6173 12.7803 15.9717C12.6961 15.5203 12.7549 15.1479 12.8018 14.9414C12.378 14.6076 11.9591 14.072 11.8506 13.291C11.8353 13.1811 11.8286 13.0744 11.8271 12.9727C11.5255 12.429 11.4373 11.8007 11.5615 11.2109L11.5889 11.083L11.5654 10.9561C11.4739 10.4565 11.5268 9.89232 11.79 9.3623C12.0363 8.86656 12.3869 8.55888 12.6416 8.38574C12.7944 8.28194 12.9456 8.20541 13.082 8.14746C13.1458 7.84788 13.2677 7.53318 13.4697 7.2373C13.4972 6.95189 13.5914 6.47094 13.9385 5.98926C14.3449 5.42538 14.9231 5.10019 15.4961 4.98145C15.7081 4.8129 15.9594 4.66988 16.252 4.57129C16.2967 4.34653 16.3958 4.00638 16.6289 3.65527C16.9751 3.13391 17.5508 2.70255 18.2646 2.5625C18.5531 2.33526 18.9201 2.1455 19.3613 2.06055C19.7584 1.74785 20.2995 1.50566 20.9648 1.51172C21.6633 1.51815 22.1623 1.80231 22.4053 1.97168L22.4932 2.03613L22.5332 2.06738C22.608 2.07459 22.6802 2.08473 22.75 2.09766C22.7991 2.00771 22.8589 1.91154 22.9307 1.81348C23.1833 1.4684 23.8179 0.812302 24.8896 0.768555C25.38 0.748594 25.7847 0.867816 26.0947 1.0166C26.1071 1.00969 26.1192 1.00191 26.1318 0.995117L26.6943 0.694336L26.8438 0.620117C27.2035 0.457224 27.6364 0.361641 28.1094 0.400391ZM174.132 0.577148C174.914 0.577155 175.614 0.929118 176.083 1.48242L176.356 1.7041C176.479 1.80383 176.728 2.02195 176.94 2.37598C177.135 2.70089 177.343 3.22587 177.296 3.86914C177.443 4.07134 177.591 4.33494 177.687 4.66504C177.866 5.28769 177.79 5.90537 177.562 6.41406C177.63 6.67344 177.663 6.9619 177.637 7.27246C177.629 7.35822 177.616 7.44075 177.602 7.52051C177.765 7.81763 177.893 8.19082 177.909 8.64648C177.912 8.73129 177.912 8.81385 177.907 8.89355C178.059 9.26543 178.14 9.71004 178.077 10.1895C178.042 10.4599 177.965 10.6976 177.874 10.9014C178.025 11.1819 178.143 11.5276 178.169 11.9434C178.187 12.2318 178.159 12.4915 178.102 12.7236C178.104 12.7374 178.108 12.7517 178.11 12.7656C178.222 13.3685 178.103 13.9011 177.908 14.3145C178.008 14.5094 178.092 14.7333 178.142 14.9902C178.382 16.2352 177.702 17.041 177.322 17.3828C177.294 17.6963 177.208 18.0034 177.067 18.2861C177.044 18.3341 177.018 18.3796 176.992 18.4238C177.247 18.7578 177.494 19.2478 177.509 19.9053C177.522 20.506 177.336 20.9756 177.116 21.3193L177.144 21.4717L177.152 21.5186C177.403 21.7679 177.718 22.1806 177.85 22.7871C177.937 23.1894 177.921 23.5555 177.849 23.876C178.028 24.2327 178.158 24.6968 178.105 25.2529L178.079 25.5312L178.053 25.8086C177.974 26.6392 177.526 27.1714 177.274 27.4121C177.124 27.556 176.975 27.6605 176.854 27.7354C177.1 27.9943 177.433 28.4525 177.534 29.0947C177.712 29.3335 177.903 29.6739 177.992 30.1172C178.106 30.6806 178.019 31.2224 177.816 31.6699C177.474 32.4281 176.878 32.7653 176.75 32.8379C176.539 32.9578 176.357 33.0214 176.276 33.0479L175.96 33.1494C175.496 33.6246 174.849 33.9209 174.132 33.9209C173.769 33.9209 173.423 33.8445 173.11 33.708L173.088 33.7031L172.587 33.4414C172.353 33.3191 171.755 32.9612 171.423 32.1826C171.207 31.6763 171.184 31.1926 171.252 30.7783C170.998 30.5355 170.656 30.1096 170.519 29.4678C170.31 28.4896 170.708 27.7222 171.054 27.3037C170.939 27.0831 170.844 26.8225 170.798 26.5176C170.736 26.1092 170.773 25.7494 170.861 25.4404L170.786 25.332C170.576 25.0257 170.37 24.579 170.342 24.0186C170.339 23.9599 170.34 23.9016 170.341 23.8447C170.048 23.2167 169.998 22.442 170.326 21.7158C170.452 21.4372 170.613 21.219 170.766 21.0508C170.647 20.9111 170.524 20.7389 170.42 20.5293C170.119 19.9206 170.059 19.1798 170.326 18.4844C170.357 18.4043 170.39 18.328 170.426 18.2568C170.306 17.7075 170.377 17.1595 170.582 16.6914C170.635 16.5704 170.696 16.4603 170.76 16.3594C170.718 16.2989 170.677 16.2348 170.638 16.166C170.216 15.4223 170.188 14.4982 170.604 13.7148C170.612 13.6992 170.621 13.6842 170.63 13.6689C170.505 13.3805 170.418 13.0312 170.425 12.6211C170.441 11.7172 170.904 11.1274 171.199 10.8389C171.16 10.6038 171.152 10.3465 171.191 10.0693C171.042 9.93482 170.874 9.75194 170.726 9.51074C170.383 8.95379 170.213 8.17888 170.477 7.37988C170.697 6.71049 171.126 6.32695 171.324 6.1709C171.357 6.14537 171.391 6.12247 171.423 6.09961C171.086 5.77639 170.521 5.06111 170.64 3.97363C170.764 2.83195 171.56 2.26437 171.735 2.14453C171.754 2.1321 171.772 2.12095 171.79 2.10938C172.184 1.20769 173.084 0.577148 174.132 0.577148ZM141.915 1.27637C143.135 0.827283 144.103 1.41865 144.48 1.74805C144.525 1.78671 144.566 1.82651 144.604 1.86523C145.102 1.74269 145.669 1.75936 146.224 1.99707L146.502 2.11523L146.779 2.23535C147.062 2.35651 147.29 2.51336 147.474 2.67773L147.617 2.63477L147.962 2.53027L148.155 2.48047L148.512 2.40137L148.867 2.32324L149.008 2.29688C149.623 2.19891 150.394 2.31487 151.03 2.83496C151.129 2.85474 151.232 2.87891 151.336 2.91309C152.351 3.2468 152.78 4.0241 152.949 4.50098C153.161 4.68085 153.322 4.88021 153.444 5.08105C153.799 5.29517 154.096 5.59221 154.31 5.94531C154.718 5.95639 155.613 6.08206 156.273 6.93457C156.385 7.07848 156.473 7.22474 156.544 7.36816C156.649 7.40683 156.757 7.45497 156.867 7.51367C157.275 7.73182 157.68 8.09261 157.943 8.61523C158.196 9.11663 158.233 9.59633 158.21 9.93359L158.186 10.3066L158.16 10.6797C158.121 11.2598 157.894 11.6736 157.78 11.8574C157.805 11.9399 157.823 12.0229 157.839 12.1045C158.358 12.5333 158.868 13.3245 158.754 14.3545C158.732 14.5543 158.688 14.7351 158.633 14.8965C158.792 15.1291 158.932 15.4159 159.012 15.7656C159.053 15.9476 159.073 16.1211 159.078 16.2852C159.272 16.5657 159.467 16.9665 159.517 17.4883C159.545 17.7857 159.521 18.0588 159.464 18.3047C159.602 18.5449 159.745 18.8845 159.789 19.3135C159.858 19.9851 159.655 20.6135 159.3 21.0928C159.27 21.1325 159.24 21.1705 159.209 21.207C159.223 21.5589 159.168 21.9466 158.997 22.334C158.923 22.5017 158.834 22.649 158.741 22.7803C158.794 23.1741 158.766 23.6563 158.524 24.1758C158.46 24.3151 158.387 24.4408 158.309 24.5547C158.262 24.9783 158.103 25.447 157.77 25.8662C157.489 26.2179 157.162 26.4395 156.875 26.5771C156.839 26.9685 156.705 27.4356 156.354 27.8896C156.124 28.1876 155.868 28.3978 155.61 28.5459C155.571 28.61 155.528 28.6752 155.48 28.7393C154.997 29.3861 154.339 29.6502 153.829 29.7314C153.707 30.0346 153.51 30.3614 153.186 30.6572C152.124 31.6257 150.919 31.2865 150.599 31.1738C150.234 31.3578 149.821 31.4567 149.392 31.4473C149.219 31.4435 149.06 31.4213 148.916 31.3906C148.854 31.4248 148.792 31.4562 148.731 31.4844C148.461 31.8547 147.984 32.31 147.199 32.4756C146.524 32.6179 145.97 32.4713 145.579 32.2852C145.569 32.2881 145.559 32.2921 145.549 32.2949L145.397 32.3311L144.823 32.4541C144.819 32.455 144.814 32.4552 144.81 32.4561C144.545 32.703 144.109 33.0073 143.481 33.1113C142.914 33.2053 142.433 33.1063 142.048 32.9355C141.608 33.0928 141.025 33.1696 140.383 32.958L140.087 32.8613L139.791 32.7627C139.049 32.5177 138.62 32.012 138.409 31.666C138.209 31.3369 138.13 31.038 138.097 30.8877C138.091 30.8628 138.086 30.8385 138.081 30.8145C137.945 30.7403 137.82 30.6564 137.708 30.5664C137.672 30.5787 137.635 30.5923 137.597 30.6035C137.256 30.7029 136.441 30.8453 135.621 30.377C135.318 30.3783 134.902 30.3259 134.462 30.1055C133.942 29.8448 133.563 29.4357 133.334 28.9893C133.158 28.646 133.086 28.3161 133.062 28.0459C133.045 28.0374 133.028 28.0295 133.011 28.0205C132.311 27.6524 131.875 27.0178 131.716 26.3623L131.639 26.0449L131.6 25.8828L131.369 25.793C130.847 25.5896 130.146 25.1012 129.855 24.1768L129.672 23.5947C129.585 23.3191 129.552 23.0482 129.555 22.7969L129.558 22.4707L129.56 22.3379C129.298 22.0802 129.049 21.7241 128.908 21.2363L128.825 20.9502L128.743 20.6641C128.503 19.8292 128.74 19.1153 128.978 18.6973C129.193 18.319 129.453 18.0873 129.575 17.9863L129.966 17.6641C129.914 17.4751 129.885 17.2849 129.877 17.0967L129.502 16.7393L129.119 16.374C128.989 16.2503 128.305 15.5924 128.327 14.4756C128.35 13.3385 129.045 12.6912 129.46 12.4082C129.466 12.3798 129.471 12.3508 129.479 12.3223L129.623 11.7559L129.657 11.6328C129.82 11.0966 130.114 10.7202 130.422 10.458C130.609 9.99384 130.91 9.64175 131.226 9.39648C131.159 9.26046 131.038 8.98209 130.99 8.61426C130.93 8.15031 130.952 7.01817 131.997 6.24023C132.442 5.90888 132.897 5.78797 133.249 5.75C133.399 5.42314 133.641 5.08946 134.024 4.79785L134.266 4.61426L134.268 4.6123L134.276 4.60156L134.476 4.35742C135.102 3.58903 135.985 3.37332 136.651 3.42383C136.919 3.44412 137.148 3.50417 137.326 3.56836C137.354 3.47553 137.387 3.37753 137.431 3.27832C137.562 2.97935 137.917 2.33899 138.723 1.97754C139.595 1.5861 140.39 1.78631 140.818 1.97852C140.835 1.98585 140.85 1.99439 140.866 2.00195C141.089 1.74472 141.426 1.45638 141.915 1.27637ZM91.4912 31.8779L91.4941 32.1816L91.4912 31.8613V31.8779ZM109.744 31.6934L109.987 31.6816L110.345 31.6641L109.744 31.6934ZM142.951 8.34863C142.849 8.45865 142.73 8.56855 142.589 8.67188C141.929 9.15663 141.143 9.25727 140.479 9.09863C140.444 9.09018 140.41 9.07795 140.376 9.06836C140.246 9.26552 140.078 9.46412 139.855 9.64551C139.441 9.9833 139.013 10.1365 138.63 10.1924C138.588 10.2975 138.538 10.4058 138.477 10.5146L138.222 10.9639C137.906 11.5191 137.478 11.8363 137.073 12.0186C136.991 12.109 136.901 12.1983 136.798 12.2842C136.63 12.4247 136.458 12.5328 136.289 12.6162C136.269 13.0279 136.148 13.4955 135.821 13.9541C135.675 14.1598 135.513 14.3239 135.35 14.4561C135.611 14.7961 136.017 15.5093 135.843 16.4697C135.779 16.8238 135.65 17.1167 135.502 17.3555C135.529 17.8078 135.433 18.2367 135.261 18.6006L135.137 18.8633L135.072 18.998C135.587 19.3936 136.019 20.0445 136.067 20.8721C136.107 21.5569 135.864 22.061 135.734 22.2871C135.927 22.5187 136.092 22.8036 136.201 23.1523L136.283 23.4189C136.388 23.4715 136.494 23.5343 136.6 23.6084C137.037 23.6694 137.539 23.8568 137.968 24.2461C138.286 24.1907 138.71 24.1791 139.184 24.3301C139.932 24.5688 140.386 25.0682 140.643 25.5332C140.777 25.5337 140.918 25.5446 141.065 25.5693C141.306 25.6099 141.52 25.6795 141.709 25.7656C142.016 25.6304 142.405 25.53 142.853 25.5498C143.447 25.3256 144.151 25.3115 144.812 25.6104C144.899 25.6495 144.979 25.693 145.055 25.7373C145.069 25.7252 145.083 25.7113 145.098 25.6992C145.599 25.2894 146.272 25.0616 146.984 25.1367C147.003 25.1387 147.022 25.1412 147.04 25.1436C147.41 24.9534 147.809 24.8646 148.195 24.8623C148.54 24.2787 149.113 23.8434 149.797 23.6787C149.904 23.4917 150.043 23.3028 150.225 23.124C150.754 22.6032 151.356 22.4453 151.771 22.4043C151.779 22.3922 151.788 22.3803 151.796 22.3682C151.745 22.2147 151.701 22.0354 151.68 21.834C151.614 21.2205 151.768 20.4994 152.277 19.9043C152.537 19.601 152.823 19.4077 153.068 19.2842C152.915 18.9711 152.795 18.5707 152.813 18.0957C152.644 17.7669 152.54 17.3893 152.53 16.9883C152.345 16.582 152.241 16.0777 152.342 15.502C152.396 15.1926 152.499 14.9306 152.616 14.7168C152.24 14.4723 151.824 14.0672 151.599 13.417C151.521 13.1926 151.479 12.9783 151.464 12.7783C151.04 12.5582 150.648 12.2044 150.387 11.7148C150.375 11.6928 150.365 11.6694 150.354 11.6475C150.244 11.5512 150.137 11.4407 150.036 11.3145C149.559 10.7157 149.476 10.0779 149.479 9.7041C149.48 9.69435 149.48 9.68447 149.48 9.6748C149.081 9.75959 148.495 9.78776 147.865 9.49414C147.448 9.29958 147.149 9.02876 146.938 8.75977C146.562 8.8121 146.134 8.78726 145.695 8.62402C145.377 8.78531 144.957 8.9164 144.457 8.90039C143.804 8.8794 143.294 8.6175 142.963 8.3584C142.959 8.35525 142.955 8.3518 142.951 8.34863ZM132.544 25.3623L132.963 25.2949L133.382 25.2266L132.544 25.3623ZM93.1387 20.2959L94.2656 19.665L94.3496 19.6172L93.1387 20.2959ZM24.5605 7.30078C24.0873 7.65846 23.4328 7.90032 22.6768 7.7998C22.5987 7.78942 22.5241 7.77399 22.4521 7.75781C22.2989 7.88194 22.1195 7.99962 21.9082 8.09668C21.6411 8.21932 21.3829 8.28549 21.1406 8.31445C21.0566 8.62746 20.778 9.41839 19.8936 9.89941L19.6709 10.0215L19.4463 10.1426C19.1866 10.2838 18.9326 10.3666 18.6943 10.4111C18.6677 10.6531 18.6057 10.8914 18.5107 11.1182C18.6738 11.3017 18.8164 11.5153 18.9268 11.7588C19.0218 11.9685 19.0787 12.1712 19.1123 12.3574C19.3121 12.503 19.4735 12.6667 19.6055 12.833L19.7529 12.8027L20.0469 12.7402L20.2334 12.709C20.6794 12.6492 21.195 12.6985 21.6982 12.9443C22.2399 13.2089 22.5633 13.6009 22.7393 13.8809C23.0475 14.3714 23.1011 14.8334 23.1133 14.9346C23.1171 14.9665 23.1176 14.998 23.1201 15.0283C23.1697 14.9606 23.2305 14.8851 23.3027 14.8066C23.4434 14.6538 23.7536 14.3511 24.2539 14.1553L24.8154 13.9355C25.3861 13.7123 26.0009 13.7071 26.5547 13.8906C26.7177 13.8746 26.8919 13.8731 27.0771 13.8916C27.5698 13.9409 27.9582 14.1131 28.2549 14.3154C28.344 14.328 28.4304 14.3448 28.5127 14.3652C28.7996 14.3095 29.1165 14.299 29.4541 14.3604C30.0781 14.4738 30.5055 14.785 30.749 15.0137L30.8418 15.1055L31.4004 15.6865L31.4746 15.5908L31.9531 15.001C32.2002 14.6968 32.7046 14.23 33.5088 14.0928C33.579 14.0808 33.6482 14.0734 33.7158 14.0674C34.0304 13.7638 34.5286 13.4382 35.2139 13.3623C35.7951 13.298 36.2743 13.4396 36.6113 13.6025C36.9132 13.4547 37.275 13.3537 37.6973 13.3486C37.7025 13.3486 37.7077 13.3487 37.7129 13.3486C38.0251 12.9398 38.5391 12.5103 39.3604 12.3926C39.657 12.1989 39.9518 12.0864 40.2334 12.0303C39.9733 11.9325 39.6947 11.7797 39.4297 11.542C39.1003 11.2464 38.894 10.9116 38.7676 10.5957C38.6605 10.577 38.549 10.5504 38.4355 10.5146C37.4546 10.2054 36.9921 9.46886 36.7979 8.93262C36.5822 8.85698 36.3655 8.74873 36.1572 8.59863L36.0215 8.49414L35.8027 8.31348L35.585 8.13379C35.5366 8.09388 35.4905 8.05296 35.4473 8.01172L35.2578 8.10059L34.959 8.23926C34.6345 8.38975 34.1669 8.52122 33.6104 8.46191C33.3757 8.43687 33.1588 8.38065 32.9619 8.30469C31.9879 8.34899 31.3325 7.87623 30.9629 7.47461C30.8946 7.44922 30.8292 7.42046 30.7666 7.39062C30.6002 7.39053 30.4348 7.3745 30.2734 7.34277C29.9404 7.63708 29.3677 7.99534 28.5605 7.99023C28.5297 7.99002 28.4989 7.98756 28.4688 7.98633C28.1111 8.24223 27.603 8.46537 26.9824 8.46582C26.3677 8.46622 25.8859 8.2493 25.5762 8.0459L25.001 7.66797C24.8187 7.54817 24.6733 7.41786 24.5605 7.30078ZM130.89 13.6025L130.746 13.3398L130.599 13.0732L130.89 13.6025ZM19.3789 5.73633L19.3643 6.23535L19.3809 5.69141L19.3789 5.73633Z" fill="var(--fill-0, white)"/>
</svg>
