<svg preserveAspectRatio="none" width="100%" height="100%" overflow="visible" style="display: block;" viewBox="0 0 134.15 144.791" fill="none" xmlns="http://www.w3.org/2000/svg">
<g id="Group 62360">
<g id="Group 62353">
<path id="Ellipse 6" d="M125.729 90.7425C125.729 107.066 117.157 144.791 67.1795 144.791C20.9602 144.791 8.63029 108.62 8.63029 90.7425C8.63029 74.1605 34.8437 64.574 67.1795 64.574C99.5153 64.574 125.729 73.6423 125.729 90.7425Z" fill="var(--fill-0, #1F2933)"/>
<path id="Ellipse 4" d="M67.0753 54.819C84.9023 54.819 100.398 57.8624 111.138 63.2575C121.79 68.6086 126.65 75.5538 126.65 83.5465C126.65 90.9324 121.875 97.9194 111.079 103.463C100.311 108.991 84.8118 112.274 67.0753 112.274C49.1559 112.274 33.6657 109.472 22.9532 104.21C12.4447 99.047 7.50007 92.1483 7.50006 83.5465C7.50006 75.9586 12.3039 68.9852 23.0518 63.5065C33.8103 58.0224 49.3087 54.819 67.0753 54.819Z" stroke="var(--stroke-0, #4B5563)" stroke-width="15"/>
<path id="Union" d="M67.1795 32.2648C92.5695 32.2648 113.535 39.8015 116.716 54.0822L121.713 65.381C124.305 69.2017 125.728 73.5757 125.728 78.4864C125.728 98.6222 99.4681 110.768 67.075 110.768C34.6818 110.768 8.42204 100.54 8.42166 78.4864C8.42166 73.7123 9.85189 69.4077 12.4568 65.6144L17.7156 53.879C21.1309 40.1156 41.9756 32.2648 67.1795 32.2648Z" fill="var(--fill-0, #1F2933)"/>
<path id="Ellipse 3" d="M67.0753 39.0805C81.4072 39.0805 93.7623 41.3521 102.233 45.2944C110.741 49.2545 113.771 53.9941 113.771 58.6996C113.771 62.9371 110.83 67.7127 102.176 71.8295C93.6808 75.8705 81.3234 78.3178 67.0753 78.3178C52.658 78.3178 40.3075 76.225 31.8605 72.3803C23.4972 68.5737 20.3801 63.875 20.38 58.6996C20.38 54.3063 23.3503 49.5422 31.9562 45.4779C40.4428 41.47 52.7994 39.0805 67.0753 39.0805Z" stroke="var(--stroke-0, #4B5563)" stroke-width="15"/>
<path id="Ellipse 7" d="M113.402 57.2959C113.402 70.1823 92.7073 77.955 67.1794 77.955C41.6516 77.955 20.9572 71.4096 20.9572 57.2959C20.9572 44.2051 41.6516 36.6369 67.1794 36.6369C92.7073 36.6369 113.402 43.796 113.402 57.2959Z" fill="var(--fill-0, #1F2933)"/>
<path id="Intersect" d="M67.1794 42.228C90.841 42.228 110.349 48.3792 113.075 60.0288C110.358 71.2726 90.8477 77.9546 67.1794 77.9546C43.4678 77.9546 23.9259 72.3079 21.2654 60.1938C23.912 48.7644 43.4573 42.2281 67.1794 42.228Z" fill="var(--fill-0, #FF5A3C)"/>
</g>
<ellipse id="Ellipse 12" cx="68.0407" cy="59.912" rx="35.5467" ry="9.36523" fill="var(--fill-0, #F2472A)"/>
<g id="&#235;&#145;&#144;&#235;&#182;&#128;">
<path id="Vector 4" d="M80.4304 57.9586L66.0006 51.585C65.6383 51.425 65.4046 51.0663 65.4046 50.6703V48.8734C65.4046 48.539 65.5717 48.2268 65.8499 48.0413L75.2004 41.8076C75.4036 41.6722 75.6492 41.6158 75.8911 41.649L88.8421 43.4266C89.2917 43.4883 89.6434 43.8451 89.6987 44.2955L90.262 48.8889C90.3005 49.2029 90.1882 49.5166 89.9591 49.7347L81.5241 57.768C81.2316 58.0467 80.8 58.1219 80.4304 57.9586Z" fill="var(--fill-0, #FFD1C9)"/>
<path id="Vector 5" d="M89.9107 65.6073L81.9055 56.1743C81.7522 55.9936 81.668 55.7642 81.668 55.5272V51.9636C81.668 51.2727 82.352 50.7899 83.003 51.0214L91.283 53.9651L105.949 58.2209C106.461 58.3693 106.766 58.8926 106.644 59.411L106.227 61.1785C106.143 61.5343 105.871 61.816 105.519 61.9129L90.9384 65.9244C90.5633 66.0276 90.1624 65.9039 89.9107 65.6073Z" fill="var(--fill-0, #FFD1C9)"/>
<path id="Vector 3" d="M98.4735 47.6944L106.61 57.5244C107.082 58.0948 106.792 58.9625 106.072 59.1347L91.884 62.5265C91.504 62.6173 91.1059 62.4786 90.8648 62.1713L82.6268 51.6738C82.1642 51.0844 82.4902 50.2145 83.2262 50.0741L97.5159 47.3497C97.8741 47.2814 98.241 47.4135 98.4735 47.6944Z" fill="var(--fill-0, #FFEDEA)"/>
<path id="Vector 2" d="M76.0563 38.9775L88.4848 42.8053C89.1857 43.0212 89.4235 43.8932 88.9292 44.435L80.6877 53.4681C80.4137 53.7684 79.9851 53.873 79.6036 53.7326L66.9039 49.0587C66.211 48.8037 66.0239 47.9114 66.5561 47.3995L75.0688 39.2125C75.3308 38.9605 75.7089 38.8705 76.0563 38.9775Z" fill="var(--fill-0, #FFEDEA)"/>
</g>
<g id="Group 62354">
<path id="Vector 7" d="M33.1459 50.8205L45.279 43.2709C46.1418 42.1923 48.5146 42.1385 49.7009 42.462C50.8873 42.7856 50.6716 42.9473 53.0443 42.462C55.417 41.9767 57.7358 42.2463 58.7604 43.2709C59.7849 44.2954 60.486 44.3494 61.9419 44.3494C63.1067 44.3494 63.5417 45.4998 63.6136 46.075C66.0762 46.8659 70.4945 49.3213 68.4669 52.8157C66.4393 56.31 55.7585 64.805 50.6716 68.6157C44.4162 65.5061 31.6791 58.6827 30.7732 56.2669C29.8672 53.851 31.9775 51.6293 33.1459 50.8205Z" fill="var(--fill-0, #FF7F6B)"/>
<path id="Vector 6" d="M33.3201 53.0295C31.5958 53.3101 28.9505 55.9702 27.637 57.4975C27.485 57.6743 27.3928 57.9035 27.4498 58.1296C27.516 58.3922 27.6426 58.6072 27.7463 58.7411C27.7988 58.8089 27.8657 58.8589 27.9398 58.9021C35.9152 63.5515 51.5771 71.8799 51.28 68.4846C50.9069 64.2212 45.3644 57.1331 44.4584 57.1331C43.5524 57.1331 40.7279 53.5624 39.9818 53.0295C39.2357 52.4965 35.6117 52.6564 33.3201 53.0295Z" fill="var(--fill-0, #F2472A)"/>
<path id="Vector 11" d="M29.5094 59.7153C30.8417 57.7265 35.0666 54.4584 39.9786 57.8876C44.8907 61.3168 47.4469 66.5312 48.2771 68.6358" stroke="var(--stroke-0, #FF5A3C)" stroke-width="2" stroke-linecap="round"/>
<path id="Vector 12" d="M32.4939 61.7258C34.0084 59.7847 38.1381 58.0397 42.5409 66.5893" stroke="var(--stroke-0, #FF5A3C)" stroke-width="2" stroke-linecap="round"/>
<path id="Vector 8" opacity="0.6" d="M41.7889 53.5468C42.1054 53.9496 51.1292 47.0001 55.6016 43.475C56.8774 42.4734 52.688 43.0794 49.2708 45.7052C45.8536 48.3311 41.3932 53.0432 41.7889 53.5468Z" fill="var(--fill-0, #FFAB9E)"/>
<path id="Vector 13" d="M47.8982 58.3942C48.7522 58.3942 58.1506 51.1751 62.743 47.5656C63.9632 45.6846 60.2519 46.1929 59.7435 47.0063C59.2351 47.8197 47.8982 55.598 47.0847 56.4115C46.2713 57.2249 46.8305 58.3942 47.8982 58.3942Z" fill="var(--fill-0, #FF654E)"/>
<path id="Vector 9" opacity="0.6" d="M61.2849 49.4102C60.2489 49.5253 58.9588 50.0816 58.4432 50.3454C57.3161 50.873 55.3569 51.5684 56.5368 50.1296C58.0116 48.3311 60.3856 48.1512 61.7525 48.2232C63.1194 48.2951 62.5798 49.2663 61.2849 49.4102Z" fill="var(--fill-0, #FFAB9E)"/>
<path id="Vector 10" opacity="0.6" d="M50.8534 52.7914C51.8318 52.331 55.9433 52.5417 57.7957 52.3238C59.6481 52.1059 63.3712 49.59 63.587 50.3094C63.8028 51.0288 60.4935 53.5468 57.7957 53.8346C55.0979 54.1223 49.6304 53.3669 50.8534 52.7914Z" fill="var(--fill-0, #FFAB9E)"/>
</g>
<path id="Vector 17" d="M92.9977 61.9227C92.9977 60.9129 92.2514 58.2348 92.2514 57.5762L83.1194 59.1129L62.4407 67.9815C62.5138 68.7278 62.7304 70.4489 63.0114 71.3621C63.3627 72.5036 63.9773 73.2938 65.031 73.8207C66.0847 74.3475 69.597 74.2158 75.2167 74.9183C80.8364 75.6207 81.5388 74.4353 83.7779 74.2158C86.017 73.9963 91.7684 65.5229 92.0319 65.2594C92.2953 64.996 92.9977 62.9325 92.9977 61.9227Z" fill="var(--fill-0, #D93A20)"/>
<path id="Vector 14" d="M73.4403 53.5704C74.0994 52.4045 73.7149 51.2259 73.4403 50.7824C73.4403 46.9171 87.7608 53.5704 90.8023 55.6615C93.8439 57.7525 92.0063 58.8297 90.3588 61.998C88.7113 65.1663 81.2342 73.1502 78.763 73.4037C76.2917 73.6572 64.3791 70.0454 62.8584 68.9048C61.3376 67.7642 63.9356 65.293 65.7098 63.3287C67.484 61.3643 70.4622 60.7307 72.0463 57.6258C73.6304 54.5209 72.6166 55.0278 73.4403 53.5704Z" fill="var(--fill-0, #FFAB9E)"/>
<path id="Intersect_2" d="M70.3289 59.8409C74.3539 60.5973 80.864 63.0248 84.9861 68.6719C84.289 69.3851 83.5818 70.0698 82.8972 70.6856C81.9895 68.5102 79.9447 65.4633 76.7351 65.42C73.2434 65.3727 69.1549 63.3565 67.2683 62.0167C68.2587 61.3335 69.3549 60.7197 70.3289 59.8409ZM73.7244 52.8448C79.2494 53.2602 88.0135 55.0525 91.5896 59.9004C91.2252 60.4949 90.7864 61.1765 90.3591 61.9981C90.1444 62.4111 89.8291 62.9052 89.4402 63.4542C86.6675 61.3982 81.0131 58.3594 72.5545 56.5528C73.3888 54.6212 72.7275 54.8313 73.4402 53.5704C73.5778 53.327 73.6673 53.0825 73.7244 52.8448Z" fill="var(--fill-0, #FFD1C9)"/>
<path id="Intersect_3" d="M85.0655 73.5581C84.5723 73.9395 84.1319 74.1805 83.7784 74.2153C83.5138 74.2413 83.2704 74.2814 83.0381 74.3296C82.9848 72.8568 82.918 70.9526 82.918 70.7329L85.0655 68.7105V73.5581ZM91.6084 65.8267C91.1783 66.42 90.4608 67.4115 89.6182 68.5103L89.46 63.3735L91.6084 59.9673V65.8267Z" fill="var(--fill-0, #FF7F6B)"/>
<g id="Group 62355">
<path id="Subtract" d="M53.8759 61.1287C54.3111 60.0608 56.6312 59.5279 59.2929 59.9307C61.9548 60.3336 64.0142 61.5293 64.1138 62.6782L64.1408 62.6823L64.461 60.5667L64.4494 60.565C64.4506 59.3898 62.3558 58.1424 59.6261 57.7292C56.8966 57.3162 54.5272 57.8879 54.1806 59.0108L54.1681 59.0089L53.8479 61.1244L53.8759 61.1287Z" fill="var(--fill-0, #16B77B)"/>
<path id="Ellipse 10" d="M59.5691 58.1089C60.9398 58.3163 62.1216 58.7397 62.9226 59.2357C63.3236 59.4841 63.6079 59.7379 63.7781 59.9716C63.9466 60.2029 63.9834 60.3837 63.9628 60.5201C63.9421 60.6566 63.8535 60.8191 63.624 60.9903C63.3921 61.1632 63.0455 61.3215 62.5889 61.4401C61.6771 61.6768 60.4231 61.7306 59.0523 61.5231C57.6816 61.3156 56.4996 60.8932 55.6987 60.3972C55.2976 60.1489 55.0134 59.895 54.8431 59.6613C54.6745 59.4299 54.6379 59.2483 54.6586 59.1119C54.6793 58.9755 54.768 58.8137 54.9973 58.6426C55.2291 58.4697 55.5757 58.3114 56.0323 58.1928C56.9441 57.9561 58.1983 57.9014 59.5691 58.1089Z" stroke="var(--stroke-0, #7EECC4)"/>
<path id="Subtract_2" d="M54.1573 59.27C54.2571 60.4189 56.3156 61.6145 58.9772 62.0174C61.639 62.4202 63.96 61.8875 64.3952 60.8195L64.4222 60.8236L64.1021 62.9392L64.0905 62.9374C63.7439 64.0604 61.3737 64.632 58.644 64.2189C55.9145 63.8057 53.8205 62.5584 53.8217 61.3832L53.8091 61.3813L54.1293 59.2658L54.1573 59.27Z" fill="var(--fill-0, #25DC96)"/>
</g>
<g id="Group 62356">
<path id="Subtract_3" d="M65.8067 60.13C65.7749 59.0233 67.4914 57.7161 69.8312 57.1195C72.1713 56.5229 74.3049 56.8484 74.8068 57.8353L74.8305 57.8292L74.3595 55.9821C74.3583 55.9768 74.3577 55.971 74.3564 55.9658C74.3551 55.9607 74.3529 55.9558 74.3516 55.9509L74.3209 55.8307L74.3105 55.8333C73.8818 54.7871 71.7007 54.4287 69.3012 55.0405C66.9019 55.6523 65.1593 57.0111 65.2839 58.1348L65.2725 58.1377L65.7821 60.1363L65.8067 60.13Z" fill="var(--fill-0, #16B77B)"/>
<path id="Ellipse 10_2" d="M69.3974 55.4167C70.5932 55.1118 71.7095 55.0657 72.5384 55.2175C73.4139 55.3778 73.7747 55.7111 73.8437 55.9812C73.9126 56.2513 73.7556 56.7175 73.0636 57.2776C72.4086 57.8077 71.4062 58.3008 70.2105 58.6057C69.0148 58.9105 67.8987 58.9575 67.0698 58.8058C66.1941 58.6454 65.8331 58.3113 65.7643 58.0411C65.6955 57.771 65.8528 57.3056 66.5446 56.7457C67.1996 56.2156 68.2017 55.7216 69.3974 55.4167Z" stroke="var(--stroke-0, #7EECC4)"/>
<path id="Subtract_4" d="M65.3592 58.3746C65.8613 59.3614 67.9941 59.6871 70.3339 59.0907C72.6738 58.4941 74.3911 57.1867 74.3594 56.0799L74.383 56.0739L74.854 57.9211C74.8554 57.9263 74.8577 57.9316 74.859 57.9369C74.8603 57.9419 74.8607 57.9473 74.8619 57.9523L74.8926 58.0725L74.8822 58.0751C75.0065 59.1989 73.2633 60.5579 70.8639 61.1697C68.4647 61.7812 66.2844 61.4227 65.8555 60.3766L65.8442 60.3795L65.3346 58.3809L65.3592 58.3746Z" fill="var(--fill-0, #25DC96)"/>
</g>
<g id="Group 62357" opacity="0.4">
<path id="Vector 20" d="M63.7135 11.6127C62.6629 6.52523 66.778 1.75112 68.9669 0C68.437 2.07371 67.7918 7.14737 69.4508 10.8524C71.1097 14.5574 73.3191 13.8718 74.3585 18.456C75.398 23.0401 71.2019 29.7461 68.9669 30.4143C69.4047 29.8613 70.225 27.6909 70.0038 23.4329C69.7273 18.1104 65.0269 17.9721 63.7135 11.6127Z" fill="var(--fill-0, white)"/>
<path id="Vector 21" d="M78.0665 15.7534C77.3781 12.4199 80.0745 9.29175 81.5088 8.14436C81.1615 9.50312 80.7388 12.8276 81.8258 15.2552C82.9128 17.6829 84.3604 17.2337 85.0415 20.2374C85.7226 23.2411 82.9732 27.6351 81.5088 28.0729C81.7956 27.7106 82.3331 26.2884 82.1881 23.4984C82.007 20.0109 78.9271 19.9203 78.0665 15.7534Z" fill="var(--fill-0, white)"/>
<path id="Vector 22" d="M53.6991 22.1821C52.8204 17.6752 56.2621 13.446 58.0928 11.8947C57.6496 13.7317 57.11 18.2264 58.4975 21.5086C59.885 24.7907 61.7328 24.1834 62.6022 28.2444C63.4716 32.3053 59.9621 38.246 58.0928 38.838C58.459 38.3481 59.145 36.4253 58.96 32.6533C58.7288 27.9382 54.7975 27.8157 53.6991 22.1821Z" fill="var(--fill-0, white)"/>
</g>
</g>
</svg>
