<svg preserveAspectRatio="none" width="100%" height="100%" overflow="visible" style="display: block;" viewBox="0 0 84.1373 60.7243" fill="none" xmlns="http://www.w3.org/2000/svg">
<g id="Group 62358">
<path id="Vector 25" d="M10.4438 50.8067C6.97409 50.0357 6.58857 46.6302 6.82952 45.0238L78.6338 26.7113C79.5976 29.7955 78.2322 31.3698 77.4291 31.7714C79.5495 35.0483 77.0275 37.7952 75.5014 38.759C76.4652 43.3853 72.2084 45.1845 69.9595 45.5057C70.345 49.5538 64.9798 51.0477 62.249 51.2886C62.0562 52.0597 60.5623 52.0918 59.8394 52.0115L45.8641 57.3125C42.3943 60.7822 38.6355 59.4008 37.1897 58.2763C33.1417 62.7099 28.917 60.1236 27.3106 58.2763C21.1422 60.3967 18.315 56.7503 17.6725 54.662C13.0461 55.8186 10.9257 52.5737 10.4438 50.8067Z" fill="var(--fill-0, #F9FAFB)"/>
<path id="Vector 24" d="M4.4199 45.4711C0.227342 42.6142 0.0827404 40.6866 0.227369 38.408C0.371997 36.1294 -0.872877 29.2233 1.28754 27.675C16.5853 16.7117 44.2762 11.9296 52.3698 11.0146C61.9416 9.39229 77.563 9.04225 82.9709 12.254C85.595 13.8125 82.9709 20.7589 82.9709 22.3741C82.9709 26.4704 84.6576 28.1224 75.0194 28.6043C65.3813 29.0862 40.804 41.3748 30.9249 49.3263C21.0457 57.2778 8.61246 48.3279 4.4199 45.4711Z" fill="var(--fill-0, #FFD52F)"/>
<path id="Vector 23" d="M4.42005 21.8922C20.6122 7.24223 43.1333 1.49146 52.3699 0.447328C66.5862 -1.96221 77.6701 5.98927 81.2844 9.36263C84.8987 12.736 84.6578 17.5551 75.0196 18.037C65.3814 18.5189 40.8041 30.8075 30.925 38.759C21.0459 46.7105 12.1306 40.4457 4.42005 34.9038C-1.74838 30.4702 1.84987 24.3821 4.42005 21.8922Z" fill="var(--fill-0, #FFE731)"/>
<path id="Vector 26" d="M46.8278 29.3618C47.9844 35.3375 47.0688 50.6461 46.5869 57.5535L61.767 52.0115C63.6946 43.1444 62.3292 28.1571 61.526 21.8923L46.8278 29.3618Z" fill="var(--fill-0, #1F2933)"/>
<path id="Vector 28" d="M29.1559 14.283C29.2138 14.4157 29.1726 14.3704 29.1499 14.3456C29.1496 14.3452 29.1492 14.3448 29.1488 14.3444C29.1434 14.3385 29.1407 14.3376 29.1376 14.3368C29.1303 14.3347 29.1203 14.3318 29.0644 14.2569C29.0619 14.262 29.0586 14.2657 29.0545 14.2678C29.0101 14.2904 28.9111 14.2058 28.8013 14.1002C28.801 14.1012 28.8008 14.1022 28.8006 14.1031C28.7962 14.1221 28.7907 14.1456 28.7581 14.1031C28.7166 14.0489 28.6807 13.9973 28.6502 13.9526C28.5621 13.8675 28.4796 13.7934 28.4246 13.7735C28.4074 13.7672 28.393 13.7664 28.3819 13.7721C28.3716 13.7773 28.3635 13.7866 28.3572 13.7995C28.3656 13.8306 28.377 13.8668 28.3875 13.9003C28.4024 13.9474 28.4155 13.9892 28.4165 14.0045C28.419 14.0415 28.3797 14.0013 28.3505 13.9715C28.3458 13.9667 28.3412 13.962 28.3372 13.9581C28.3375 13.9801 28.3384 14.0034 28.3396 14.0271C28.3335 14.0167 28.3272 14.0059 28.3207 13.9948C28.2401 13.856 28.2318 13.8626 28.2188 13.8726C28.2131 13.877 28.2064 13.882 28.1925 13.8761C28.1836 13.8723 28.1517 13.8172 28.1257 13.7723C28.118 13.7591 28.1109 13.7467 28.105 13.7368C28.0847 13.7028 28.1019 13.742 28.1221 13.7882C28.1484 13.8482 28.18 13.9202 28.1419 13.8601C28.0204 13.6684 28.0825 13.8089 28.1296 13.9151C28.1434 13.9463 28.1558 13.9744 28.162 13.9905C28.182 14.0424 28.1493 13.9976 28.1091 13.9336C28.0772 13.8829 28.0952 13.9402 28.1228 14.0106C28.1332 14.0373 28.13 14.0398 28.1262 14.0425C28.1222 14.0453 28.1175 14.0485 28.1268 14.0796C28.1503 14.1583 28.1611 14.1967 28.1697 14.2275C28.1722 14.2363 28.1744 14.2443 28.1767 14.2526C28.1842 14.2789 28.1883 14.3016 28.1925 14.3245C28.1975 14.3519 28.2026 14.3797 28.2135 14.4147C28.1816 14.3882 28.1454 14.3536 28.1093 14.3192C28.0907 14.3013 28.0203 14.1824 27.9107 13.9831C27.801 13.7836 27.6619 13.5215 27.5208 13.2483C27.3796 12.975 27.2465 12.7099 27.1474 12.5049C27.0484 12.3001 26.9923 12.1736 26.9886 12.148C26.9814 12.0967 26.9742 12.0455 26.9716 12.003C26.9685 11.9514 26.9721 11.9128 26.9906 11.9032C27.0036 11.8965 27.02 11.8964 27.039 11.9014C27.041 11.9019 27.043 11.9026 27.045 11.9032C27.0212 11.8302 27.0006 11.7634 26.9971 11.7376C26.9942 11.7163 27.0173 11.7499 27.037 11.7786C27.0506 11.7983 27.0627 11.8158 27.0636 11.8116C27.0641 11.8093 27.0637 11.8042 27.0633 11.7981C27.0617 11.7732 27.0589 11.7309 27.1063 11.7896C27.1273 11.8157 27.1639 11.8695 27.1988 11.921C27.2487 11.9945 27.2952 12.0631 27.2882 12.0383C27.2759 11.9947 27.3021 12.0235 27.3253 12.049C27.3475 12.0733 27.3668 12.0945 27.3473 12.0469C27.3239 11.9901 27.3391 12.0103 27.3618 12.0402C27.3775 12.061 27.3967 12.0863 27.4091 12.0941C27.4235 12.1031 27.4485 12.1385 27.4698 12.1686C27.4997 12.2109 27.5222 12.2427 27.4971 12.1758C27.4693 12.1014 27.4549 12.0524 27.4729 12.0711C27.4812 12.0797 27.4834 12.0754 27.4857 12.071C27.4888 12.0651 27.492 12.059 27.5095 12.0819C27.5239 12.1007 27.5543 12.1522 27.5811 12.1978C27.5895 12.212 27.5975 12.2256 27.6046 12.2375C27.6073 12.2353 27.6098 12.2328 27.612 12.2296C27.6081 12.2208 27.6038 12.2111 27.5993 12.2011C27.5769 12.1506 27.5495 12.0888 27.5382 12.0567C27.5205 12.0059 27.5414 12.0327 27.5635 12.0611C27.5808 12.0833 27.5987 12.1064 27.5996 12.0944C27.6003 12.0862 27.5935 12.0622 27.5868 12.0385C27.5768 12.0033 27.5671 11.9686 27.5817 11.9863C27.5872 11.993 27.6056 12.0256 27.624 12.0581C27.6241 12.0583 27.6242 12.0585 27.6243 12.0587C27.6256 12.0609 27.6268 12.0631 27.628 12.0653C27.6257 12.0344 27.6221 12.0009 27.6177 11.9659C27.6142 11.9568 27.6108 11.9479 27.6075 11.9391C27.5912 11.8961 27.5755 11.8543 27.5497 11.7966C27.5217 11.7342 27.5115 11.6948 27.5007 11.6532C27.4937 11.626 27.4864 11.5979 27.4737 11.5618C27.4663 11.5407 27.4864 11.5738 27.5071 11.608C27.5264 11.6398 27.5463 11.6725 27.5447 11.6628C27.5439 11.6578 27.5381 11.6428 27.5319 11.6268C27.5265 11.6127 27.5207 11.5977 27.5178 11.5882C27.5151 11.5794 27.5278 11.5965 27.5441 11.6183C27.5541 11.6318 27.5655 11.6469 27.5754 11.6591C27.5725 11.6336 27.5699 11.609 27.5681 11.5858C27.5544 11.5548 27.5359 11.5149 27.5114 11.464C27.4939 11.4275 27.4726 11.3841 27.4508 11.3396C27.4213 11.2791 27.3907 11.2166 27.3669 11.1665C27.3483 11.1273 27.3418 11.1112 27.3508 11.1268C27.355 11.1341 27.3625 11.148 27.3693 11.1606C27.377 11.1751 27.3839 11.1879 27.3841 11.1874C27.3842 11.187 27.3792 11.1765 27.3731 11.1638C27.3634 11.1435 27.351 11.1174 27.3515 11.116C27.3536 11.1106 27.3621 11.1167 27.3705 11.1227C27.3798 11.1294 27.3888 11.1358 27.3886 11.1263C27.3883 11.1155 27.4136 11.151 27.439 11.1863C27.4566 11.2109 27.4742 11.2354 27.4833 11.2446C27.4921 11.2535 27.4849 11.2305 27.4778 11.208C27.4693 11.181 27.4611 11.1549 27.4816 11.1869C27.4858 11.1934 27.5078 11.2346 27.5353 11.2861C27.5549 11.3227 27.5772 11.3644 27.598 11.4029C27.6023 11.4007 27.6075 11.4002 27.6134 11.4012C27.6107 11.3954 27.6079 11.3896 27.6051 11.3836C27.605 11.3835 27.6049 11.3834 27.6049 11.3832C27.5411 11.2489 27.4538 11.0652 27.5156 11.1698C27.5313 11.1965 27.5582 11.2467 27.5824 11.2919C27.6061 11.3363 27.6274 11.376 27.633 11.3838C27.6392 11.3926 27.6269 11.3642 27.6136 11.3333C27.5948 11.2899 27.5738 11.2414 27.5989 11.2837C27.6006 11.2866 27.6025 11.2898 27.6044 11.293C27.6223 11.323 27.6489 11.3675 27.699 11.4586C27.7208 11.4787 27.7447 11.5031 27.7699 11.53C27.812 11.575 27.8578 11.6274 27.9036 11.6798C27.926 11.7056 27.9972 11.8283 28.1049 12.0278C28.2127 12.2276 28.3475 12.4863 28.4838 12.7555C28.6202 13.0246 28.749 13.2861 28.8464 13.4912C28.9437 13.696 29.0007 13.8258 29.0084 13.8591C29.0207 13.9128 29.033 13.9666 29.0435 14.0167C29.0457 14.0226 29.0478 14.0283 29.0498 14.0337C29.0643 14.0737 29.0984 14.1516 29.1326 14.2296C29.1404 14.2476 29.1483 14.2655 29.1559 14.283ZM17.6887 30.8772C19.0227 30.6523 21.9056 31.3709 23.1388 32.3357C23.1617 32.3508 23.1845 32.3659 23.2071 32.381C23.5069 32.5824 23.7704 32.7725 24.0604 32.9936C24.3991 33.2489 24.7838 33.5744 25.1589 33.8433C25.3434 33.9748 25.5044 34.0651 25.6063 34.1036C25.7088 34.1395 25.8065 34.1785 26.1198 34.1135C26.4696 34.0078 26.9422 33.7561 27.4009 33.4547C27.4282 33.4368 27.4558 33.4186 27.4837 33.4C33.0351 29.5085 38.8094 25.338 44.8932 21.8504C44.9692 21.8036 45.0467 21.756 45.125 21.708C46.6351 20.7778 48.5504 19.6788 49.8081 19.0811C51.404 18.3177 52.5181 17.8599 53.4424 17.4983C55.9996 16.4077 58.6654 15.4489 61.485 14.9567C64.2223 14.4857 66.9682 13.8957 69.5274 12.9843C71.0518 12.4288 72.7571 11.673 73.4971 10.7014C73.6498 10.4864 73.6927 10.3243 73.6837 10.2037C73.6779 10.0822 73.6033 9.90155 73.4268 9.69615C73.0687 9.27754 72.4417 8.88548 71.7877 8.56385C71.7329 8.53891 71.6771 8.51406 71.6204 8.48929C70.8282 8.1423 70.0749 7.81583 69.3744 7.51689C68.3149 7.064 67.3796 6.67809 66.6112 6.35724C64.7661 5.57331 62.6873 4.78066 61.0982 4.41823C60.8391 4.3565 60.5936 4.30365 60.366 4.25921C59.0908 4.05958 57.8031 4.00249 56.5222 4.08857C56.4352 4.08086 56.3485 4.07324 56.2603 4.06603C55.9625 4.04204 55.648 4.0377 55.3002 4.05488C54.3983 4.0974 53.2264 4.33278 51.6639 4.74872C50.7272 4.99848 49.6476 5.31416 48.3771 5.70572C47.5639 5.95704 47.1203 6.03938 46.7638 6.10375C46.6582 6.12307 46.5589 6.14148 46.459 6.16309C46.1176 6.23692 45.7912 6.39374 45.3977 6.58408C44.8945 6.82863 44.2887 7.12581 43.4322 7.36251C40.7053 8.12199 39.6029 8.73517 38.7706 9.18744C38.5266 9.32109 38.3081 9.44163 38.0751 9.55384C37.3285 9.9134 36.2081 10.3148 35.361 10.5909C34.6799 10.8121 33.4013 11.4254 32.4534 11.9329C32.0964 12.1236 31.5925 12.3514 31.0126 12.6212C30.4093 12.9019 29.7073 13.235 28.9961 13.6278C28.6318 13.8288 28.3009 14.0173 28.0261 14.1805L28.0074 14.1904C26.8086 14.8694 26.0659 15.3024 25.4472 15.6638C25.2294 15.7914 25.0216 15.9134 24.8179 16.034C24.1727 16.4158 23.3706 16.8841 22.5627 17.3669C21.5961 17.9438 20.6239 18.5415 19.8993 19.0165C17.9551 20.1365 16.0289 21.2855 14.2495 22.5581C13.3451 23.2078 12.467 23.7803 11.861 24.1637C11.2527 24.5448 11.0251 24.6235 10.7121 24.6978C10.5637 24.7224 10.3776 24.5911 10.3245 24.2801C10.2733 23.9623 10.3639 23.5426 10.5745 23.1089C11.0053 22.2276 11.833 21.3511 12.779 20.6067C14.7004 19.1098 16.6933 17.8165 18.7156 16.5642C21.1803 15.0472 23.6897 13.6261 26.2477 12.2886C26.4556 12.18 26.6608 12.0736 26.8609 11.9705L26.8395 11.9818C28.4679 11.1134 30.0856 10.3806 31.7392 9.65498C31.9289 9.57217 32.1166 9.49089 32.3091 9.40802C33.8391 8.65313 35.3707 7.941 36.4689 7.46791C37.3719 7.07869 38.0563 6.85104 38.6411 6.65841C39.0427 6.52631 39.4013 6.40958 39.7526 6.27064C39.9416 6.19588 40.1995 6.09188 40.511 5.96749C41.7819 5.4586 43.9504 4.61686 45.9958 4.00991C46.8966 3.74169 47.969 3.4627 48.9926 3.2192C50.4578 2.86716 51.8415 2.59552 52.5386 2.41181C53.3088 2.20655 54.1606 2.03565 55.0569 1.94618C55.5676 1.89639 56.0682 1.87019 56.552 1.86184C57.7989 1.83793 58.8891 1.9492 59.5102 1.96669C60.2544 1.98889 60.8822 2.11007 61.7871 2.34792C62.4139 2.51549 63.1755 2.74349 64.1835 3.09189C65.3473 3.49815 66.1268 3.86792 66.7852 4.18317C67.7095 4.63119 68.3902 4.98438 69.4494 5.40394C70.5119 5.82649 71.5888 6.29737 72.4656 6.72832C72.5738 6.78142 72.6765 6.83435 72.7737 6.88695C73.2136 7.12677 73.741 7.42053 74.2607 7.83638C74.9016 8.33184 75.8019 9.36263 75.5569 10.6129C75.3502 11.5601 74.8131 11.9867 74.4331 12.3032C74.2998 12.4088 74.1892 12.4843 74.0681 12.5665C73.6606 12.9023 73.2253 13.1803 72.7974 13.4234C72.7319 13.4713 72.6619 13.522 72.5869 13.5747C72.2305 13.8284 71.7634 14.1302 71.1682 14.4154C70.2198 14.8673 69.3467 15.1284 68.4246 15.3763C67.7114 15.5664 66.959 15.747 66.116 15.971C65.5392 16.1244 64.8825 16.3047 64.2304 16.4727C63.3756 16.6934 62.5325 16.8922 61.8695 17.0076C61.789 17.0216 61.7114 17.0348 61.6371 17.0469C61.4005 17.0856 61.188 17.0936 60.9749 17.1046C60.974 17.1045 60.973 17.1045 60.9721 17.1045C60.9576 17.1053 60.9431 17.1061 60.9286 17.1069C59.3872 17.4969 57.8731 18.0442 56.3901 18.6724C56.2625 18.7338 56.1386 18.7944 56.0129 18.8562C55.3983 19.1578 54.8075 19.4676 54.4386 19.7044C54.0334 19.9619 52.985 20.494 51.892 21.1019C51.1777 21.4975 50.4424 21.9232 49.8564 22.289C49.5125 22.5035 49.1587 22.6571 48.7957 22.8173C48.4569 22.9668 48.1079 23.1233 47.755 23.3401C47.578 23.4488 47.3926 23.5762 47.1952 23.7129C47.0215 23.8332 46.8381 23.961 46.6429 24.0896C46.4613 24.2092 46.0373 24.4397 45.4948 24.7424C45.159 24.9296 44.7801 25.1432 44.3847 25.3741C43.3721 26.0401 42.3728 26.7159 41.3725 27.406C41.182 27.5732 41.0241 27.7315 40.9101 27.8758C40.8286 27.9791 40.7673 28.0785 40.7046 28.1803C40.6192 28.3189 40.5313 28.462 40.3888 28.6254C40.2786 28.7522 40.1249 28.8774 40.0063 28.9363C39.951 28.9638 39.9033 28.9771 39.8601 28.9893C39.8105 29.0032 39.7664 29.0156 39.7228 29.0459C39.6914 29.0677 39.6651 29.0997 39.6327 29.1388C39.581 29.2014 39.5138 29.2824 39.3879 29.37C38.9151 29.6988 38.3761 30.0604 37.8408 30.423C37.2522 30.8215 36.6697 31.2203 36.2281 31.5441C35.7209 31.9153 34.9693 32.3986 34.2283 32.8779C33.6959 33.2232 33.1762 33.5607 32.7359 33.8625C32.2984 34.1625 31.8791 34.4935 31.4472 34.8307C30.9536 35.2178 30.4444 35.6113 29.9939 35.8763C29.9109 35.9243 29.754 35.9755 29.5835 36.0204C29.4913 36.0454 29.3907 36.0717 29.2849 36.1017C29.2438 36.1157 29.2019 36.13 29.1592 36.1449C28.5391 36.5444 27.8594 36.9443 26.9761 37.2004C26.9471 37.2153 26.917 37.2303 26.8868 37.2451C26.8863 37.2454 26.8858 37.2457 26.8854 37.246C26.5285 37.4142 26.0486 37.6035 25.3681 37.598C24.6933 37.601 23.8971 37.3157 23.3456 36.8843C23.0634 36.6682 22.9447 36.5061 22.837 36.3633C22.7356 36.225 22.6492 36.1017 22.5004 35.9745C22.3302 35.8291 22.1177 35.7023 21.8917 35.5778C21.5765 35.4042 21.2485 35.2478 20.963 35.0356C20.9434 35.021 20.9221 35.0054 20.8997 34.9892C20.6924 34.8381 20.3707 34.6318 20.0381 34.4141C19.1691 34.103 18.1899 33.9784 17.1544 33.9856C16.8407 33.9891 16.5619 33.984 16.2469 33.9684C14.957 33.8956 13.5545 33.6669 12.27 32.859C10.9642 32.068 10.1334 30.5803 9.87545 29.2632C9.59727 27.9576 9.74795 26.7963 9.94655 25.9861C10.1572 25.1758 10.4125 24.7268 10.7121 24.6978C11.013 24.6628 11.3436 25.1361 11.5866 25.9441C11.8354 26.7465 11.9939 27.7895 12.248 28.6792C12.6601 30.1639 13.5652 30.8234 15.1029 31.0557C15.1799 31.0633 15.2595 31.0702 15.3412 31.0763C15.9141 31.1176 16.4784 31.0541 17.0534 30.9544C17.0887 30.9494 17.124 30.9445 17.1591 30.9398C17.338 30.9155 17.5145 30.8945 17.6887 30.8772Z" fill="var(--stroke-0, #FFD52F)"/>
<path id="Vector 29" d="M31.7734 17.6482C31.262 18.1173 30.1233 18.7525 29.5105 19.1173C29.4993 19.1239 29.4882 19.1306 29.4768 19.1374C29.3299 19.2241 29.1948 19.3108 29.0381 19.4127C28.667 19.6572 28.1531 19.9824 27.1011 20.6493C26.8187 20.8649 26.5293 21.0911 26.2542 21.3129C25.3987 22.0045 24.5893 22.7235 23.9825 23.4608C23.6861 23.8192 23.4559 24.1923 23.3745 24.425C23.3321 24.5399 23.3292 24.5985 23.3231 24.6003C23.3194 24.6031 23.2942 24.5763 23.3143 24.6197C23.3306 24.6558 23.3536 24.708 23.5398 24.776C23.7221 24.8409 24.0124 24.8809 24.3523 24.8774C25.0235 24.8718 25.8056 24.7288 26.5925 24.5292C26.6377 24.5151 26.684 24.5004 26.731 24.4854C27.6386 24.1985 28.7824 23.7319 29.5098 23.4809C30.4438 23.1596 31.0846 22.9301 31.6151 22.7417C34.561 21.485 37.4573 20.0167 40.3488 18.5119C41.2613 18.0375 42.1538 17.5688 43.0815 17.0947C43.9367 16.6609 44.7865 16.2295 45.7185 15.8491C46.0822 15.685 46.4656 15.5201 46.897 15.4122C47.0201 15.3777 47.1775 15.3322 47.3088 15.2902C47.9092 15.0998 48.4664 14.8897 48.917 14.7367C50.029 14.3599 51.2917 13.9627 52.2316 13.6379C52.3856 13.5849 52.5294 13.5346 52.6624 13.4872C53.3856 13.1765 54.0981 12.8496 54.7972 12.5023C54.8493 12.4914 54.9019 12.4807 54.9553 12.4699C55.6222 12.3296 56.3802 11.977 57.4446 11.3289C57.8988 11.0454 58.4448 10.6861 58.8833 10.2621C59.1611 9.98438 59.2421 9.91173 59.312 9.87671C59.3308 9.86781 59.3466 9.86113 59.3586 9.85789C59.3938 9.84056 59.3704 9.89179 59.3051 9.8841C59.221 9.87621 58.9745 9.7894 58.6044 9.58806C58.3892 9.47323 58.2043 9.39549 57.9807 9.32367C56.9839 9.00925 56.3876 9.11947 55.9607 9.18934C55.8045 9.21615 55.6671 9.24268 55.5255 9.25703C55.0603 9.30177 54.4088 9.26382 53.8932 9.22297C53.4935 9.18619 52.6851 9.32038 52.0902 9.47709C51.8613 9.53585 51.5548 9.57941 51.1859 9.63871C50.8087 9.69928 50.3686 9.77636 49.9066 9.89814C48.739 10.2087 48.1247 10.4017 47.6305 10.5527C47.4895 10.5963 47.3584 10.6373 47.2277 10.6791C46.815 10.8108 46.3011 10.9693 45.7821 11.1379C45.1617 11.339 44.5346 11.5548 44.0652 11.7384C42.807 12.0889 41.552 12.4672 40.3135 12.8795C39.6805 13.0897 39.0275 13.1991 38.5019 13.1688C37.9822 13.1358 37.6125 12.9731 37.495 12.6886C37.3695 12.4082 37.5092 12.0237 37.8717 11.6292C38.2394 11.2327 38.8184 10.8557 39.4579 10.5908C40.7529 10.0549 42.0642 9.55717 43.3978 9.10546C45.0163 8.55782 46.6683 8.07763 48.3541 7.71082C49.5332 7.45493 50.7303 7.24528 51.9456 7.10473C52.0709 7.09028 52.1946 7.07687 52.3206 7.06392C53.3343 6.86928 54.3756 6.74289 55.124 6.71793C55.7456 6.69583 56.2023 6.75995 56.5885 6.82438C56.8621 6.86985 57.0913 6.91522 57.3393 6.94422C57.4719 6.95985 57.6517 6.98061 57.8669 7.01239C58.0539 7.04019 58.2658 7.07615 58.4938 7.12427C58.7363 7.17595 58.984 7.2379 59.2275 7.31395C59.5354 7.41397 59.7574 7.49158 60.1198 7.68134C60.4264 7.85328 60.8065 8.07455 61.1682 8.58008C61.5363 9.04824 61.6602 9.94723 61.4614 10.4692C61.0333 11.6269 60.3246 12.0029 59.7534 12.412C58.9049 12.9555 58.1374 13.2829 57.77 13.5202C57.1287 13.9287 56.3528 14.2706 55.6587 14.553C54.9961 14.8233 54.4163 15.0383 54.1101 15.2211C53.7435 15.4395 53.4027 15.5506 52.8899 15.7098C52.5366 15.8187 52.1019 15.9504 51.5152 16.1465C50.8442 16.37 50.3443 16.4897 49.9285 16.5844C49.3296 16.7201 48.9005 16.8111 48.2469 17.0573C47.9314 17.1752 47.5901 17.2868 47.2637 17.3681C47.0203 17.4384 46.6461 17.5835 46.3686 17.6798C46.1225 17.7659 45.8564 17.8841 45.5621 18.0222C45.1868 18.1982 44.773 18.4043 44.4037 18.5575C44.0843 18.6913 43.8121 18.7638 43.5664 18.8311C43.4895 18.8522 43.4151 18.873 43.3432 18.8948C43.0907 19.0268 42.8677 19.1451 42.6216 19.2769C42.5867 19.3063 42.55 19.3377 42.5116 19.3704C42.3133 19.5377 42.0965 19.7295 41.7792 19.9374C41.2863 20.2615 40.8102 20.4801 40.3196 20.704C39.9334 20.8806 39.5284 21.0661 39.0877 21.3145C38.7835 21.4857 38.4506 21.6917 38.1162 21.8973C37.6167 22.2042 37.1303 22.5009 36.7635 22.6676C36.6272 22.7294 36.4959 22.7557 36.3658 22.7814C36.3652 22.7814 36.3646 22.7815 36.364 22.7816C36.3552 22.7833 36.3463 22.7851 36.3375 22.7869C35.4883 23.261 34.6315 23.7327 33.7701 24.1912C33.6992 24.2366 33.6248 24.2835 33.5523 24.3291C33.1961 24.5531 32.856 24.7638 32.6407 24.9343C32.4075 25.1193 31.7736 25.4584 31.0868 25.8016C30.6418 26.0248 30.1652 26.253 29.7841 26.4442C29.5555 26.5584 29.3185 26.608 29.0781 26.6549C28.8598 26.6964 28.6098 26.7461 28.3719 26.8379C28.2513 26.8843 28.1253 26.9437 27.9915 27.0053C27.8674 27.0616 27.7349 27.1204 27.5959 27.1732C27.4618 27.2233 27.184 27.2867 26.7752 27.3653C26.5251 27.4127 26.2713 27.4546 25.9565 27.5023C25.2005 27.6737 24.3538 27.8202 23.3948 27.7251C23.1852 27.7319 23.0175 27.7438 22.84 27.7584C22.7194 27.7702 22.6108 27.7891 22.4962 27.8038C22.3378 27.8219 22.1819 27.841 21.9441 27.7909C21.7601 27.7527 21.5556 27.6547 21.4402 27.5552C21.3863 27.5092 21.3513 27.4649 21.3204 27.4245C21.2851 27.3782 21.2539 27.3359 21.2053 27.2973C21.1702 27.2694 21.127 27.2485 21.0741 27.2207C20.9901 27.1763 20.8789 27.1149 20.7509 26.9767C20.6811 26.901 20.6131 26.8203 20.548 26.7351C20.1713 26.2576 19.8799 25.5454 19.8447 24.8674C19.7905 23.9841 20.0557 23.2937 20.2329 22.8606C20.446 22.3411 20.8589 21.7717 21.284 21.3082C21.5889 20.9713 21.8878 20.6878 22.1422 20.4413C22.3902 20.2011 22.6288 19.937 22.8633 19.6894C23.1471 19.39 23.4214 19.1178 23.6956 18.9379C23.7506 18.902 23.8429 18.886 23.9589 18.8664C24.0411 18.8525 24.1356 18.8365 24.2371 18.8108C24.5529 18.5562 24.8829 18.3037 25.2033 18.0687C25.2108 18.0551 25.2187 18.0412 25.2265 18.0271C25.2266 18.0269 25.2267 18.0266 25.2268 18.0263C25.4054 17.7079 25.6534 17.2737 26.2479 17.0079C26.3975 16.9416 26.5135 16.931 26.6178 16.9217C26.7204 16.9125 26.812 16.9046 26.9148 16.8464C27.0315 16.7805 27.1424 16.6687 27.2663 16.5461C27.4398 16.3743 27.6367 16.1823 27.8877 16.0788C27.9049 16.0717 27.9235 16.0641 27.9427 16.0561C28.1247 15.9804 28.3964 15.8685 28.6921 15.8058C29.4236 15.38 30.1625 14.9739 30.9077 14.5821C32.1516 13.9284 33.4047 13.3184 34.6797 12.7319C35.2918 12.4511 35.9489 12.2792 36.4727 12.2739C37.0087 12.263 37.369 12.4148 37.4992 12.6867C37.63 12.9588 37.5239 13.332 37.198 13.7455C36.8831 14.1532 36.3712 14.5691 35.8059 14.9003C34.8733 15.445 33.9508 16.0064 33.0395 16.5798C32.9934 16.6131 32.9471 16.6465 32.9007 16.6794C32.5585 16.9231 32.2632 17.1926 31.9738 17.4619C31.9072 17.5239 31.8405 17.5862 31.7734 17.6482Z" fill="var(--stroke-0, #FFD52F)"/>
<path id="Vector 27" d="M20.8048 10.3264C32.3706 13.6034 42.9726 24.382 46.8278 29.3618L61.526 21.8922C53.0444 9.94086 40.1614 5.18604 34.7801 4.30254L20.8048 10.3264Z" fill="var(--fill-0, #374151)"/>
</g>
</svg>
