<svg preserveAspectRatio="none" width="100%" height="100%" overflow="visible" style="display: block;" viewBox="0 0 93.375 67.582" fill="none" xmlns="http://www.w3.org/2000/svg">
<g id="Group 62359">
<path id="Vector 25" d="M9.10237 56.0819C5.07897 55.1878 4.63192 51.2389 4.91133 49.3762L46.4753 26.4652L88.1735 28.1416C89.2911 31.7179 87.7078 33.5434 86.7765 34.009C89.2352 37.8089 86.3108 40.9941 84.5412 42.1117C85.6589 47.4763 80.7227 49.5625 78.115 49.935C78.562 54.629 72.3406 56.3613 69.1741 56.6407C68.9505 57.5348 66.3129 59.4347 64.6365 59.9935C62.9601 60.5523 59.47 59.8349 59.47 59.8349C59.47 59.8349 57.372 62.7848 55.1368 63.6258C53.3231 64.3082 50.1747 63.6258 50.1747 63.6258C46.1512 67.6492 41.7926 66.0473 40.1161 64.7434C35.4222 69.8844 30.5233 66.8855 28.6606 64.7434C21.5079 67.2021 18.2296 62.9738 17.4845 60.5523C12.1199 61.8935 9.66118 58.1308 9.10237 56.0819Z" fill="var(--fill-0, white)"/>
<path id="Vector 31" d="M90.0623 30.9356C92.7446 29.371 93.2289 23.3917 93.1357 20.5977L45.6372 17.2449L0.0944929 37.6413C-0.0917759 40.3422 -0.12903 46.5822 1.21211 49.935C2.88852 54.1261 16.0205 65.861 36.6963 47.141C57.3721 28.421 69.9041 31.2548 73.0187 31.4944C76.6509 31.7738 86.7095 32.8914 90.0623 30.9356Z" fill="var(--fill-0, #D93A20)"/>
<path id="Vector 30" d="M4.56484 26.7446C15.1822 11.9362 34.1816 5.50994 35.2992 4.67173C70.2246 -8.73962 85.5917 10.8186 87.827 12.495C90.0622 14.1714 97.8855 21.9947 89.7828 23.1123C81.6801 24.23 82.5183 18.3625 61.5631 23.1123C40.6078 27.8622 42.0049 35.9649 22.4466 47.6998C2.88842 59.4348 -6.05248 41.5529 4.56484 26.7446Z" fill="var(--fill-0, #F2472A)"/>
<path id="Intersect" d="M0.809973 44.4158C9.97917 39.5064 21.7995 40.1456 27.1967 41.2733C16.5531 41.6008 7.95884 44.9483 2.73185 47.8865C1.90458 46.8876 1.2601 45.7166 0.809973 44.4158ZM2.89103 29.3895C20.7859 21.825 36.7926 25.8236 42.8432 28.9803C22.9231 25.761 7.39583 31.6596 0.418371 35.994C0.850944 33.8366 1.66571 31.601 2.89103 29.3895ZM23.142 10.6746C40.6994 9.54503 54.2169 16.2458 59.3276 20.3182C38.2832 13.3035 20.8439 15.71 11.8852 18.7049C15.5947 15.4078 19.5538 12.7543 23.142 10.6746ZM53.3266 0.231268C65.1403 3.1518 74.6917 10.9306 78.6068 15.2889C65.0282 6.53435 48.1649 4.10078 37.3774 3.90412C43.2594 1.81801 48.5649 0.680924 53.3266 0.231268Z" fill="var(--fill-0, #FF7F6B)"/>
</g>
</svg>
